<svg width="50" height="50" viewBox="0 0 50 50" fill="none" xmlns="http://www.w3.org/2000/svg">
<path d="M29.4909 16.0001L29.0484 16.8969C29.3532 17.0473 29.7134 17.0326 30.0049 16.8579L29.4909 16.0001ZM12.3364 14.3335L12.5322 15.3141C12.7001 15.2806 12.8565 15.2045 12.9866 15.0932L12.3364 14.3335ZM2 11L2.57289 10.1804C2.24287 9.9497 1.80669 9.93946 1.46621 10.1544C1.12573 10.3693 0.947357 10.7675 1.01364 11.1646L2 11ZM9.55455 17.1112L10.4412 17.5737C10.596 17.2769 10.592 16.9223 10.4306 16.629C10.2692 16.3358 9.97169 16.1427 9.6381 16.1147L9.55455 17.1112ZM9.55455 24.889L8.73355 25.4599L9.55455 24.889ZM15.1181 29.889L14.4939 30.6703L15.1181 29.889ZM16.0454 33.7778L15.059 33.6132C14.9937 34.0047 15.166 34.3978 15.4983 34.6149L16.0454 33.7778ZM21.1454 37.1112L20.5982 37.9482C20.6787 38.0008 20.7663 38.0415 20.8584 38.0691L21.1454 37.1112ZM25.7817 34.889L26.4501 35.6327C26.7582 35.3559 26.8637 34.9178 26.7155 34.531C26.5672 34.1443 26.1959 33.889 25.7817 33.889V34.889ZM22.0726 34.889L21.4438 35.6665C21.6218 35.8105 21.8438 35.889 22.0726 35.889V34.889ZM18.5 32L17.6261 31.5138C17.3898 31.9386 17.4932 32.4719 17.8712 32.7776L18.5 32ZM14.8875 20.0276C14.3504 19.8989 13.8107 20.2299 13.682 20.767C13.5533 21.3041 13.8843 21.8438 14.4214 21.9725L14.8875 20.0276ZM37.8364 12.1111L37.8364 11.1111L37.8364 12.1111ZM44.3273 14.3335L43.4044 14.7185C43.5414 15.0469 43.8426 15.2778 44.1953 15.3247L44.3273 14.3335ZM48.5 14.8889H49.5C49.5 14.3876 49.1288 13.9638 48.6319 13.8976L48.5 14.8889ZM29.9545 28.2222L30.3255 29.1509L29.9545 28.2222ZM27.6364 29.3333L27.1224 28.4755C27.0262 28.5331 26.9404 28.6065 26.8686 28.6926L27.6364 29.3333ZM29.9334 15.1034C27.4542 13.8801 24.2748 11.7041 19.8865 11.12L19.6226 13.1025C23.5798 13.6292 26.273 15.5275 29.0484 16.8969L29.9334 15.1034ZM19.8865 11.12C17.5487 10.8088 15.4961 11.4335 14.0562 12.1087C13.3325 12.4479 12.7501 12.8061 12.3456 13.0817C12.1429 13.2198 11.9837 13.338 11.8725 13.4239C11.8169 13.4669 11.7732 13.5019 11.742 13.5273C11.7263 13.5401 11.7138 13.5504 11.7045 13.5582C11.6999 13.5621 11.696 13.5654 11.6929 13.568C11.6914 13.5693 11.6901 13.5704 11.6889 13.5714C11.6884 13.5718 11.6878 13.5723 11.6874 13.5727C11.6871 13.5729 11.6868 13.5731 11.6867 13.5732C11.6864 13.5735 11.6861 13.5737 12.3364 14.3335C12.9866 15.0932 12.9863 15.0934 12.9861 15.0936C12.986 15.0937 12.9858 15.0939 12.9856 15.094C12.9854 15.0942 12.9852 15.0944 12.985 15.0946C12.9847 15.0949 12.9845 15.095 12.9845 15.095C12.9846 15.0949 12.9855 15.0942 12.9871 15.0928C12.9903 15.0901 12.9965 15.085 13.0057 15.0775C13.024 15.0625 13.0541 15.0384 13.0954 15.0065C13.178 14.9427 13.3049 14.8482 13.4717 14.7346C13.8062 14.5067 14.2959 14.2052 14.9052 13.9195C16.1311 13.3447 17.7877 12.8583 19.6226 13.1025L19.8865 11.12ZM12.1405 13.3528C10.8109 13.6184 9.79553 13.7258 8.47242 13.368C7.10044 12.997 5.32549 12.1043 2.57289 10.1804L1.42711 11.8196C4.23814 13.7844 6.24047 14.8363 7.9503 15.2987C9.70902 15.7743 11.08 15.6041 12.5322 15.3141L12.1405 13.3528ZM1.01364 11.1646C1.5508 14.3829 3.75559 16.1301 5.69956 17.0439C6.67163 17.5009 7.6045 17.7646 8.29111 17.9146C8.63599 17.9899 8.92293 18.0375 9.12708 18.0665C9.22927 18.0811 9.31103 18.091 9.3693 18.0975C9.39845 18.1008 9.42174 18.1031 9.43881 18.1048C9.44735 18.1056 9.45433 18.1063 9.4597 18.1068C9.46239 18.107 9.46468 18.1072 9.46656 18.1074C9.46751 18.1075 9.46835 18.1075 9.46908 18.1076C9.46945 18.1076 9.46993 18.1077 9.47011 18.1077C9.47056 18.1077 9.47099 18.1078 9.55455 17.1112C9.6381 16.1147 9.63848 16.1148 9.63883 16.1148C9.63891 16.1148 9.63924 16.1148 9.6394 16.1149C9.63974 16.1149 9.63997 16.1149 9.64011 16.1149C9.64039 16.1149 9.64027 16.1149 9.63977 16.1149C9.63877 16.1148 9.63623 16.1146 9.6322 16.1142C9.62413 16.1134 9.6101 16.112 9.59048 16.1098C9.55122 16.1054 9.4897 16.098 9.40885 16.0865C9.24696 16.0635 9.00889 16.0242 8.71798 15.9607C8.133 15.8329 7.3511 15.6104 6.55044 15.234C4.94895 14.4811 3.37647 13.1727 2.98636 10.8354L1.01364 11.1646ZM8.6679 16.6488C8.2283 17.4916 7.72249 18.8935 7.57383 20.4612C7.42492 22.0314 7.62689 23.8686 8.73355 25.4599L10.3755 24.318C9.62773 23.2427 9.44336 21.9317 9.56489 20.6501C9.68667 19.3659 10.1081 18.2123 10.4412 17.5737L8.6679 16.6488ZM8.73355 25.4599C11.1598 28.9488 13.3231 29.735 14.4939 30.6703L15.7422 29.1076C14.1312 27.8207 12.5854 27.4958 10.3755 24.318L8.73355 25.4599ZM14.4939 30.6703C14.7576 30.8809 14.9701 31.3164 15.0681 31.9682C15.1619 32.5926 15.1221 33.2354 15.059 33.6132L17.0317 33.9425C17.1232 33.3943 17.1761 32.5372 17.0458 31.6709C16.9197 30.8319 16.5913 29.7859 15.7422 29.1076L14.4939 30.6703ZM15.4983 34.6149L20.5982 37.9482L21.6925 36.2741L16.5925 32.9408L15.4983 34.6149ZM20.8584 38.0691C21.2156 38.1761 21.7771 38.3057 22.3263 38.3448C22.5992 38.3642 22.9141 38.3648 23.2178 38.3073C23.5023 38.2534 23.9233 38.121 24.2313 37.7519L22.6958 36.4704C22.8183 36.3236 22.9341 36.3255 22.8457 36.3422C22.7766 36.3553 22.6511 36.3628 22.4681 36.3498C22.1054 36.324 21.6933 36.2314 21.4323 36.1532L20.8584 38.0691ZM24.2313 37.7519C24.5446 37.3765 25.8056 36.212 26.4501 35.6327L25.1133 34.1452C24.5214 34.6771 23.1243 35.9569 22.6958 36.4704L24.2313 37.7519ZM22.7014 34.1114L19.1288 31.2224L17.8712 32.7776L21.4438 35.6665L22.7014 34.1114ZM19.3739 32.4862C19.9097 31.523 20.3982 30.0299 20.5621 28.4802C20.7244 26.9464 20.5878 25.1695 19.6588 23.7782L17.9955 24.8887C18.5502 25.7195 18.7136 26.9426 18.5732 28.2698C18.4345 29.5813 18.0175 30.8103 17.6261 31.5138L19.3739 32.4862ZM19.6588 23.7782C18.0367 21.3485 15.9076 20.2721 14.8875 20.0276L14.4214 21.9725C14.9468 22.0984 16.6504 22.8739 17.9955 24.8887L19.6588 23.7782ZM30.0049 16.8579C31.0708 16.2193 32.7626 15.2606 34.3637 14.465C35.1652 14.0666 35.9283 13.7171 36.5705 13.4695C37.2564 13.205 37.6713 13.1111 37.8363 13.1111L37.8364 11.1111C37.2596 11.1111 36.5308 11.3412 35.851 11.6034C35.1274 11.8824 34.3025 12.262 33.4736 12.6739C31.8137 13.4988 30.0747 14.4846 28.9769 15.1423L30.0049 16.8579ZM37.8363 13.1111C38.772 13.1112 39.7763 13.1117 40.6594 13.1778C41.0996 13.2108 41.4874 13.2586 41.806 13.3247C42.1375 13.3934 42.3304 13.4694 42.4224 13.5245L43.4503 11.8088C43.0787 11.5862 42.6341 11.4538 42.2121 11.3663C41.7774 11.2762 41.2959 11.2199 40.8088 11.1834C39.8373 11.1107 38.7552 11.1112 37.8364 11.1111L37.8363 13.1111ZM42.4224 13.5245C42.6447 13.6577 42.8626 13.8748 43.0515 14.1271C43.2393 14.3779 43.3599 14.6119 43.4044 14.7185L45.2502 13.9484C45.0555 13.4819 44.4512 12.4085 43.4503 11.8088L42.4224 13.5245ZM44.1953 15.3247L48.3681 15.8801L48.6319 13.8976L44.4592 13.3422L44.1953 15.3247ZM47.5 14.8889C47.5 15.4661 47.4148 16.3609 47.1743 17.1333C46.9103 17.9813 46.5818 18.3085 46.3585 18.3754L46.9324 20.2913C48.1928 19.9137 48.7915 18.6668 49.0839 17.7278C49.3998 16.7132 49.5 15.608 49.5 14.8889H47.5ZM46.3585 18.3754C45.6771 18.5795 44.9804 18.4886 43.8797 18.3421C42.8252 18.2017 41.524 18.0401 39.9587 18.3527L40.3504 20.314C41.5669 20.071 42.5839 20.1872 43.6158 20.3246C44.6014 20.4558 45.7593 20.6427 46.9324 20.2913L46.3585 18.3754ZM39.9587 18.3527C39.444 18.4555 38.9289 18.706 38.4505 19.0003C37.9617 19.3012 37.4523 19.685 36.9422 20.1106C35.9227 20.9612 34.8355 22.0336 33.8165 23.0802C32.7646 24.1605 31.8489 25.1458 31.0316 25.9752C30.6342 26.3784 30.2937 26.7098 30.0175 26.9528C29.7071 27.2259 29.5778 27.2959 29.5836 27.2936L30.3255 29.1509C30.679 29.0097 31.0423 28.7151 31.3387 28.4543C31.6692 28.1635 32.0494 27.7917 32.4562 27.379C33.2471 26.5764 34.2729 25.4784 35.2494 24.4754C36.2589 23.4386 37.287 22.4277 38.2235 21.6463C38.6913 21.256 39.1201 20.9367 39.4987 20.7037C39.8879 20.4642 40.1697 20.3501 40.3504 20.314L39.9587 18.3527ZM29.5836 27.2936C28.4213 27.7578 27.4771 28.263 27.1224 28.4755L28.1503 30.1912C28.4138 30.0333 29.2623 29.5755 30.3255 29.1509L29.5836 27.2936ZM25.7817 33.889H23V35.889H25.7817V33.889ZM23 33.889H22.0726V35.889H23V33.889ZM26.8686 28.6926L22.2322 34.2482L23.7678 35.5297L28.4041 29.9741L26.8686 28.6926Z" fill="#393939"/>
<path d="M39.6909 11C39.32 11 37.0637 11.9259 35.9819 12.6667C37.2182 13.5926 39.7837 15.4444 40.1546 15.4444C40.6182 15.4444 40.1546 11 39.6909 11Z" fill="white"/>
<path d="M18.4343 18.7137C18.399 18.1626 17.9235 17.7445 17.3723 17.7798C16.8212 17.8152 16.4031 18.2907 16.4385 18.8418L18.4343 18.7137ZM22.0728 28.2222L22.9204 27.6917C22.8275 27.5433 22.6973 27.4219 22.5428 27.3396L22.0728 28.2222ZM21.1455 32.1111L20.5617 31.2992C20.3004 31.4871 20.1455 31.7892 20.1455 32.1111H21.1455ZM20.1455 33.7778C20.1455 34.3301 20.5932 34.7778 21.1455 34.7778C21.6978 34.7778 22.1455 34.3301 22.1455 33.7778H20.1455ZM22.1455 37.1111C22.1455 36.5588 21.6978 36.1111 21.1455 36.1111C20.5932 36.1111 20.1455 36.5588 20.1455 37.1111H22.1455ZM21.1455 41H20.1455C20.1455 41.5523 20.5932 42 21.1455 42V41ZM25 41V42C25.3881 42 25.7412 41.7754 25.9057 41.4238C26.0702 41.0723 26.0165 40.6573 25.7678 40.3593L25 41ZM23.6091 39.3333H22.6091C22.6091 39.5675 22.6913 39.7943 22.8413 39.9741L23.6091 39.3333ZM24.6091 37.6667C24.6091 37.1144 24.1614 36.6667 23.6091 36.6667C23.0568 36.6667 22.6091 37.1144 22.6091 37.6667H24.6091ZM35.9819 12.6667L35.4169 11.8416C35.1508 12.0237 34.9889 12.3231 34.9821 12.6455C34.9752 12.9679 35.1243 13.2738 35.3824 13.4671L35.9819 12.6667ZM31.3208 25.3193C31.5586 24.8208 31.3472 24.224 30.8487 23.9863C30.3502 23.7485 29.7533 23.9599 29.5156 24.4584L31.3208 25.3193ZM27.6611 28.3473C27.4233 28.8458 27.6347 29.4427 28.1332 29.6804C28.6317 29.9181 29.2286 29.7067 29.4663 29.2082L27.6611 28.3473ZM16.4385 18.8418C16.6829 22.6502 17.9126 25.1981 19.1304 26.8109C19.7359 27.6128 20.3312 28.1741 20.7859 28.5407C21.0133 28.724 21.2057 28.8587 21.347 28.9507C21.4176 28.9967 21.4756 29.0321 21.5189 29.0575C21.5405 29.0702 21.5585 29.0805 21.5725 29.0883C21.5796 29.0923 21.5856 29.0956 21.5906 29.0983C21.5932 29.0997 21.5954 29.101 21.5974 29.102C21.5984 29.1026 21.5994 29.1031 21.6003 29.1036C21.6007 29.1038 21.6013 29.1041 21.6015 29.1042C21.6021 29.1046 21.6027 29.1049 22.0728 28.2222C22.5428 27.3396 22.5434 27.3399 22.5439 27.3402C22.5441 27.3402 22.5446 27.3405 22.5449 27.3407C22.5455 27.341 22.5461 27.3413 22.5466 27.3416C22.5476 27.3421 22.5483 27.3425 22.5488 27.3428C22.5499 27.3434 22.5499 27.3434 22.549 27.3429C22.5473 27.3419 22.5417 27.3388 22.5327 27.3335C22.5146 27.3229 22.4825 27.3034 22.4382 27.2746C22.3494 27.2168 22.2122 27.1215 22.0411 26.9836C21.699 26.7078 21.2222 26.2622 20.7265 25.6058C19.742 24.3019 18.6535 22.1276 18.4343 18.7137L16.4385 18.8418ZM21.2251 28.7528C21.675 29.4715 21.5362 30.0352 21.2673 30.4956C21.1226 30.7433 20.9401 30.9513 20.7874 31.1005C20.7126 31.1735 20.649 31.2284 20.6071 31.2629C20.5862 31.2801 20.5711 31.2919 20.563 31.2981C20.5589 31.3012 20.5567 31.3028 20.5564 31.303C20.5563 31.3031 20.5567 31.3029 20.5575 31.3022C20.558 31.3019 20.5585 31.3015 20.5592 31.301C20.5596 31.3007 20.56 31.3005 20.5604 31.3001C20.5606 31.3 20.5609 31.2998 20.561 31.2997C20.5614 31.2994 20.5617 31.2992 21.1455 32.1111C21.7292 32.923 21.7296 32.9228 21.73 32.9225C21.7301 32.9224 21.7305 32.9221 21.7308 32.9219C21.7314 32.9215 21.732 32.9211 21.7326 32.9206C21.7338 32.9197 21.7353 32.9187 21.7368 32.9176C21.7399 32.9153 21.7436 32.9126 21.7478 32.9095C21.7562 32.9033 21.7668 32.8953 21.7794 32.8856C21.8046 32.8663 21.8379 32.8402 21.8777 32.8074C21.9571 32.7421 22.0638 32.6494 22.1846 32.5315C22.423 32.2987 22.7332 31.9512 22.9942 31.5044C23.5366 30.5759 23.8615 29.1952 22.9204 27.6917L21.2251 28.7528ZM20.1455 32.1111V33.7778H22.1455V32.1111H20.1455ZM20.1455 37.1111V41H22.1455V37.1111H20.1455ZM21.1455 42H25V40H21.1455V42ZM25.7678 40.3593L24.3769 38.6926L22.8413 39.9741L24.2322 41.6407L25.7678 40.3593ZM24.6091 39.3333V37.6667H22.6091V39.3333H24.6091ZM36.5468 13.4918C37.0088 13.1754 37.7745 12.7887 38.5016 12.4727C38.8581 12.3177 39.1856 12.1884 39.4379 12.0999C39.565 12.0554 39.6626 12.0249 39.7297 12.0068C39.8277 11.9804 39.7899 12 39.6909 12V10C39.4993 10 39.3098 10.0486 39.2092 10.0757C39.0777 10.1111 38.9297 10.1587 38.7762 10.2126C38.4673 10.3209 38.0936 10.4693 37.7044 10.6384C36.9401 10.9706 36.0367 11.4172 35.4169 11.8416L36.5468 13.4918ZM39.6909 12C39.2999 12 39.0782 11.7686 39.0281 11.7119C38.9649 11.6403 38.9454 11.5892 38.9552 11.6104C38.9709 11.6443 39.0072 11.7445 39.0526 11.9309C39.1397 12.2889 39.2207 12.7966 39.2759 13.326C39.3312 13.8561 39.3558 14.3617 39.3435 14.7152C39.3405 14.8013 39.3356 14.8712 39.3297 14.9253C39.3267 14.952 39.3238 14.9725 39.3213 14.9875C39.3187 15.0027 39.3171 15.009 39.3174 15.0079C39.3175 15.0076 39.3212 14.9926 39.3311 14.9676C39.3402 14.9445 39.3614 14.8953 39.4019 14.8353C39.4776 14.7231 39.7195 14.4444 40.1546 14.4444V16.4444C40.6476 16.4444 40.9403 16.1311 41.0599 15.9538C41.1761 15.7815 41.2293 15.605 41.2562 15.4991C41.3134 15.273 41.3343 15.0146 41.3423 14.7848C41.359 14.305 41.3257 13.6995 41.2651 13.1185C41.2044 12.5367 41.1115 11.9333 40.9958 11.4579C40.9398 11.2277 40.8674 10.9807 40.7708 10.7716C40.7244 10.6712 40.6479 10.5247 40.5272 10.3879C40.4196 10.2662 40.1399 10 39.6909 10V12ZM40.1546 14.4444C40.2403 14.4444 40.3038 14.457 40.3321 14.4633C40.3638 14.4704 40.3842 14.4774 40.39 14.4794C40.4003 14.483 40.391 14.4804 40.3561 14.4634C40.2874 14.4301 40.1813 14.3717 40.0363 14.2842C39.7496 14.1114 39.3745 13.864 38.9591 13.5786C38.1316 13.0101 37.1928 12.3242 36.5813 11.8662L35.3824 13.4671C36.0072 13.935 36.9693 14.6381 37.8265 15.227C38.2533 15.5203 38.6664 15.7937 39.0037 15.997C39.1706 16.0977 39.3355 16.1912 39.4829 16.2627C39.556 16.2982 39.6411 16.3363 39.7303 16.3675C39.7988 16.3914 39.9593 16.4444 40.1546 16.4444V14.4444ZM29.5156 24.4584L27.6611 28.3473L29.4663 29.2082L31.3208 25.3193L29.5156 24.4584Z" fill="#393939"/>
</svg>
