<svg width="50" height="50" viewBox="0 0 50 50" fill="none" xmlns="http://www.w3.org/2000/svg">
<rect x="8" y="6" width="22" height="39" stroke="#393939" stroke-width="2" stroke-linejoin="round"/>
<rect x="30" y="16" width="15" height="29" stroke="#393939" stroke-width="2" stroke-linejoin="round"/>
<path d="M38.25 25.6001C38.25 25.1859 37.9142 24.8501 37.5 24.8501C37.0858 24.8501 36.75 25.1859 36.75 25.6001L38.25 25.6001ZM36.75 28.4001C36.75 28.8143 37.0858 29.1501 37.5 29.1501C37.9142 29.1501 38.25 28.8143 38.25 28.4001L36.75 28.4001ZM36.75 25.6001L36.75 28.4001L38.25 28.4001L38.25 25.6001L36.75 25.6001Z" fill="#393939"/>
<path d="M38.25 31.2002C38.25 30.786 37.9142 30.4502 37.5 30.4502C37.0858 30.4502 36.75 30.786 36.75 31.2002L38.25 31.2002ZM36.75 34.0002C36.75 34.4144 37.0858 34.7502 37.5 34.7502C37.9142 34.7502 38.25 34.4144 38.25 34.0002L36.75 34.0002ZM36.75 31.2002L36.75 34.0002L38.25 34.0002L38.25 31.2002L36.75 31.2002Z" fill="#393939"/>
<path d="M41.75 25.6001C41.75 25.1859 41.4142 24.8501 41 24.8501C40.5858 24.8501 40.25 25.1859 40.25 25.6001L41.75 25.6001ZM40.25 28.4001C40.25 28.8143 40.5858 29.1501 41 29.1501C41.4142 29.1501 41.75 28.8143 41.75 28.4001L40.25 28.4001ZM40.25 25.6001L40.25 28.4001L41.75 28.4001L41.75 25.6001L40.25 25.6001Z" fill="#393939"/>
<path d="M41.75 31.2002C41.75 30.786 41.4142 30.4502 41 30.4502C40.5858 30.4502 40.25 30.786 40.25 31.2002L41.75 31.2002ZM40.25 34.0002C40.25 34.4144 40.5858 34.7502 41 34.7502C41.4142 34.7502 41.75 34.4144 41.75 34.0002L40.25 34.0002ZM40.25 31.2002L40.25 34.0002L41.75 34.0002L41.75 31.2002L40.25 31.2002Z" fill="#393939"/>
<path d="M38.25 20C38.25 19.5858 37.9142 19.25 37.5 19.25C37.0858 19.25 36.75 19.5858 36.75 20L38.25 20ZM36.75 22.8C36.75 23.2142 37.0858 23.55 37.5 23.55C37.9142 23.55 38.25 23.2142 38.25 22.8L36.75 22.8ZM36.75 20L36.75 22.8L38.25 22.8L38.25 20L36.75 20Z" fill="#393939"/>
<path d="M41.75 20C41.75 19.5858 41.4142 19.25 41 19.25C40.5858 19.25 40.25 19.5858 40.25 20L41.75 20ZM40.25 22.8C40.25 23.2142 40.5858 23.55 41 23.55C41.4142 23.55 41.75 23.2142 41.75 22.8L40.25 22.8ZM40.25 20L40.25 22.8L41.75 22.8L41.75 20L40.25 20Z" fill="#393939"/>
<path d="M34.75 25.6001C34.75 25.1859 34.4142 24.8501 34 24.8501C33.5858 24.8501 33.25 25.1859 33.25 25.6001L34.75 25.6001ZM33.25 28.4001C33.25 28.8143 33.5858 29.1501 34 29.1501C34.4142 29.1501 34.75 28.8143 34.75 28.4001L33.25 28.4001ZM33.25 25.6001L33.25 28.4001L34.75 28.4001L34.75 25.6001L33.25 25.6001Z" fill="#393939"/>
<path d="M34.75 31.2002C34.75 30.786 34.4142 30.4502 34 30.4502C33.5858 30.4502 33.25 30.786 33.25 31.2002L34.75 31.2002ZM33.25 34.0002C33.25 34.4144 33.5858 34.7502 34 34.7502C34.4142 34.7502 34.75 34.4144 34.75 34.0002L33.25 34.0002ZM33.25 31.2002L33.25 34.0002L34.75 34.0002L34.75 31.2002L33.25 31.2002Z" fill="#393939"/>
<path d="M34.75 20C34.75 19.5858 34.4142 19.25 34 19.25C33.5858 19.25 33.25 19.5858 33.25 20L34.75 20ZM33.25 22.8C33.25 23.2142 33.5858 23.55 34 23.55C34.4142 23.55 34.75 23.2142 34.75 22.8L33.25 22.8ZM33.25 20L33.25 22.8L34.75 22.8L34.75 20L33.25 20Z" fill="#393939"/>
<rect x="35" y="38" width="5" height="7" stroke="#393939" stroke-width="2" stroke-linejoin="round"/>
<rect x="16" y="37" width="6" height="8" stroke="#393939" stroke-width="2" stroke-linejoin="round"/>
<path d="M18.1601 10C17.6078 10 17.1601 10.4477 17.1601 11C17.1601 11.5523 17.6078 12 18.1601 12V10ZM20.4001 12C20.9524 12 21.4001 11.5523 21.4001 11C21.4001 10.4477 20.9524 10 20.4001 10V12ZM18.1601 12H20.4001V10H18.1601V12Z" fill="#393939"/>
<path d="M18.1601 15.5C17.6078 15.5 17.1601 15.9477 17.1601 16.5C17.1601 17.0523 17.6078 17.5 18.1601 17.5V15.5ZM20.4001 17.5C20.9524 17.5 21.4001 17.0523 21.4001 16.5C21.4001 15.9477 20.9524 15.5 20.4001 15.5V17.5ZM18.1601 17.5H20.4001V15.5H18.1601V17.5Z" fill="#393939"/>
<path d="M18.1601 21C17.6078 21 17.1601 21.4477 17.1601 22C17.1601 22.5523 17.6078 23 18.1601 23V21ZM20.4001 23C20.9524 23 21.4001 22.5523 21.4001 22C21.4001 21.4477 20.9524 21 20.4001 21V23ZM18.1601 23H20.4001V21H18.1601V23Z" fill="#393939"/>
<path d="M18.1601 26.5C17.6078 26.5 17.1601 26.9477 17.1601 27.5C17.1601 28.0523 17.6078 28.5 18.1601 28.5V26.5ZM20.4001 28.5C20.9524 28.5 21.4001 28.0523 21.4001 27.5C21.4001 26.9477 20.9524 26.5 20.4001 26.5V28.5ZM18.1601 28.5H20.4001V26.5H18.1601V28.5Z" fill="#393939"/>
<path d="M18.1601 32C17.6078 32 17.1601 32.4477 17.1601 33C17.1601 33.5523 17.6078 34 18.1601 34V32ZM20.4001 34C20.9524 34 21.4001 33.5523 21.4001 33C21.4001 32.4477 20.9524 32 20.4001 32V34ZM18.1601 34H20.4001V32H18.1601V34Z" fill="#393939"/>
<path d="M23.7599 10C23.2077 10 22.7599 10.4477 22.7599 11C22.7599 11.5523 23.2077 12 23.7599 12V10ZM26 12C26.5522 12 27 11.5523 27 11C27 10.4477 26.5522 10 26 10V12ZM23.7599 12H26V10H23.7599V12Z" fill="#393939"/>
<path d="M23.7599 15.5C23.2077 15.5 22.7599 15.9477 22.7599 16.5C22.7599 17.0523 23.2077 17.5 23.7599 17.5V15.5ZM26 17.5C26.5522 17.5 27 17.0523 27 16.5C27 15.9477 26.5522 15.5 26 15.5V17.5ZM23.7599 17.5H26V15.5H23.7599V17.5Z" fill="#393939"/>
<path d="M23.7599 21C23.2077 21 22.7599 21.4477 22.7599 22C22.7599 22.5523 23.2077 23 23.7599 23V21ZM26 23C26.5522 23 27 22.5523 27 22C27 21.4477 26.5522 21 26 21V23ZM23.7599 23H26V21H23.7599V23Z" fill="#393939"/>
<path d="M23.7599 26.5C23.2077 26.5 22.7599 26.9477 22.7599 27.5C22.7599 28.0523 23.2077 28.5 23.7599 28.5V26.5ZM26 28.5C26.5522 28.5 27 28.0523 27 27.5C27 26.9477 26.5522 26.5 26 26.5V28.5ZM23.7599 28.5H26V26.5H23.7599V28.5Z" fill="#393939"/>
<path d="M23.7599 32C23.2077 32 22.7599 32.4477 22.7599 33C22.7599 33.5523 23.2077 34 23.7599 34V32ZM26 34C26.5522 34 27 33.5523 27 33C27 32.4477 26.5522 32 26 32V34ZM23.7599 34H26V32H23.7599V34Z" fill="#393939"/>
<path d="M12 10C11.4477 10 11 10.4477 11 11C11 11.5523 11.4477 12 12 12V10ZM14.24 12C14.7923 12 15.24 11.5523 15.24 11C15.24 10.4477 14.7923 10 14.24 10V12ZM12 12H14.24V10H12V12Z" fill="#393939"/>
<path d="M12 15.5C11.4477 15.5 11 15.9477 11 16.5C11 17.0523 11.4477 17.5 12 17.5V15.5ZM14.24 17.5C14.7923 17.5 15.24 17.0523 15.24 16.5C15.24 15.9477 14.7923 15.5 14.24 15.5V17.5ZM12 17.5H14.24V15.5H12V17.5Z" fill="#393939"/>
<path d="M12 21C11.4477 21 11 21.4477 11 22C11 22.5523 11.4477 23 12 23V21ZM14.24 23C14.7923 23 15.24 22.5523 15.24 22C15.24 21.4477 14.7923 21 14.24 21V23ZM12 23H14.24V21H12V23Z" fill="#393939"/>
<path d="M12 26.5C11.4477 26.5 11 26.9477 11 27.5C11 28.0523 11.4477 28.5 12 28.5V26.5ZM14.24 28.5C14.7923 28.5 15.24 28.0523 15.24 27.5C15.24 26.9477 14.7923 26.5 14.24 26.5V28.5ZM12 28.5H14.24V26.5H12V28.5Z" fill="#393939"/>
<path d="M12 32C11.4477 32 11 32.4477 11 33C11 33.5523 11.4477 34 12 34V32ZM14.24 34C14.7923 34 15.24 33.5523 15.24 33C15.24 32.4477 14.7923 32 14.24 32V34ZM12 34H14.24V32H12V34Z" fill="#393939"/>
<path d="M15.9463 45H3.20262C2.5319 42.7778 3.55183 40 5.88561 40C8.56851 40 9.23921 42.2222 9.23921 42.2222C9.90993 41.6667 11.2514 41.1111 12.5927 41.1111C15.8122 41.1111 16.1699 43.7037 15.9463 45Z" fill="white" stroke="#393939" stroke-width="2" stroke-linejoin="round"/>
</svg>
