<svg width="50" height="50" viewBox="0 0 50 50" fill="none" xmlns="http://www.w3.org/2000/svg">
<path d="M37.5388 34.1323C38.416 34.6207 39.1998 35.2123 39.8835 35.8839" stroke="#393939" stroke-width="2" stroke-linecap="round" stroke-linejoin="round"/>
<path d="M23.0364 18.0716V21.8193C23.0364 22.254 23.3162 22.6465 23.7427 22.7304C24.8477 22.9477 26.179 22.9058 27.0022 22.1074M27.0022 22.1074C27.708 21.4228 28.0401 20.182 27.5354 18.0716C26.4865 13.6851 24.801 13.1596 23.0364 13.3294C21.2719 13.4991 18.704 14.3969 18.3042 14.8827C18.0077 15.2429 17.1615 16.8222 16.7437 17.6146C16.5926 17.9014 16.3151 18.0981 15.9941 18.1431L12.7447 18.5983C12.2604 18.6661 11.8908 19.0747 11.9211 19.5628C12.0254 21.2397 12.5986 23.2495 14.4105 23.2933C15.1509 23.3112 15.8585 23.3394 16.5046 23.388C18.1848 23.5145 19.448 23.7792 19.785 24.3609C20.2515 25.1661 18.1945 28.911 18.704 32.5454C19.0682 35.1435 20.7591 36.5901 21.0702 36.8156V42.3588C20.2814 42.4769 18.704 43.1705 18.704 45.0001H24.8008M27.0022 22.1074C26.5756 24.5114 27.8908 26.0018 28.6018 26.4465C32.3249 28.7752 35.5225 36.8292 36.4334 39.492C40.2072 42.3588 41.9986 38.6223 43.0735 36.1039C43.3934 43.7572 38.6551 43.5399 36.4334 43.3251C36.4867 44.0982 34.9004 44.7639 34.1006 45.0001H32.3249M28.6018 35.1435C27.4354 35.2294 25.1159 36.0454 25.1692 38.6223C25.2226 41.1992 27.4798 42.5306 28.6018 42.8742H26.1005C25.5118 42.8635 24.4276 43.2736 24.8008 45.0001M24.8008 45.0001H32.3249M32.3249 45.0001C32.9168 44.8876 34.1006 44.3049 34.1006 42.8742M38.1525 31.779C39.1435 32.1593 40.0804 32.6821 40.9301 33.3336M9.54258 3.99463L11.71 5.50187L21.3183 4.39306C21.8021 4.33723 22.2896 4.45984 22.6894 4.73788L30.3374 10.0563C29.8316 10.8407 28.2627 12.0463 26.0336 10.5935C24.6571 9.69639 23.7489 9.06619 23.2034 8.66949M18.4386 8.84201L22.5818 8.19314C22.6667 8.26765 22.8655 8.42378 23.2034 8.66949M6.51855 8.34321L12.3787 12.4184C13.0779 12.7829 14.7967 13.3939 16.078 12.9215C17.3593 12.4492 18.129 11.9133 18.3537 11.7044L23.7667 10.5995C23.9734 10.2452 24.1501 9.36318 23.2034 8.66949" stroke="#393939" stroke-width="2" stroke-linecap="round" stroke-linejoin="round"/>
</svg>
