<svg width="50" height="50" viewBox="0 0 50 50" fill="none" xmlns="http://www.w3.org/2000/svg">
<path d="M19 11C19 11 17.5 12 17.5 13.5C17.5 15 19 15.0451 19 17C19 18.9549 22 19.2272 22.5 17.7272C23 16.2272 23.2995 17.1186 24.3558 16.1111M24.3558 16.1111C25.2616 15.2472 25.6878 13.6814 25.0402 11.0183C23.694 5.48289 21.531 4.81971 19.2666 5.03396C17.0021 5.2482 13.7068 6.38106 13.1936 6.99413C12.8131 7.44871 11.7272 9.44164 11.1911 10.4417C10.9972 10.8035 10.6411 11.0518 10.2292 11.1085L6.05917 11.6829C5.43763 11.7685 4.96329 12.2841 5.00224 12.9001C5.13603 15.0162 5.87167 17.5525 8.19689 17.6077C9.14702 17.6303 10.0552 17.6658 10.8842 17.7272C13.0405 17.8868 14.6615 18.2209 15.094 18.9549C15.3694 19.4224 14.9594 20.6751 14.5 22.3382C14.2776 23.1434 12.5 24 12 26.5C12.5 27.5 14.5 26 13 29.5C12.7312 30.1272 13.5 29 14 31.1368C14.6985 33.2694 16.4263 34.4458 16.7432 34.6717V41.6669C15.7311 41.8159 13.7068 42.6912 13.7068 45H21.5308M24.3558 16.1111C23.8083 19.1448 25.4963 21.0256 26.4086 21.5868C31.1865 24.5254 35.5 35.61 36 40C40.541 42.3172 43.1206 37.6781 44.5 34.5C45.0198 35.7264 47.041 38 44.541 40C45.541 42 43.541 44.8172 40.541 43.8172C37.7061 45.6699 37.4517 44.5243 36 44.3863C36.0684 45.3619 34.4917 44.7019 33.4653 45H31.1865M26.4086 32.5617C25.542 32.6245 24.5 32.5 24 34.5C23.1987 34.5 21.9748 35.5827 22.0036 36.9517C22.072 40.2035 24.9688 41.8837 26.4086 42.3172H23.1987C22.4432 42.3037 21.0519 42.8213 21.5308 45M21.5308 45H31.1865M31.1865 45C31.9461 44.858 33.4653 44.1227 33.4653 42.3172" stroke="#393939" stroke-width="2" stroke-linecap="round" stroke-linejoin="round"/>
</svg>
