<svg width="50" height="50" viewBox="0 0 50 50" fill="none" xmlns="http://www.w3.org/2000/svg">
<path d="M29.8244 32.9252C28.8451 31.9891 27.2569 31.9891 26.2776 32.9252L25.7944 33.3869L25.3111 32.9252C24.3317 31.9894 22.7438 31.9894 21.7643 32.9252C20.7849 33.861 20.7849 35.3781 21.7643 36.3139L22.2476 36.7756L25.7944 40.1643L29.3411 36.7756L29.8244 36.3139C30.8041 35.3783 30.8041 33.8608 29.8244 32.9252Z" fill="#393939" stroke="#393939" stroke-width="2" stroke-linecap="round" stroke-linejoin="round"/>
<path d="M43.7336 25.8238C43.7336 25.2715 43.2859 24.8238 42.7336 24.8238C42.1813 24.8238 41.7336 25.2715 41.7336 25.8238H43.7336ZM9.85122 25.8238C9.85122 25.2715 9.4035 24.8238 8.85122 24.8238C8.29894 24.8238 7.85122 25.2715 7.85122 25.8238H9.85122ZM26.2148 11.3274C26.6278 10.9608 26.6655 10.3287 26.299 9.91565C25.9324 9.50257 25.3003 9.46487 24.8873 9.83145L26.2148 11.3274ZM7.16566 26.8951L6.50191 26.1472L6.50191 26.1472L7.16566 26.8951ZM4.37467 23.8199L5.05495 24.5529L5.05495 24.5529L4.37467 23.8199ZM24.5012 5.13978L23.8209 4.40683V4.40683L24.5012 5.13978ZM26.3295 9.83348C25.9164 9.46689 25.2844 9.50459 24.9178 9.91767C24.5512 10.3308 24.5889 10.9628 25.002 11.3294L26.3295 9.83348ZM44.0573 26.9027L44.7211 26.1548L44.7211 26.1548L44.0573 26.9027ZM46.8342 23.8146L47.5145 23.0817L47.5126 23.0799L46.8342 23.8146ZM26.6034 5.137L25.9251 5.87175V5.87175L26.6034 5.137ZM46.6213 27.0444L46.0437 26.2281L46.0437 26.2281L46.6213 27.0444ZM4.58792 27.0371L5.16551 26.2208H5.16551L4.58792 27.0371ZM16.7437 45.519H9.85122V47.519H16.7437V45.519ZM17.7437 31.9747C17.7437 30.5709 18.2454 28.7552 19.4864 27.3063C20.6997 25.8898 22.6775 24.7543 25.7924 24.7543V22.7543C22.1308 22.7543 19.5843 24.1174 17.9674 26.0053C16.3782 27.8608 15.7437 30.1553 15.7437 31.9747H17.7437ZM25.7924 24.7543C28.9073 24.7543 30.8851 25.8898 32.0984 27.3063C33.3394 28.7552 33.8411 30.5709 33.8411 31.9747H35.8411C35.8411 30.1553 35.2066 27.8608 33.6174 26.0053C32.0005 24.1174 29.454 22.7543 25.7924 22.7543V24.7543ZM41.7336 45.519H34.8411V47.519H41.7336V45.519ZM34.8411 45.519H16.7437V47.519H34.8411V45.519ZM41.7336 47.519C42.8381 47.519 43.7336 46.6236 43.7336 45.519H41.7336V47.519ZM9.85122 45.519H7.85122C7.85122 46.6236 8.74665 47.519 9.85122 47.519V45.519ZM24.8873 9.83145L6.50191 26.1472L7.82942 27.6431L26.2148 11.3274L24.8873 9.83145ZM5.05495 24.5529L25.1814 5.87273L23.8209 4.40683L3.69439 23.0869L5.05495 24.5529ZM25.002 11.3294L43.3936 27.6507L44.7211 26.1548L26.3295 9.83348L25.002 11.3294ZM47.5126 23.0799L27.2818 4.40225L25.9251 5.87175L46.1559 24.5494L47.5126 23.0799ZM47.1989 27.8608C48.7962 26.7306 48.9481 24.4122 47.5145 23.0817L46.1539 24.5476C46.6579 25.0153 46.6031 25.8323 46.0437 26.2281L47.1989 27.8608ZM43.3936 27.6507C44.4598 28.5969 46.035 28.6843 47.1989 27.8608L46.0437 26.2281C45.6392 26.5144 45.0926 26.4845 44.7211 26.1548L43.3936 27.6507ZM25.1814 5.87273C25.391 5.67822 25.715 5.67779 25.9251 5.87175L27.2818 4.40226C26.304 3.49958 24.7962 3.50157 23.8209 4.40683L25.1814 5.87273ZM5.16551 26.2208C4.60751 25.826 4.55394 25.0179 5.05495 24.5529L3.69439 23.0869C2.26264 24.4158 2.41572 26.7252 4.01034 27.8534L5.16551 26.2208ZM6.50191 26.1472C6.12767 26.4793 5.57396 26.5098 5.16551 26.2208L4.01034 27.8534C5.17758 28.6793 6.75995 28.5921 7.82942 27.6431L6.50191 26.1472ZM41.7336 25.8238V45.519H43.7336V25.8238H41.7336ZM33.8411 31.9747V46.519H35.8411V31.9747H33.8411ZM17.7437 46.519V31.9747H15.7437V46.519H17.7437ZM9.85122 45.519V25.8238H7.85122V45.519H9.85122Z" fill="#393939"/>
</svg>
