<svg width="50" height="50" viewBox="0 0 50 50" fill="none" xmlns="http://www.w3.org/2000/svg">
<path d="M15.9417 23.7948C7.24988 29.8466 7.35523 39.4387 6.31284 42.5308H2.11969C0.632698 46.0422 3.01014 45.8307 6.28093 45.8307H11.3095M17.4287 19.6312C16.621 18.8362 15.9607 15.8661 16.5383 13.4155C17.0293 11.3319 18.3226 9.84494 18.3226 9.84494C18.3226 7.76316 19.6114 6.27704 20.7018 5.68269C21.2941 4.9865 21.4467 3.98383 22.1888 4.1952V7.46576M15.5699 34.3849C16.9047 34.4847 19.5589 35.4323 19.4979 38.4246C19.4369 41.417 16.8538 42.963 15.5699 43.362H18.4322C19.1059 43.3496 20.3466 43.8258 19.9195 45.8307M19.9195 45.8307H26.8963C26.8963 43.7061 25.0912 42.9007 24.1886 42.7636V36.3266C24.5446 36.0648 26.4795 34.3849 26.8963 31.3679C27.1608 29.4537 26.821 27.8105 26.4205 26.1739M19.9195 45.8307H11.3095M11.3095 45.8307C10.6321 45.7001 9.27744 45.0235 9.27744 43.362M26.4205 21.4156C26.8062 20.7402 27.4905 20.881 29.4132 20.7342C30.1525 20.6777 30.9623 20.645 31.8095 20.6242C33.9321 20.5722 34.5692 18.1275 34.6658 16.1544C34.6897 15.6665 34.3219 15.2583 33.8384 15.1896L29.9264 14.6335C29.6041 14.5877 29.3258 14.3892 29.176 14.1003C28.7126 13.2067 27.702 11.2868 27.3539 10.8575C26.8963 10.2934 24.2081 9.74441 22.1888 9.54726V7.46576M22.1888 7.46576C22.5717 7.01569 23.003 6.67301 23.407 6.45277C23.9994 5.75658 24.2932 4.75391 25.0353 4.96528V9.84494" stroke="#393939" stroke-width="2" stroke-linecap="round" stroke-linejoin="round"/>
<path d="M18.1463 20.0239C17.0603 19.8225 16.0166 20.5397 15.8152 21.6257L15.7367 22.0489C15.5353 23.135 16.2525 24.1787 17.3385 24.3801L25.863 25.9609C26.9491 26.1623 27.9927 25.4452 28.1941 24.3592L28.2726 23.9359C28.474 22.8499 27.7569 21.8062 26.6708 21.6048L18.1463 20.0239Z" stroke="#393939" stroke-width="2" stroke-linecap="round" stroke-linejoin="round"/>
<path d="M26.1592 13.4935L25.1405 13.309M38.2469 15.3065L44.7896 10.1445M38.2469 18.1743H47.7636M38.2469 21.042L44.7896 26.204" stroke="#393939" stroke-width="2" stroke-linecap="round" stroke-linejoin="round"/>
<path d="M19.1438 22.4644C19.103 22.6843 18.8916 22.8296 18.6716 22.7888C18.4517 22.748 18.3064 22.5366 18.3472 22.3166C18.388 22.0967 18.5994 21.9514 18.8193 21.9922C19.0393 22.033 19.1845 22.2444 19.1438 22.4644Z" fill="#393939"/>
<path d="M21.1359 22.8354C21.0952 23.0554 20.8838 23.2007 20.6638 23.1599C20.4438 23.1191 20.2986 22.9077 20.3394 22.6877C20.3802 22.4678 20.5916 22.3225 20.8115 22.3633C21.0315 22.4041 21.1767 22.6155 21.1359 22.8354Z" fill="#393939"/>
<path d="M23.5245 23.2779C23.4837 23.4979 23.2723 23.6431 23.0524 23.6023C22.8324 23.5616 22.6871 23.3502 22.7279 23.1302C22.7687 22.9102 22.9801 22.765 23.2001 22.8058C23.42 22.8466 23.5653 23.058 23.5245 23.2779Z" fill="#393939"/>
<path d="M25.5175 23.6492C25.4767 23.8692 25.2653 24.0145 25.0453 23.9737C24.8253 23.9329 24.6801 23.7215 24.7209 23.5015C24.7617 23.2816 24.9731 23.1363 25.193 23.1771C25.413 23.2179 25.5582 23.4293 25.5175 23.6492Z" fill="#393939"/>
</svg>
