<svg width="50" height="50" viewBox="0 0 50 50" fill="none" xmlns="http://www.w3.org/2000/svg">
<path fill-rule="evenodd" clip-rule="evenodd" d="M21.5347 22.2839C21.258 23.1267 21.1707 24.0043 21.2577 24.8574C21.0236 26.7391 20.358 29.9785 18.8411 32.6618C17.3472 35.3044 15.1996 37.6889 13.9901 39.0015C13.6624 39.3031 13.3755 39.6611 13.1441 40.0703C11.9552 42.1734 12.6608 44.8627 14.7201 46.077C16.7795 47.2912 19.4128 46.5706 20.6017 44.4675C20.8093 44.1004 20.9595 43.7142 21.0546 43.3203C21.6962 41.4016 22.8361 38.3887 24.2655 35.8602C26.1856 32.4638 28.5757 30.4822 29.6163 29.8495C30.4072 29.4997 31.1297 28.9741 31.7214 28.2903L29.951 27.2465C28.6507 28.3194 26.7867 28.5257 25.2523 27.621C23.718 26.7163 22.9609 24.9646 23.2206 23.278L21.5347 22.2839ZM22.9074 35.0594C24.2482 32.6878 25.814 30.9349 27.0941 29.7882C26.1985 29.7507 25.2983 29.4975 24.4682 29.008C23.6316 28.5148 22.9629 27.8386 22.4825 27.0575C22.0913 28.9687 21.3921 31.3525 20.1992 33.4626C18.5953 36.2998 16.3143 38.8168 15.1088 40.1244C15.0926 40.1421 15.0755 40.1589 15.0578 40.175C14.8433 40.369 14.6546 40.6016 14.5023 40.8711C13.7464 42.2082 14.195 43.918 15.5042 44.69C16.8135 45.4619 18.4877 45.0038 19.2436 43.6667C19.381 43.4236 19.4781 43.1696 19.5379 42.9119C19.5437 42.887 19.5506 42.8624 19.5587 42.8382C20.2118 40.8803 21.3952 37.7342 22.9074 35.0594Z" fill="#393939"/>
<path fill-rule="evenodd" clip-rule="evenodd" d="M20.5476 4.85088C21.3785 3.41321 23.1972 2.90823 24.6098 3.72297L46.0366 16.0811C47.4492 16.8958 47.9208 18.7218 47.0899 20.1594L41.143 30.4492C40.3121 31.8869 38.4934 32.3919 37.0808 31.5771L15.6541 19.219C14.2414 18.4043 13.7699 16.5783 14.6007 15.1407L20.5476 4.85088ZM23.7892 5.14286C23.1471 4.77253 22.3204 5.00206 21.9428 5.65555L15.9959 15.9453C15.6182 16.5988 15.8326 17.4288 16.4747 17.7991L37.9014 30.1572C38.5435 30.5276 39.3702 30.298 39.7478 29.6445L45.6947 19.3548C46.0724 18.7013 45.858 17.8713 45.2159 17.501L23.7892 5.14286Z" fill="#393939"/>
<path fill-rule="evenodd" clip-rule="evenodd" d="M21.6635 8.43335C22.4682 7.04102 24.2504 6.56397 25.6442 7.36783L42.2792 16.9623C43.6729 17.7661 44.1504 19.5465 43.3458 20.9388L39.9445 26.8239C39.1398 28.2162 37.3577 28.6933 35.9639 27.8894L19.3289 18.295C17.9352 17.4911 17.4576 15.7108 18.2623 14.3184L21.6635 8.43335ZM24.8494 8.74294C24.2159 8.37755 23.4058 8.59439 23.0401 9.22726L19.6388 15.1124C19.2731 15.7452 19.4901 16.5545 20.1236 16.9199L36.7586 26.5143C37.3922 26.8797 38.2023 26.6629 38.568 26.03L41.9692 20.1449C42.335 19.512 42.118 18.7028 41.4844 18.3374L24.8494 8.74294Z" fill="#393939"/>
<path d="M28.3048 12.6924C28.1565 12.9491 27.8279 13.037 27.571 12.8889C27.3141 12.7407 27.226 12.4125 27.3744 12.1558C27.5227 11.8991 27.8512 11.8112 28.1082 11.9594C28.3651 12.1076 28.4531 12.4358 28.3048 12.6924Z" fill="#393939"/>
<path d="M25.2062 10.9069C25.0578 11.1635 24.7293 11.2515 24.4724 11.1033C24.2154 10.9551 24.1274 10.6269 24.2757 10.3702C24.4241 10.1136 24.7526 10.0256 25.0095 10.1738C25.2665 10.322 25.3545 10.6502 25.2062 10.9069Z" fill="#393939"/>
<path d="M26.8762 15.171C26.7278 15.4277 26.3993 15.5156 26.1424 15.3674C25.8854 15.2192 25.7974 14.891 25.9457 14.6344C26.0941 14.3777 26.4226 14.2898 26.6795 14.438C26.9365 14.5861 27.0245 14.9143 26.8762 15.171Z" fill="#393939"/>
<path d="M23.7723 13.3852C23.624 13.6419 23.2954 13.7298 23.0385 13.5816C22.7816 13.4334 22.6936 13.1052 22.8419 12.8486C22.9902 12.5919 23.3188 12.504 23.5757 12.6521C23.8326 12.8003 23.9207 13.1285 23.7723 13.3852Z" fill="#393939"/>
<path d="M25.4455 17.6512C25.2971 17.9079 24.9686 17.9958 24.7117 17.8476C24.4547 17.6995 24.3667 17.3713 24.515 17.1146C24.6634 16.8579 24.9919 16.77 25.2488 16.9182C25.5058 17.0664 25.5938 17.3946 25.4455 17.6512Z" fill="#393939"/>
<path d="M22.3437 15.8605C22.1953 16.1172 21.8668 16.2051 21.6099 16.0569C21.353 15.9087 21.2649 15.5805 21.4133 15.3239C21.5616 15.0672 21.8901 14.9793 22.1471 15.1275C22.404 15.2756 22.492 15.6038 22.3437 15.8605Z" fill="#393939"/>
<path d="M31.4082 14.4832C31.2599 14.7398 30.9313 14.8278 30.6744 14.6796C30.4175 14.5314 30.3295 14.2032 30.4778 13.9465C30.6261 13.6899 30.9547 13.6019 31.2116 13.7501C31.4685 13.8983 31.5566 14.2265 31.4082 14.4832Z" fill="#393939"/>
<path d="M29.9828 16.965C29.8345 17.2217 29.506 17.3096 29.2491 17.1614C28.9921 17.0132 28.9041 16.685 29.0524 16.4284C29.2008 16.1717 29.5293 16.0838 29.7862 16.2319C30.0432 16.3801 30.1312 16.7083 29.9828 16.965Z" fill="#393939"/>
<path d="M28.5436 19.4403C28.3952 19.697 28.0667 19.7849 27.8098 19.6367C27.5529 19.4885 27.4648 19.1603 27.6132 18.9037C27.7615 18.647 28.09 18.5591 28.347 18.7073C28.6039 18.8554 28.6919 19.1836 28.5436 19.4403Z" fill="#393939"/>
<path d="M34.5137 16.2739C34.3653 16.5305 34.0368 16.6185 33.7799 16.4703C33.523 16.3221 33.4349 15.9939 33.5833 15.7372C33.7316 15.4806 34.0601 15.3926 34.3171 15.5408C34.574 15.689 34.662 16.0172 34.5137 16.2739Z" fill="#393939"/>
<path d="M33.0761 18.7492C32.9277 19.0058 32.5992 19.0938 32.3423 18.9456C32.0853 18.7974 31.9973 18.4692 32.1456 18.2125C32.294 17.9559 32.6225 17.8679 32.8794 18.0161C33.1364 18.1643 33.2244 18.4925 33.0761 18.7492Z" fill="#393939"/>
<path d="M31.649 21.231C31.5007 21.4877 31.1722 21.5756 30.9153 21.4274C30.6583 21.2793 30.5703 20.9511 30.7186 20.6944C30.867 20.4377 31.1955 20.3498 31.4524 20.498C31.7094 20.6462 31.7974 20.9743 31.649 21.231Z" fill="#393939"/>
<path d="M37.6085 18.063C37.4602 18.3196 37.1317 18.4076 36.8747 18.2594C36.6178 18.1112 36.5298 17.783 36.6781 17.5263C36.8264 17.2697 37.155 17.1817 37.4119 17.3299C37.6688 17.4781 37.7569 17.8063 37.6085 18.063Z" fill="#393939"/>
<path d="M36.1799 20.5399C36.0315 20.7966 35.703 20.8845 35.4461 20.7363C35.1892 20.5881 35.1011 20.2599 35.2495 20.0033C35.3978 19.7466 35.7263 19.6587 35.9833 19.8068C36.2402 19.955 36.3282 20.2832 36.1799 20.5399Z" fill="#393939"/>
<path d="M34.7476 23.0168C34.5992 23.2735 34.2707 23.3614 34.0138 23.2132C33.7568 23.0651 33.6688 22.7369 33.8171 22.4802C33.9655 22.2235 34.294 22.1356 34.5509 22.2838C34.8079 22.432 34.8959 22.7602 34.7476 23.0168Z" fill="#393939"/>
<path d="M40.7173 19.8537C40.5689 20.1103 40.2404 20.1983 39.9835 20.0501C39.7265 19.9019 39.6385 19.5737 39.7868 19.317C39.9352 19.0604 40.2637 18.9724 40.5206 19.1206C40.7776 19.2688 40.8656 19.597 40.7173 19.8537Z" fill="#393939"/>
<path d="M39.2764 22.329C39.128 22.5856 38.7995 22.6736 38.5426 22.5254C38.2856 22.3772 38.1976 22.049 38.3459 21.7923C38.4943 21.5357 38.8228 21.4477 39.0797 21.5959C39.3367 21.7441 39.4247 22.0723 39.2764 22.329Z" fill="#393939"/>
<path d="M37.8477 24.8075C37.6994 25.0642 37.3708 25.1522 37.1139 25.004C36.857 24.8558 36.769 24.5276 36.9173 24.2709C37.0656 24.0143 37.3942 23.9263 37.6511 24.0745C37.908 24.2227 37.9961 24.5509 37.8477 24.8075Z" fill="#393939"/>
<path fill-rule="evenodd" clip-rule="evenodd" d="M17.335 17.3116C17.335 21.2578 14.014 24.4568 9.91748 24.4568C5.82092 24.4568 2.5 21.2578 2.5 17.3116C2.5 13.3654 5.82092 10.1663 9.91748 10.1663C14.014 10.1663 17.335 13.3654 17.335 17.3116ZM12.4487 20.5521C12.7153 20.8185 13.1597 20.8185 13.4263 20.5521C13.6929 20.2858 13.6929 19.8419 13.4263 19.5755L11.16 17.3116L13.4263 15.0476C13.6929 14.7813 13.6929 14.3374 13.4263 14.071C13.1597 13.8047 12.7153 13.8047 12.4487 14.071L10.1824 16.335L7.91613 14.071C7.64952 13.8047 7.20513 13.8047 6.93852 14.071C6.67191 14.3374 6.67191 14.7813 6.93852 15.0476L9.20478 17.3116L6.93852 19.5755C6.67191 19.8419 6.67191 20.2858 6.93852 20.5521C7.20513 20.8185 7.64952 20.8185 7.91613 20.5521L10.1824 18.2882L12.4487 20.5521Z" fill="#393939"/>
</svg>
