<svg width="50" height="50" viewBox="0 0 50 50" fill="none" xmlns="http://www.w3.org/2000/svg">
<path fill-rule="evenodd" clip-rule="evenodd" d="M19.2496 17.3599C19.5308 17.7393 19.4514 18.2748 19.072 18.5561C18.4576 19.0117 18.11 19.6553 18.11 20.3354C18.11 21.544 19.2733 22.7147 20.9603 22.7147C22.6474 22.7147 23.8106 21.544 23.8106 20.3354C23.8106 19.8631 24.1935 19.4803 24.6657 19.4803C25.138 19.4803 25.5208 19.8631 25.5208 20.3354C25.5208 22.6994 23.3661 24.4248 20.9603 24.4248C18.5545 24.4248 16.3998 22.6994 16.3998 20.3354C16.3998 19.0391 17.0676 17.9134 18.0534 17.1824C18.4327 16.9011 18.9683 16.9806 19.2496 17.3599Z" fill="#393939"/>
<path fill-rule="evenodd" clip-rule="evenodd" d="M29.6326 17.3337C29.3369 17.7019 29.3956 18.2401 29.7638 18.5359C30.317 18.9803 30.6514 19.6271 30.6514 20.3354C30.6514 21.605 29.5485 22.7147 28.0861 22.7147C26.6237 22.7147 25.5208 21.605 25.5208 20.3354C25.5208 19.8631 25.138 19.4803 24.6657 19.4803C24.1935 19.4803 23.8106 19.8631 23.8106 20.3354C23.8106 22.6383 25.7705 24.4248 28.0861 24.4248C30.4017 24.4248 32.3616 22.6383 32.3616 20.3354C32.3616 19.0673 31.7586 17.9447 30.8348 17.2026C30.4666 16.9069 29.9284 16.9656 29.6326 17.3337Z" fill="#393939"/>
<path d="M24.3804 16.7844C23.2334 16.7844 22.6015 16.5007 22.3946 17.219C22.3283 17.6121 22.5947 18.5797 24.1238 19.4419C24.2827 19.5315 24.4781 19.5315 24.637 19.4419C26.1662 18.5797 26.4329 17.6121 26.3668 17.219C26.16 16.5007 25.5274 16.7844 24.3804 16.7844Z" fill="#393939"/>
<path fill-rule="evenodd" clip-rule="evenodd" d="M25.057 20.1868C24.6374 20.4233 24.1234 20.4233 23.7038 20.1868C22.0097 19.2316 21.401 17.9685 21.5514 17.0768C21.5568 17.0449 21.564 17.0133 21.5729 16.9823C21.6618 16.6737 21.8301 16.3649 22.1404 16.1476C22.4338 15.9422 22.7518 15.8921 22.9858 15.8787C23.206 15.866 23.4478 15.8827 23.6505 15.8966C23.6584 15.8972 23.6662 15.8977 23.674 15.8982C23.8999 15.9138 24.1269 15.9293 24.3804 15.9293C24.6339 15.9293 24.861 15.9138 25.087 15.8982C25.0947 15.8977 25.1026 15.8972 25.1104 15.8966C25.3132 15.8827 25.5551 15.866 25.7753 15.8787C26.0094 15.8921 26.3274 15.9421 26.6208 16.1475C26.9313 16.3648 27.0997 16.6736 27.1885 16.9824C27.1975 17.0136 27.2047 17.0452 27.2101 17.0772C27.36 17.9687 26.7511 19.2316 25.057 20.1868ZM24.3804 18.6014C25.0511 18.1926 25.3237 17.82 25.4368 17.5896C25.3721 17.5931 25.2959 17.5981 25.2042 17.6044L25.1895 17.6054C24.9701 17.6205 24.6934 17.6395 24.3804 17.6395C24.0674 17.6395 23.7908 17.6205 23.5714 17.6054L23.5567 17.6044C23.4651 17.5981 23.389 17.5931 23.3244 17.5896C23.4373 17.8199 23.7097 18.1925 24.3804 18.6014ZM23.0351 17.5911L23.0336 17.5914L23.0351 17.5911ZM25.7277 17.5914L25.7262 17.5911L25.7277 17.5914Z" fill="#393939"/>
<path d="M22.3855 12.4537C22.3855 13.2408 21.7474 13.8789 20.9603 13.8789C20.1732 13.8789 19.5352 13.2408 19.5352 12.4537C19.5352 11.6667 20.1732 11.0286 20.9603 11.0286C21.7474 11.0286 22.3855 11.6667 22.3855 12.4537Z" fill="#393939"/>
<path d="M29.2262 12.4537C29.2262 13.2408 28.5882 13.8789 27.8011 13.8789C27.014 13.8789 26.3759 13.2408 26.3759 12.4537C26.3759 11.6667 27.014 11.0286 27.8011 11.0286C28.5882 11.0286 29.2262 11.6667 29.2262 12.4537Z" fill="#393939"/>
<path fill-rule="evenodd" clip-rule="evenodd" d="M24.3084 5.2565C23.1605 5.2565 22.2034 5.46513 21.6853 5.77597C21.2803 6.01895 20.7551 5.88764 20.5121 5.4827C20.2691 5.07775 20.4004 4.55251 20.8054 4.30954C21.7125 3.76528 23.0355 3.54634 24.3084 3.54635C25.6033 3.54635 27.0049 3.77277 28.1309 4.25735C28.5647 4.44403 28.765 4.94702 28.5784 5.3808C28.3917 5.81458 27.8887 6.01489 27.4549 5.82821C26.5938 5.45765 25.4342 5.2565 24.3084 5.2565ZM15.3682 14.0559C15.8302 13.9584 16.2839 14.2539 16.3814 14.716C16.5438 15.4859 17.1164 17.3121 18.0395 18.4786C18.3325 18.8489 18.2699 19.3867 17.8995 19.6797C17.5292 19.9728 16.9914 19.9101 16.6984 19.5398C15.5366 18.0716 14.893 15.9458 14.708 15.0691C14.6105 14.607 14.9061 14.1534 15.3682 14.0559ZM33.9633 14.0559C34.4253 14.1534 34.7209 14.607 34.6234 15.0691C34.4384 15.9458 33.7948 18.0716 32.6331 19.5398C32.34 19.9101 31.8023 19.9728 31.4319 19.6797C31.0616 19.3867 30.9989 18.8489 31.292 18.4786C32.215 17.3121 32.7876 15.4859 32.95 14.716C33.0475 14.2539 33.5012 13.9584 33.9633 14.0559ZM21.2685 23.5531C21.6389 23.26 22.1766 23.3227 22.4697 23.693C23.0285 24.3992 23.767 24.8907 24.5247 24.9799C25.2327 25.0633 26.1431 24.8167 27.1479 23.6622C27.458 23.306 27.9981 23.2686 28.3543 23.5787C28.7105 23.8887 28.748 24.4288 28.4379 24.785C27.1495 26.2653 25.7144 26.842 24.3247 26.6783C22.9844 26.5205 21.8727 25.6947 21.1286 24.7542C20.8355 24.3839 20.8982 23.8461 21.2685 23.5531Z" fill="#393939"/>
<path fill-rule="evenodd" clip-rule="evenodd" d="M29.4507 5.04366C28.8491 5.04085 28.4548 5.71425 28.8548 6.27897L36.6334 17.2614C37.1222 17.9515 38.0644 17.5876 38.0607 16.8384C38.0501 14.6745 37.979 12.18 37.764 10.096C37.6563 9.05194 37.5149 8.13587 37.335 7.4258C37.2451 7.07094 37.1501 6.78616 37.054 6.57092C36.9541 6.34705 36.8743 6.24718 36.8396 6.21457C36.6719 6.0567 36.3412 5.87372 35.8032 5.70374C35.2817 5.53895 34.6398 5.40906 33.9231 5.31016C32.4907 5.11252 30.847 5.05021 29.4507 5.04366ZM27.4592 7.26741C26.3074 5.64126 27.3756 3.32376 29.4588 3.33353C30.8862 3.34022 32.6158 3.40342 34.1569 3.61606C34.9269 3.72231 35.6719 3.86875 36.3185 4.07305C36.9486 4.27216 37.5674 4.55102 38.0118 4.9693C38.2784 5.22024 38.4704 5.54852 38.6156 5.87378C38.7647 6.20768 38.8882 6.59302 38.9928 7.00569C39.2018 7.83067 39.3537 8.83922 39.4652 9.92057C39.6887 12.0874 39.7601 14.647 39.7709 16.83C39.7833 19.3469 36.6368 20.2251 35.2378 18.2499L27.4592 7.26741Z" fill="#393939"/>
<path fill-rule="evenodd" clip-rule="evenodd" d="M19.3106 5.04366C19.9122 5.04085 20.3066 5.71425 19.9066 6.27897L12.128 17.2614C11.6392 17.9515 10.697 17.5876 10.7007 16.8384C10.7113 14.6745 10.7824 12.18 10.9973 10.096C11.105 9.05194 11.2464 8.13587 11.4264 7.4258C11.5163 7.07094 11.6113 6.78616 11.7074 6.57092C11.8073 6.34705 11.8871 6.24718 11.9217 6.21457C12.0895 6.0567 12.4202 5.87372 12.9581 5.70374C13.4797 5.53895 14.1215 5.40906 14.8382 5.31016C16.2707 5.11252 17.9144 5.05021 19.3106 5.04366ZM21.3022 7.26741C22.4539 5.64126 21.3858 3.32376 19.3026 3.33353C17.8752 3.34022 16.1456 3.40342 14.6045 3.61606C13.8344 3.72231 13.0895 3.86875 12.4429 4.07305C11.8127 4.27216 11.194 4.55102 10.7496 4.9693C10.483 5.22024 10.2909 5.54852 10.1457 5.87378C9.99666 6.20768 9.87317 6.59302 9.76859 7.00569C9.55952 7.83067 9.40771 8.83922 9.29618 9.92057C9.07269 12.0874 9.00123 14.647 8.99049 16.83C8.9781 19.3469 12.1245 20.2251 13.5236 18.2499L21.3022 7.26741Z" fill="#393939"/>
<path fill-rule="evenodd" clip-rule="evenodd" d="M31.6834 21.982C31.4474 21.7406 31.2252 21.5132 31.0253 21.2901L32.299 20.1489C32.4346 20.3003 32.6094 20.4788 32.8109 20.6845C33.5032 21.3914 34.5105 22.4199 35.328 23.777C36.416 25.5833 37.2211 28.0154 36.9185 31.3429L35.2154 31.1881C35.4829 28.245 34.7752 26.1737 33.863 24.6594C33.1612 23.4942 32.3651 22.6796 31.6834 21.982ZM14.0133 24.9148C15.0242 23.2559 16.2914 21.8446 17.1309 21.1042L18.262 22.3869C17.55 23.0148 16.3943 24.2941 15.4737 25.8047C14.538 27.34 13.9429 28.9551 14.1128 30.3035L12.4161 30.5173C12.1722 28.5822 13.0174 26.5489 14.0133 24.9148Z" fill="#393939"/>
<path fill-rule="evenodd" clip-rule="evenodd" d="M7.12309 29.9144L17.9385 40.7297C17.9876 40.7788 18.0529 40.8082 18.1222 40.8126L34.9125 41.8696C35.1203 41.8826 35.3162 41.9711 35.4634 42.1183L38.5523 45.2071C38.8862 45.541 38.8862 46.0825 38.5523 46.4164C38.2184 46.7503 37.6769 46.7503 37.343 46.4164L34.4826 43.556L18.0147 42.5194C17.5299 42.4889 17.0728 42.2825 16.7293 41.9389L5.25045 30.4604C4.92473 30.1346 4.91556 29.6095 5.22971 29.2726C5.87241 28.5833 7.04273 27.8088 8.53668 27.6427C10.0726 27.4719 11.8434 27.9564 13.6075 29.6175C14.3156 30.2843 14.9022 30.8781 15.3959 31.3996C15.5985 30.9179 15.883 30.5513 16.0642 30.3388C16.2221 30.1536 16.4514 30.0444 16.6948 30.0386L25.613 29.8284C26.2926 29.4571 27.7244 28.8816 29.7669 28.5196C31.1039 28.2827 32.4896 28.6192 33.6197 29.0714C34.7614 29.5281 35.743 30.1433 36.3166 30.5869C36.3452 30.6091 36.3725 30.6331 36.3981 30.6587L44.7495 39.01C45.0835 39.3439 45.0835 39.8853 44.7495 40.2192C44.4156 40.5532 43.8742 40.5532 43.5403 40.2192L35.2287 31.9078C34.7618 31.5537 33.9382 31.0407 32.9845 30.6592C31.9901 30.2614 30.9532 30.0462 30.0653 30.2035C27.9166 30.5843 26.6218 31.2008 26.3162 31.3973C26.184 31.4822 26.031 31.5291 25.8739 31.5328L17.1469 31.7386C17.0308 31.916 16.9295 32.1208 16.8864 32.3375C16.8298 32.6222 16.8512 33.0181 17.3333 33.5251C17.5269 33.7269 17.7624 33.9193 17.9879 34.0944C18.0271 34.1248 18.07 34.1578 18.1127 34.1906C18.1676 34.2328 18.2223 34.2748 18.2687 34.3112L24.8971 34.4598C25.3692 34.4704 25.7434 34.8617 25.7328 35.3338C25.7222 35.8059 25.3309 36.1801 24.8587 36.1695L17.9213 36.014C17.6849 36.0087 17.4621 35.9058 17.3049 35.7312C17.2972 35.7245 17.2764 35.7067 17.2365 35.6751C17.1908 35.6389 17.1439 35.6029 17.0882 35.5602C17.045 35.527 16.9965 35.4897 16.939 35.4451C16.7008 35.2602 16.3823 35.0044 16.0977 34.7075C15.8427 34.4416 15.5867 34.154 15.2989 33.8306C14.637 33.0869 13.8068 32.1542 12.4351 30.8626C10.9939 29.5055 9.70819 29.2331 8.72567 29.3424C8.09624 29.4124 7.54772 29.6441 7.12309 29.9144Z" fill="#393939"/>
<path d="M19.072 18.5561L18.9827 18.4356L19.072 18.5561ZM19.2496 17.3599L19.1291 17.4493L19.2496 17.3599ZM18.0534 17.1824L18.1427 17.3029L18.0534 17.1824ZM29.7638 18.5359L29.8577 18.4189L29.7638 18.5359ZM29.6326 17.3337L29.5157 17.2398L29.6326 17.3337ZM30.8348 17.2026L30.7409 17.3196L30.8348 17.2026ZM24.5157 21.8596C24.5157 21.9425 24.5829 22.0096 24.6657 22.0096C24.7486 22.0096 24.8157 21.9425 24.8157 21.8596H24.5157ZM24.8157 19.5794C24.8157 19.4966 24.7486 19.4294 24.6657 19.4294C24.5829 19.4294 24.5157 19.4966 24.5157 19.5794H24.8157ZM22.3946 17.219L22.2505 17.1774C22.2489 17.1829 22.2476 17.1884 22.2467 17.194L22.3946 17.219ZM24.3804 16.7844V16.9344V16.7844ZM26.3668 17.219L26.5147 17.1941C26.5138 17.1885 26.5125 17.1829 26.511 17.1775L26.3668 17.219ZM24.1238 19.4419L24.1975 19.3113L24.1238 19.4419ZM24.637 19.4419L24.5633 19.3113L24.637 19.4419ZM23.7038 20.1868L23.7775 20.0561L23.7038 20.1868ZM25.057 20.1868L24.9833 20.0561L25.057 20.1868ZM21.5514 17.0768L21.4035 17.0518V17.0518L21.5514 17.0768ZM21.5729 16.9823L21.7171 17.0238L21.5729 16.9823ZM22.1404 16.1476L22.0544 16.0247L22.1404 16.1476ZM22.9858 15.8787L22.9772 15.7289L22.9858 15.8787ZM23.6505 15.8966L23.6402 16.0463L23.6402 16.0463L23.6505 15.8966ZM23.674 15.8982L23.6842 15.7486L23.6842 15.7486L23.674 15.8982ZM24.3804 15.9293V15.7793V15.9293ZM25.087 15.8982L25.0767 15.7486H25.0767L25.087 15.8982ZM25.1104 15.8966L25.1208 16.0463L25.1104 15.8966ZM25.7753 15.8787L25.7667 16.0284L25.7753 15.8787ZM26.6208 16.1475L26.7069 16.0246L26.6208 16.1475ZM27.1885 16.9824L27.0444 17.0239L27.1885 16.9824ZM27.2101 17.0772L27.358 17.0523V17.0523L27.2101 17.0772ZM25.4368 17.5896L25.5714 17.6557C25.5949 17.608 25.5913 17.5513 25.5619 17.5069C25.5326 17.4625 25.4819 17.437 25.4288 17.4398L25.4368 17.5896ZM24.3804 18.6014L24.3024 18.7294C24.3503 18.7587 24.4105 18.7587 24.4585 18.7294L24.3804 18.6014ZM25.2042 17.6044L25.1939 17.4547L25.2042 17.6044ZM25.1895 17.6054L25.1792 17.4557L25.1792 17.4557L25.1895 17.6054ZM24.3804 17.6395V17.7895V17.6395ZM23.5714 17.6054L23.5611 17.755L23.5611 17.755L23.5714 17.6054ZM23.5567 17.6044L23.567 17.4547L23.567 17.4547L23.5567 17.6044ZM23.3244 17.5896L23.3324 17.4398C23.2792 17.437 23.2286 17.4625 23.1992 17.5069C23.1699 17.5513 23.1663 17.6079 23.1897 17.6557L23.3244 17.5896ZM23.0674 17.7376C23.1483 17.7198 23.1994 17.6398 23.1816 17.5589C23.1638 17.4779 23.0838 17.4268 23.0029 17.4446L23.0674 17.7376ZM23.0014 17.4449C22.9205 17.4627 22.8693 17.5427 22.8871 17.6236C22.9049 17.7045 22.9849 17.7557 23.0659 17.7379L23.0014 17.4449ZM25.6955 17.7379C25.7764 17.7557 25.8564 17.7046 25.8742 17.6237C25.892 17.5428 25.8409 17.4627 25.76 17.4449L25.6955 17.7379ZM25.7585 17.4446C25.6776 17.4268 25.5975 17.478 25.5797 17.5589C25.5619 17.6398 25.6131 17.7198 25.694 17.7376L25.7585 17.4446ZM21.6853 5.77597L21.6081 5.64735V5.64735L21.6853 5.77597ZM24.3084 5.2565V5.4065V5.2565ZM20.5121 5.4827L20.3835 5.55988L20.5121 5.4827ZM20.8054 4.30954L20.7282 4.18091V4.18091L20.8054 4.30954ZM24.3084 3.54635V3.69635V3.54635ZM28.1309 4.25735L28.1902 4.11957L28.1309 4.25735ZM28.5784 5.3808L28.7161 5.4401L28.5784 5.3808ZM27.4549 5.82821L27.3956 5.96599V5.966L27.4549 5.82821ZM16.3814 14.716L16.2346 14.7469L16.3814 14.716ZM15.3682 14.0559L15.3991 14.2026L15.3682 14.0559ZM18.0395 18.4786L17.9218 18.5717L18.0395 18.4786ZM17.8995 19.6797L17.9926 19.7974L17.8995 19.6797ZM16.6984 19.5398L16.816 19.4467L16.6984 19.5398ZM14.708 15.0691L14.8548 15.0381L14.708 15.0691ZM34.6234 15.0691L34.4766 15.0381L34.6234 15.0691ZM33.9633 14.0559L33.9323 14.2026L33.9633 14.0559ZM32.6331 19.5398L32.7507 19.6329L32.6331 19.5398ZM31.4319 19.6797L31.3388 19.7974H31.3388L31.4319 19.6797ZM31.292 18.4786L31.1743 18.3855L31.292 18.4786ZM32.95 14.716L33.0968 14.7469V14.7469L32.95 14.716ZM22.4697 23.693L22.352 23.7861L22.4697 23.693ZM21.2685 23.5531L21.3616 23.6707L21.2685 23.5531ZM24.5247 24.9799L24.5422 24.8309H24.5422L24.5247 24.9799ZM27.1479 23.6622L27.2611 23.7607L27.1479 23.6622ZM28.3543 23.5787L28.4528 23.4655L28.3543 23.5787ZM28.4379 24.785L28.3248 24.6865L28.4379 24.785ZM24.3247 26.6783L24.3422 26.5294L24.3247 26.6783ZM21.1286 24.7542L21.2462 24.6611L21.1286 24.7542ZM28.8548 6.27897L28.7324 6.36567L28.8548 6.27897ZM29.4507 5.04366L29.45 5.19366L29.4507 5.04366ZM36.6334 17.2614L36.511 17.3481L36.6334 17.2614ZM38.0607 16.8384L37.9107 16.8392L38.0607 16.8384ZM37.764 10.096L37.9132 10.0806L37.764 10.096ZM37.335 7.4258L37.4804 7.38895L37.335 7.4258ZM37.054 6.57092L36.917 6.63206V6.63207L37.054 6.57092ZM36.8396 6.21457L36.9424 6.10535V6.10535L36.8396 6.21457ZM35.8032 5.70374L35.8484 5.56071L35.8032 5.70374ZM33.9231 5.31016L33.9436 5.16157L33.9231 5.31016ZM29.4588 3.33353L29.4595 3.18353L29.4588 3.33353ZM27.4592 7.26741L27.3368 7.35411L27.4592 7.26741ZM34.1569 3.61606L34.1364 3.76465L34.1569 3.61606ZM36.3185 4.07305L36.3637 3.93002L36.3185 4.07305ZM38.0118 4.9693L37.909 5.07852L38.0118 4.9693ZM38.6156 5.87378L38.4787 5.93493V5.93493L38.6156 5.87378ZM38.9928 7.00569L39.1382 6.96884V6.96884L38.9928 7.00569ZM39.4652 9.92057L39.6144 9.90518L39.4652 9.92057ZM39.7709 16.83L39.6209 16.8308L39.7709 16.83ZM35.2378 18.2499L35.3602 18.1632L35.2378 18.2499ZM19.9066 6.27897L20.029 6.36567L19.9066 6.27897ZM19.3106 5.04366L19.3113 5.19366L19.3106 5.04366ZM12.128 17.2614L12.2504 17.3481L12.128 17.2614ZM10.7007 16.8384L10.8507 16.8392L10.7007 16.8384ZM10.9973 10.096L10.8481 10.0806L10.9973 10.096ZM11.4264 7.4258L11.281 7.38895L11.4264 7.4258ZM11.7074 6.57092L11.8443 6.63207L11.8443 6.63206L11.7074 6.57092ZM11.9217 6.21457L11.8189 6.10535L11.8189 6.10535L11.9217 6.21457ZM12.9581 5.70374L12.913 5.56071H12.913L12.9581 5.70374ZM14.8382 5.31016L14.8177 5.16157L14.8382 5.31016ZM19.3026 3.33353L19.3019 3.18353L19.3026 3.33353ZM21.3022 7.26741L21.4246 7.35411L21.3022 7.26741ZM14.6045 3.61606L14.625 3.76465L14.6045 3.61606ZM12.4429 4.07305L12.3977 3.93002L12.4429 4.07305ZM10.7496 4.9693L10.8524 5.07852L10.7496 4.9693ZM10.1457 5.87378L10.2827 5.93493V5.93493L10.1457 5.87378ZM9.76859 7.00569L9.62319 6.96884V6.96884L9.76859 7.00569ZM9.29618 9.92057L9.14697 9.90518L9.29618 9.92057ZM8.99049 16.83L9.14048 16.8308L8.99049 16.83ZM13.5236 18.2499L13.4011 18.1632L13.5236 18.2499ZM31.0253 21.2901L30.9252 21.1784L30.8135 21.2785L30.9136 21.3902L31.0253 21.2901ZM31.6834 21.982L31.7907 21.8772L31.6834 21.982ZM32.299 20.1489L32.4107 20.0488L32.3106 19.9371L32.1989 20.0372L32.299 20.1489ZM32.8109 20.6845L32.7038 20.7895L32.8109 20.6845ZM35.328 23.777L35.1995 23.8544L35.328 23.777ZM36.9185 31.3429L36.905 31.4923L37.0544 31.5058L37.0679 31.3565L36.9185 31.3429ZM35.2154 31.1881L35.066 31.1745L35.0524 31.3239L35.2018 31.3374L35.2154 31.1881ZM33.863 24.6594L33.7345 24.7368L33.863 24.6594ZM17.1309 21.1042L17.2434 21.005L17.1442 20.8925L17.0317 20.9917L17.1309 21.1042ZM14.0133 24.9148L13.8852 24.8367L14.0133 24.9148ZM18.262 22.3869L18.3612 22.4995L18.4737 22.4002L18.3745 22.2877L18.262 22.3869ZM15.4737 25.8047L15.3456 25.7266L15.4737 25.8047ZM14.1128 30.3035L14.1316 30.4523L14.2804 30.4336L14.2617 30.2847L14.1128 30.3035ZM12.4161 30.5173L12.2672 30.536L12.286 30.6849L12.4348 30.6661L12.4161 30.5173ZM17.9385 40.7297L17.8325 40.8358L17.9385 40.7297ZM7.12309 29.9144L7.04252 29.7879C7.00415 29.8123 6.97894 29.8529 6.97398 29.8981C6.96902 29.9433 6.98485 29.9883 7.01702 30.0205L7.12309 29.9144ZM18.1222 40.8126L18.1316 40.6629L18.1222 40.8126ZM34.9125 41.8696L34.9031 42.0193L34.9125 41.8696ZM35.4634 42.1183L35.5695 42.0123L35.4634 42.1183ZM38.5523 45.2071L38.4462 45.3132L38.5523 45.2071ZM37.343 46.4164L37.2369 46.5225L37.343 46.4164ZM34.4826 43.556L34.5887 43.45C34.5629 43.4241 34.5285 43.4086 34.492 43.4063L34.4826 43.556ZM18.0147 42.5194L18.0053 42.6691L18.0147 42.5194ZM16.7293 41.9389L16.8353 41.8329L16.7293 41.9389ZM5.25045 30.4604L5.14439 30.5664L5.25045 30.4604ZM5.22971 29.2726L5.12 29.1703L5.22971 29.2726ZM8.53668 27.6427L8.52011 27.4936L8.53668 27.6427ZM13.6075 29.6175L13.7103 29.5083L13.6075 29.6175ZM15.3959 31.3996L15.2869 31.5028C15.3218 31.5396 15.3729 31.5563 15.4227 31.5472C15.4726 31.5381 15.5145 31.5045 15.5341 31.4578L15.3959 31.3996ZM16.0642 30.3388L16.1783 30.4361H16.1783L16.0642 30.3388ZM16.6948 30.0386L16.6983 30.1886L16.6948 30.0386ZM25.613 29.8284L25.6166 29.9783C25.6405 29.9778 25.6639 29.9715 25.6849 29.96L25.613 29.8284ZM29.7669 28.5196L29.793 28.6673L29.7669 28.5196ZM33.6197 29.0714L33.564 29.2106L33.6197 29.0714ZM36.3166 30.5869L36.2248 30.7056L36.3166 30.5869ZM36.3981 30.6587L36.5042 30.5526L36.3981 30.6587ZM44.7495 39.01L44.6435 39.1161L44.7495 39.01ZM43.5403 40.2192L43.6463 40.1132L43.5403 40.2192ZM35.2287 31.9078L35.3347 31.8018C35.3299 31.7969 35.3248 31.7924 35.3193 31.7883L35.2287 31.9078ZM32.9845 30.6592L32.9287 30.7984L32.9845 30.6592ZM30.0653 30.2035L30.0391 30.0558L30.0653 30.2035ZM26.3162 31.3973L26.2351 31.2711L26.3162 31.3973ZM25.8739 31.5328L25.8775 31.6828L25.8739 31.5328ZM17.1469 31.7386L17.1433 31.5887C17.094 31.5898 17.0483 31.6152 17.0213 31.6565L17.1469 31.7386ZM16.8864 32.3375L17.0335 32.3667L16.8864 32.3375ZM17.3333 33.5251L17.2246 33.6285L17.2251 33.629L17.3333 33.5251ZM17.9879 34.0944L17.8959 34.2129H17.8959L17.9879 34.0944ZM18.1127 34.1906L18.2041 34.0717L18.1127 34.1906ZM18.2687 34.3112L18.1763 34.4293C18.2018 34.4493 18.233 34.4604 18.2654 34.4612L18.2687 34.3112ZM24.8971 34.4598L24.9004 34.3098L24.8971 34.4598ZM25.7328 35.3338L25.5828 35.3304L25.7328 35.3338ZM24.8587 36.1695L24.8621 36.0196L24.8587 36.1695ZM17.9213 36.014L17.9247 35.864L17.9213 36.014ZM17.3049 35.7312L17.4164 35.6308C17.4121 35.626 17.4074 35.6214 17.4024 35.6172L17.3049 35.7312ZM17.2365 35.6751L17.1434 35.7927L17.2365 35.6751ZM17.0882 35.5602L17.1796 35.4412H17.1796L17.0882 35.5602ZM16.939 35.4451L17.031 35.3266L16.939 35.4451ZM16.0977 34.7075L16.2059 34.6037L16.0977 34.7075ZM15.2989 33.8306L15.1869 33.9303L15.2989 33.8306ZM12.4351 30.8626L12.3323 30.9718L12.4351 30.8626ZM8.72567 29.3424L8.74224 29.4915L8.72567 29.3424ZM19.1614 18.6766C19.6072 18.346 19.7007 17.7165 19.37 17.2706L19.1291 17.4493C19.361 17.7621 19.2955 18.2037 18.9827 18.4356L19.1614 18.6766ZM18.26 20.3354C18.26 19.7091 18.5797 19.1079 19.1614 18.6766L18.9827 18.4356C18.3355 18.9155 17.96 19.6015 17.96 20.3354H18.26ZM20.9603 22.5647C19.3383 22.5647 18.26 21.4443 18.26 20.3354H17.96C17.96 21.6436 19.2082 22.8647 20.9603 22.8647V22.5647ZM23.6606 20.3354C23.6606 21.4443 22.5823 22.5647 20.9603 22.5647V22.8647C22.7124 22.8647 23.9606 21.6436 23.9606 20.3354H23.6606ZM24.6657 19.3303C24.1106 19.3303 23.6606 19.7803 23.6606 20.3354H23.9606C23.9606 19.946 24.2763 19.6303 24.6657 19.6303V19.3303ZM25.6708 20.3354C25.6708 19.7803 25.2208 19.3303 24.6657 19.3303V19.6303C25.0551 19.6303 25.3708 19.946 25.3708 20.3354H25.6708ZM20.9603 24.5748C23.428 24.5748 25.6708 22.8018 25.6708 20.3354H25.3708C25.3708 22.597 23.3043 24.2748 20.9603 24.2748V24.5748ZM16.2498 20.3354C16.2498 22.8018 18.4926 24.5748 20.9603 24.5748V24.2748C18.6163 24.2748 16.5498 22.597 16.5498 20.3354H16.2498ZM17.964 17.0619C16.9458 17.8169 16.2498 18.9849 16.2498 20.3354H16.5498C16.5498 19.0933 17.1894 18.0098 18.1427 17.3029L17.964 17.0619ZM19.37 17.2706C19.0394 16.8247 18.4099 16.7313 17.964 17.0619L18.1427 17.3029C18.4555 17.0709 18.8971 17.1365 19.1291 17.4493L19.37 17.2706ZM29.8577 18.4189C29.5541 18.1751 29.5057 17.7313 29.7496 17.4277L29.5157 17.2398C29.1681 17.6726 29.2371 18.3052 29.6698 18.6528L29.8577 18.4189ZM30.8014 20.3354C30.8014 19.5781 30.4436 18.8896 29.8577 18.4189L29.6698 18.6528C30.1905 19.0711 30.5014 19.6761 30.5014 20.3354H30.8014ZM28.0861 22.8647C29.6242 22.8647 30.8014 21.6949 30.8014 20.3354H30.5014C30.5014 21.5152 29.4728 22.5647 28.0861 22.5647V22.8647ZM25.3708 20.3354C25.3708 21.6949 26.548 22.8647 28.0861 22.8647V22.5647C26.6993 22.5647 25.6708 21.5152 25.6708 20.3354H25.3708ZM28.0861 24.2748C25.8448 24.2748 23.9606 22.5472 23.9606 20.3354H23.6606C23.6606 22.7294 25.6961 24.5748 28.0861 24.5748V24.2748ZM32.2116 20.3354C32.2116 22.5472 30.3274 24.2748 28.0861 24.2748V24.5748C30.476 24.5748 32.5116 22.7294 32.5116 20.3354H32.2116ZM30.7409 17.3196C31.6322 18.0356 32.2116 19.1164 32.2116 20.3354H32.5116C32.5116 19.0181 31.885 17.8539 30.9287 17.0857L30.7409 17.3196ZM29.7496 17.4277C29.9935 17.1241 30.4373 17.0757 30.7409 17.3196L30.9287 17.0857C30.496 16.738 29.8633 16.807 29.5157 17.2398L29.7496 17.4277ZM24.8157 21.8596V19.5794H24.5157V21.8596H24.8157ZM22.5387 17.2605C22.5839 17.1035 22.6465 17.0202 22.7169 16.9709C22.7904 16.9195 22.8923 16.8908 23.0436 16.8821C23.1958 16.8733 23.3784 16.8854 23.6051 16.901C23.8284 16.9163 24.0878 16.9344 24.3804 16.9344V16.6344C24.0995 16.6344 23.8498 16.6171 23.6256 16.6017C23.4047 16.5865 23.2014 16.5725 23.0263 16.5826C22.8504 16.5927 22.6839 16.6278 22.5448 16.7252C22.4028 16.8246 22.3087 16.9752 22.2505 17.1774L22.5387 17.2605ZM24.3804 16.9344C24.673 16.9344 24.9324 16.9163 25.1559 16.901C25.3826 16.8854 25.5653 16.8733 25.7176 16.8821C25.8689 16.8908 25.971 16.9195 26.0445 16.9709C26.115 17.0203 26.1775 17.1035 26.2227 17.2604L26.511 17.1775C26.4527 16.9752 26.3586 16.8246 26.2165 16.7251C26.0774 16.6278 25.9109 16.5927 25.7348 16.5826C25.5597 16.5725 25.3563 16.5865 25.1353 16.6017C24.9111 16.6171 24.6613 16.6344 24.3804 16.6344V16.9344ZM22.2467 17.194C22.1657 17.6746 22.4921 18.6941 24.0501 19.5726L24.1975 19.3113C22.6973 18.4654 22.491 17.5495 22.5425 17.2439L22.2467 17.194ZM26.2189 17.2438C26.2703 17.5495 26.0636 18.4654 24.5633 19.3113L24.7107 19.5726C26.2688 18.6941 26.5955 17.6746 26.5147 17.1941L26.2189 17.2438ZM24.0501 19.5726C24.2548 19.688 24.5061 19.688 24.7107 19.5726L24.5633 19.3113C24.4502 19.3751 24.3106 19.3751 24.1975 19.3113L24.0501 19.5726ZM23.6302 20.3174C24.0955 20.5798 24.6654 20.5798 25.1307 20.3174L24.9833 20.0561C24.6095 20.2669 24.1514 20.2669 23.7775 20.0561L23.6302 20.3174ZM21.4035 17.0518C21.2382 18.0318 21.9082 19.3465 23.6302 20.3174L23.7775 20.0561C22.1113 19.1166 21.5639 17.9051 21.6993 17.1017L21.4035 17.0518ZM21.4288 16.9408C21.4183 16.9773 21.4098 17.0144 21.4035 17.0518L21.6993 17.1017C21.7038 17.0754 21.7097 17.0494 21.7171 17.0238L21.4288 16.9408ZM22.0544 16.0247C21.7081 16.2672 21.5241 16.6097 21.4288 16.9408L21.7171 17.0238C21.7995 16.7376 21.9521 16.4626 22.2264 16.2705L22.0544 16.0247ZM22.9772 15.7289C22.7308 15.7431 22.3805 15.7963 22.0544 16.0247L22.2264 16.2705C22.487 16.088 22.7728 16.0412 22.9944 16.0284L22.9772 15.7289ZM23.6608 15.747C23.46 15.7331 23.2085 15.7156 22.9772 15.7289L22.9944 16.0284C23.2035 16.0164 23.4356 16.0322 23.6402 16.0463L23.6608 15.747ZM23.6842 15.7486C23.6765 15.7481 23.6687 15.7475 23.6608 15.747L23.6402 16.0463C23.648 16.0468 23.6559 16.0474 23.6637 16.0479L23.6842 15.7486ZM24.3804 15.7793C24.1328 15.7793 23.9106 15.7641 23.6842 15.7486L23.6637 16.0479C23.8892 16.0634 24.1211 16.0793 24.3804 16.0793V15.7793ZM25.0767 15.7486C24.8503 15.7641 24.6281 15.7793 24.3804 15.7793V16.0793C24.6398 16.0793 24.8717 16.0634 25.0973 16.0479L25.0767 15.7486ZM25.1001 15.747C25.0922 15.7475 25.0844 15.7481 25.0767 15.7486L25.0973 16.0479C25.105 16.0474 25.1129 16.0468 25.1208 16.0463L25.1001 15.747ZM25.784 15.7289C25.5526 15.7156 25.301 15.7331 25.1001 15.747L25.1208 16.0463C25.3254 16.0322 25.5576 16.0164 25.7667 16.0284L25.784 15.7289ZM26.7069 16.0246C26.3806 15.7963 26.0303 15.7431 25.784 15.7289L25.7667 16.0284C25.9884 16.0412 26.2742 16.088 26.5348 16.2704L26.7069 16.0246ZM27.3327 16.9409C27.2373 16.6097 27.0532 16.267 26.7069 16.0246L26.5348 16.2704C26.8093 16.4625 26.962 16.7376 27.0444 17.0239L27.3327 16.9409ZM27.358 17.0523C27.3517 17.0147 27.3432 16.9775 27.3327 16.9409L27.0444 17.0239C27.0518 17.0496 27.0577 17.0757 27.0622 17.102L27.358 17.0523ZM25.1307 20.3174C26.8526 19.3466 27.5228 18.0321 27.358 17.0523L27.0622 17.102C27.1972 17.9053 26.6495 19.1167 24.9833 20.0561L25.1307 20.3174ZM25.3021 17.5235C25.2038 17.7238 24.9533 18.0765 24.3024 18.4733L24.4585 18.7294C25.1489 18.3086 25.4436 17.9162 25.5714 17.6557L25.3021 17.5235ZM25.2145 17.754C25.3061 17.7477 25.3813 17.7428 25.4448 17.7394L25.4288 17.4398C25.3629 17.4434 25.2857 17.4484 25.1939 17.4547L25.2145 17.754ZM25.1997 17.755L25.2145 17.754L25.1939 17.4547L25.1792 17.4557L25.1997 17.755ZM24.3804 17.7895C24.6991 17.7895 24.9805 17.7701 25.1997 17.755L25.1792 17.4557C24.9597 17.4708 24.6876 17.4895 24.3804 17.4895V17.7895ZM23.5611 17.755C23.7804 17.7701 24.0617 17.7895 24.3804 17.7895V17.4895C24.0732 17.4895 23.8012 17.4708 23.5817 17.4557L23.5611 17.755ZM23.5464 17.754L23.5611 17.755L23.5817 17.4557L23.567 17.4547L23.5464 17.754ZM23.3164 17.7394C23.3797 17.7428 23.4549 17.7477 23.5464 17.754L23.567 17.4547C23.4753 17.4484 23.3982 17.4434 23.3324 17.4398L23.3164 17.7394ZM24.4585 18.4733C23.8074 18.0764 23.5572 17.7237 23.459 17.5236L23.1897 17.6557C23.3174 17.9161 23.6119 18.3085 24.3024 18.7294L24.4585 18.4733ZM23.0029 17.4446L23.0014 17.4449L23.0659 17.7379L23.0674 17.7376L23.0029 17.4446ZM25.76 17.4449L25.7585 17.4446L25.694 17.7376L25.6955 17.7379L25.76 17.4449ZM22.2355 12.4537C22.2355 13.158 21.6646 13.7289 20.9603 13.7289V14.0289C21.8302 14.0289 22.5355 13.3237 22.5355 12.4537H22.2355ZM20.9603 13.7289C20.2561 13.7289 19.6852 13.158 19.6852 12.4537H19.3852C19.3852 13.3237 20.0904 14.0289 20.9603 14.0289V13.7289ZM19.6852 12.4537C19.6852 11.7495 20.2561 11.1786 20.9603 11.1786V10.8786C20.0904 10.8786 19.3852 11.5838 19.3852 12.4537H19.6852ZM20.9603 11.1786C21.6646 11.1786 22.2355 11.7495 22.2355 12.4537H22.5355C22.5355 11.5838 21.8302 10.8786 20.9603 10.8786V11.1786ZM29.0762 12.4537C29.0762 13.158 28.5053 13.7289 27.8011 13.7289V14.0289C28.671 14.0289 29.3762 13.3237 29.3762 12.4537H29.0762ZM27.8011 13.7289C27.0968 13.7289 26.5259 13.158 26.5259 12.4537H26.2259C26.2259 13.3237 26.9311 14.0289 27.8011 14.0289V13.7289ZM26.5259 12.4537C26.5259 11.7495 27.0968 11.1786 27.8011 11.1786V10.8786C26.9311 10.8786 26.2259 11.5838 26.2259 12.4537H26.5259ZM27.8011 11.1786C28.5053 11.1786 29.0762 11.7495 29.0762 12.4537H29.3762C29.3762 11.5838 28.671 10.8786 27.8011 10.8786V11.1786ZM21.7625 5.9046C22.2464 5.61423 23.1715 5.4065 24.3084 5.4065L24.3084 5.1065C23.1496 5.1065 22.1603 5.31602 21.6081 5.64735L21.7625 5.9046ZM20.3835 5.55988C20.6691 6.03586 21.2865 6.19019 21.7625 5.9046L21.6081 5.64735C21.2742 5.8477 20.8411 5.73943 20.6407 5.40552L20.3835 5.55988ZM20.7282 4.18091C20.2522 4.46651 20.0979 5.08389 20.3835 5.55988L20.6407 5.40552C20.4404 5.07161 20.5486 4.63851 20.8826 4.43816L20.7282 4.18091ZM24.3084 3.39635C23.0246 3.39634 21.6694 3.61619 20.7282 4.18091L20.8826 4.43816C21.7555 3.91437 23.0465 3.69634 24.3084 3.69635L24.3084 3.39635ZM28.1902 4.11957C27.041 3.62499 25.6182 3.39635 24.3084 3.39635V3.69635C25.5885 3.69635 26.9689 3.92055 28.0716 4.39513L28.1902 4.11957ZM28.7161 5.4401C28.9356 4.93022 28.7001 4.339 28.1902 4.11957L28.0716 4.39513C28.4293 4.54907 28.5945 4.96382 28.4406 5.3215L28.7161 5.4401ZM27.3956 5.966C27.9055 6.18542 28.4967 5.94997 28.7161 5.4401L28.4406 5.3215C28.2866 5.67919 27.8719 5.84437 27.5142 5.69043L27.3956 5.966ZM24.3084 5.4065C25.4194 5.4065 26.5578 5.60543 27.3956 5.96599L27.5142 5.69043C26.6299 5.30987 25.4491 5.1065 24.3084 5.1065L24.3084 5.4065ZM16.5282 14.685C16.4135 14.1419 15.8803 13.7945 15.3372 13.9091L15.3991 14.2026C15.7802 14.1222 16.1542 14.3659 16.2346 14.7469L16.5282 14.685ZM18.1571 18.3855C17.255 17.2455 16.6886 15.4456 16.5282 14.685L16.2346 14.7469C16.3991 15.5262 16.9779 17.3787 17.9218 18.5717L18.1571 18.3855ZM17.9926 19.7974C18.4279 19.4529 18.5015 18.8208 18.1571 18.3855L17.9218 18.5717C18.1635 18.877 18.1118 19.3205 17.8064 19.5621L17.9926 19.7974ZM16.5807 19.6329C16.9252 20.0681 17.5573 20.1418 17.9926 19.7974L17.8064 19.5621C17.5011 19.8037 17.0576 19.7521 16.816 19.4467L16.5807 19.6329ZM14.5613 15.1C14.7483 15.9861 15.398 18.1382 16.5807 19.6329L16.816 19.4467C15.6751 18.005 15.0378 15.9054 14.8548 15.0381L14.5613 15.1ZM15.3372 13.9091C14.7941 14.0237 14.4467 14.5569 14.5613 15.1L14.8548 15.0381C14.7744 14.6571 15.0181 14.283 15.3991 14.2026L15.3372 13.9091ZM34.7702 15.1C34.8848 14.5569 34.5374 14.0237 33.9942 13.9091L33.9323 14.2026C34.3133 14.283 34.557 14.6571 34.4766 15.0381L34.7702 15.1ZM32.7507 19.6329C33.9334 18.1382 34.5832 15.9861 34.7702 15.1L34.4766 15.0381C34.2936 15.9054 33.6563 18.005 32.5154 19.4467L32.7507 19.6329ZM31.3388 19.7974C31.7741 20.1418 32.4063 20.0681 32.7507 19.6329L32.5154 19.4467C32.2738 19.7521 31.8304 19.8037 31.525 19.5621L31.3388 19.7974ZM31.1743 18.3855C30.8299 18.8208 30.9035 19.4529 31.3388 19.7974L31.525 19.5621C31.2196 19.3205 31.1679 18.877 31.4096 18.5717L31.1743 18.3855ZM32.8033 14.685C32.6428 15.4456 32.0764 17.2455 31.1743 18.3855L31.4096 18.5717C32.3536 17.3787 32.9324 15.5262 33.0968 14.7469L32.8033 14.685ZM33.9942 13.9091C33.4511 13.7945 32.9179 14.1419 32.8033 14.685L33.0968 14.7469C33.1772 14.3659 33.5513 14.1222 33.9323 14.2026L33.9942 13.9091ZM22.5873 23.6C22.2429 23.1647 21.6107 23.091 21.1754 23.4355L21.3616 23.6707C21.667 23.4291 22.1104 23.4808 22.352 23.7861L22.5873 23.6ZM24.5422 24.8309C23.8355 24.7477 23.1297 24.2855 22.5873 23.6L22.352 23.7861C22.9272 24.513 23.6985 25.0337 24.5071 25.1289L24.5422 24.8309ZM27.0348 23.5638C26.055 24.6894 25.1907 24.9073 24.5422 24.8309L24.5071 25.1289C25.2747 25.2193 26.2311 24.944 27.2611 23.7607L27.0348 23.5638ZM28.4528 23.4655C28.0341 23.1011 27.3992 23.1451 27.0348 23.5638L27.2611 23.7607C27.5167 23.467 27.9621 23.4361 28.2558 23.6918L28.4528 23.4655ZM28.551 24.8835C28.9155 24.4648 28.8715 23.8299 28.4528 23.4655L28.2558 23.6918C28.5496 23.9475 28.5804 24.3928 28.3248 24.6865L28.551 24.8835ZM24.3071 26.8273C25.7569 26.998 27.2379 26.3922 28.551 24.8835L28.3248 24.6865C27.0611 26.1384 25.672 26.6859 24.3422 26.5294L24.3071 26.8273ZM21.0109 24.8473C21.7713 25.8082 22.9157 26.6635 24.3071 26.8273L24.3422 26.5294C23.0532 26.3776 21.9742 25.5812 21.2462 24.6611L21.0109 24.8473ZM21.1754 23.4355C20.7401 23.7799 20.6665 24.412 21.0109 24.8473L21.2462 24.6611C21.0045 24.3558 21.0562 23.9123 21.3616 23.6707L21.1754 23.4355ZM28.9772 6.19227C28.6475 5.72679 28.9709 5.19142 29.45 5.19366L29.4514 4.89367C28.7273 4.89027 28.2621 5.70171 28.7324 6.36567L28.9772 6.19227ZM36.7558 17.1747L28.9772 6.19227L28.7324 6.36567L36.511 17.3481L36.7558 17.1747ZM37.9107 16.8392C37.9122 17.1451 37.7227 17.3682 37.4845 17.4473C37.2505 17.525 36.9618 17.4656 36.7558 17.1747L36.511 17.3481C36.7938 17.7474 37.2205 17.851 37.579 17.732C37.9331 17.6144 38.2129 17.281 38.2107 16.8377L37.9107 16.8392ZM37.6148 10.1114C37.829 12.1882 37.9001 14.6769 37.9107 16.8392L38.2107 16.8377C38.2001 14.6721 38.1289 12.1719 37.9132 10.0806L37.6148 10.1114ZM37.1896 7.46265C37.367 8.16264 37.5075 9.0706 37.6148 10.1114L37.9132 10.0806C37.8052 9.03329 37.6629 8.1091 37.4804 7.38895L37.1896 7.46265ZM36.917 6.63207C37.0085 6.8369 37.1009 7.11286 37.1896 7.46265L37.4804 7.38895C37.3892 7.02903 37.2917 6.73542 37.191 6.50977L36.917 6.63207ZM36.7368 6.3238C36.7511 6.33721 36.821 6.417 36.917 6.63206L37.191 6.50977C37.0871 6.2771 36.9975 6.15715 36.9424 6.10535L36.7368 6.3238ZM35.758 5.84677C36.288 6.01422 36.5934 6.1888 36.7368 6.3238L36.9424 6.10535C36.7504 5.9246 36.3944 5.73321 35.8484 5.56071L35.758 5.84677ZM33.9026 5.45876C34.6147 5.557 35.2475 5.68545 35.758 5.84677L35.8484 5.56071C35.3159 5.39246 34.665 5.26111 33.9436 5.16157L33.9026 5.45876ZM29.45 5.19366C30.8435 5.20019 32.4797 5.26243 33.9026 5.45876L33.9436 5.16157C32.5017 4.96261 30.8504 4.90022 29.4514 4.89367L29.45 5.19366ZM29.4595 3.18353C27.2441 3.17315 26.1204 5.63676 27.3368 7.35411L27.5816 7.18071C26.4944 5.64576 27.5071 3.47438 29.4581 3.48353L29.4595 3.18353ZM34.1774 3.46747C32.6268 3.25351 30.8896 3.19023 29.4595 3.18353L29.4581 3.48353C30.8827 3.4902 32.6048 3.55333 34.1364 3.76465L34.1774 3.46747ZM36.3637 3.93002C35.7061 3.72225 34.9521 3.57436 34.1774 3.46747L34.1364 3.76465C34.9017 3.87026 35.6377 4.01524 36.2733 4.21608L36.3637 3.93002ZM38.1146 4.86007C37.646 4.41897 37.002 4.1317 36.3637 3.93002L36.2733 4.21608C36.8953 4.41262 37.4888 4.68306 37.909 5.07852L38.1146 4.86007ZM38.7526 5.81264C38.6034 5.47844 38.4015 5.13015 38.1146 4.86007L37.909 5.07852C38.1553 5.31033 38.3375 5.61859 38.4787 5.93493L38.7526 5.81264ZM39.1382 6.96884C39.0323 6.5511 38.9063 6.15693 38.7526 5.81264L38.4787 5.93493C38.6231 6.25842 38.7441 6.63495 38.8474 7.04254L39.1382 6.96884ZM39.6144 9.90518C39.5025 8.82056 39.3498 7.80389 39.1382 6.96884L38.8474 7.04254C39.0539 7.85744 39.2048 8.85789 39.316 9.93596L39.6144 9.90518ZM39.9209 16.8293C39.9101 14.6446 39.8386 12.0793 39.6144 9.90518L39.316 9.93596C39.5387 12.0955 39.6101 14.6494 39.6209 16.8308L39.9209 16.8293ZM35.1154 18.3366C36.5915 20.4207 39.9341 19.5059 39.9209 16.8293L39.6209 16.8308C39.6325 19.1879 36.6821 20.0296 35.3602 18.1632L35.1154 18.3366ZM27.3368 7.35411L35.1154 18.3366L35.3602 18.1632L27.5816 7.18071L27.3368 7.35411ZM20.029 6.36567C20.4993 5.70171 20.034 4.89027 19.3099 4.89367L19.3113 5.19366C19.7904 5.19142 20.1139 5.72679 19.7842 6.19227L20.029 6.36567ZM12.2504 17.3481L20.029 6.36567L19.7842 6.19227L12.0055 17.1747L12.2504 17.3481ZM10.5507 16.8377C10.5485 17.281 10.8283 17.6144 11.1824 17.732C11.5408 17.851 11.9676 17.7474 12.2504 17.3481L12.0055 17.1747C11.7996 17.4656 11.5108 17.525 11.2769 17.4473C11.0386 17.3682 10.8491 17.1451 10.8507 16.8392L10.5507 16.8377ZM10.8481 10.0806C10.6324 12.1719 10.5613 14.6721 10.5507 16.8377L10.8507 16.8392C10.8613 14.6769 10.9323 12.1882 11.1466 10.1114L10.8481 10.0806ZM11.281 7.38895C11.0985 8.1091 10.9562 9.03329 10.8481 10.0806L11.1466 10.1114C11.2539 9.0706 11.3944 8.16264 11.5718 7.46265L11.281 7.38895ZM11.5704 6.50977C11.4697 6.73542 11.3722 7.02903 11.281 7.38895L11.5718 7.46265C11.6604 7.11286 11.7529 6.8369 11.8443 6.63207L11.5704 6.50977ZM11.8189 6.10535C11.7639 6.15715 11.6743 6.2771 11.5704 6.50977L11.8443 6.63206C11.9403 6.417 12.0103 6.33721 12.0245 6.3238L11.8189 6.10535ZM12.913 5.56071C12.367 5.73321 12.011 5.9246 11.8189 6.10535L12.0245 6.3238C12.168 6.1888 12.4734 6.01422 13.0033 5.84677L12.913 5.56071ZM14.8177 5.16157C14.0964 5.26111 13.4455 5.39246 12.913 5.56071L13.0033 5.84677C13.5139 5.68545 14.1467 5.557 14.8587 5.45876L14.8177 5.16157ZM19.3099 4.89367C17.911 4.90022 16.2597 4.96261 14.8177 5.16157L14.8587 5.45876C16.2816 5.26243 17.9178 5.20019 19.3113 5.19366L19.3099 4.89367ZM19.3033 3.48353C21.2542 3.47438 22.2669 5.64576 21.1798 7.18071L21.4246 7.35411C22.6409 5.63676 21.5173 3.17315 19.3019 3.18353L19.3033 3.48353ZM14.625 3.76465C16.1565 3.55333 17.8786 3.4902 19.3033 3.48353L19.3019 3.18353C17.8718 3.19023 16.1346 3.25351 14.584 3.46747L14.625 3.76465ZM12.4881 4.21608C13.1237 4.01524 13.8596 3.87026 14.625 3.76465L14.584 3.46747C13.8092 3.57436 13.0553 3.72225 12.3977 3.93002L12.4881 4.21608ZM10.8524 5.07852C11.2725 4.68306 11.8661 4.41262 12.4881 4.21608L12.3977 3.93002C11.7594 4.1317 11.1154 4.41897 10.6468 4.86007L10.8524 5.07852ZM10.2827 5.93493C10.4239 5.61859 10.6061 5.31033 10.8524 5.07852L10.6468 4.86007C10.3598 5.13015 10.1579 5.47844 10.0087 5.81264L10.2827 5.93493ZM9.91399 7.04254C10.0173 6.63495 10.1383 6.25842 10.2827 5.93493L10.0087 5.81264C9.85505 6.15693 9.72905 6.5511 9.62319 6.96884L9.91399 7.04254ZM9.44539 9.93596C9.55658 8.85789 9.70748 7.85744 9.91399 7.04254L9.62319 6.96884C9.41156 7.80389 9.25884 8.82056 9.14697 9.90518L9.44539 9.93596ZM9.14048 16.8308C9.15122 14.6494 9.22264 12.0955 9.44539 9.93596L9.14697 9.90518C8.92273 12.0793 8.85124 14.6446 8.84049 16.8293L9.14048 16.8308ZM13.4011 18.1632C12.0792 20.0296 9.12888 19.1879 9.14048 16.8308L8.84049 16.8293C8.82731 19.5059 12.1698 20.4207 13.646 18.3366L13.4011 18.1632ZM21.1798 7.18071L13.4011 18.1632L13.646 18.3366L21.4246 7.35411L21.1798 7.18071ZM30.9136 21.3902C31.116 21.6162 31.3407 21.846 31.5761 22.0869L31.7907 21.8772C31.5542 21.6352 31.3343 21.4102 31.137 21.19L30.9136 21.3902ZM32.1989 20.0372L30.9252 21.1784L31.1254 21.4018L32.3991 20.2606L32.1989 20.0372ZM32.9181 20.5795C32.7158 20.373 32.5436 20.1972 32.4107 20.0488L32.1873 20.249C32.3256 20.4034 32.5031 20.5846 32.7038 20.7895L32.9181 20.5795ZM35.4565 23.6996C34.629 22.3259 33.6102 21.2862 32.9181 20.5795L32.7038 20.7895C33.3962 21.4965 34.3921 22.514 35.1995 23.8544L35.4565 23.6996ZM37.0679 31.3565C37.3735 27.9952 36.5599 25.5315 35.4565 23.6996L35.1995 23.8544C36.2721 25.6351 37.0686 28.0355 36.7692 31.3293L37.0679 31.3565ZM35.2018 31.3374L36.905 31.4923L36.9321 31.1935L35.229 31.0387L35.2018 31.3374ZM33.7345 24.7368C34.6312 26.2255 35.3305 28.2651 35.066 31.1745L35.3648 31.2016C35.6354 28.2248 34.9191 26.1219 33.9915 24.582L33.7345 24.7368ZM31.5761 22.0869C32.2578 22.7844 33.0426 23.5881 33.7345 24.7368L33.9915 24.582C33.2797 23.4003 32.4724 22.5748 31.7907 21.8772L31.5761 22.0869ZM17.0317 20.9917C16.181 21.7419 14.9041 23.1649 13.8852 24.8367L14.1414 24.9928C15.1444 23.347 16.4018 21.9472 17.2301 21.2168L17.0317 20.9917ZM18.3745 22.2877L17.2434 21.005L17.0184 21.2035L18.1495 22.4862L18.3745 22.2877ZM15.6018 25.8828C16.5145 24.3851 17.6604 23.1174 18.3612 22.4995L18.1628 22.2744C17.4396 22.9121 16.2741 24.203 15.3456 25.7266L15.6018 25.8828ZM14.2617 30.2847C14.0982 28.9878 14.6714 27.4094 15.6018 25.8828L15.3456 25.7266C14.4046 27.2706 13.7876 28.9224 13.964 30.3222L14.2617 30.2847ZM12.4348 30.6661L14.1316 30.4523L14.0941 30.1547L12.3973 30.3685L12.4348 30.6661ZM13.8852 24.8367C12.884 26.4795 12.0169 28.5495 12.2672 30.536L12.5649 30.4985C12.3275 28.6149 13.1508 26.6183 14.1414 24.9928L13.8852 24.8367ZM18.0446 40.6236L7.22915 29.8084L7.01702 30.0205L17.8325 40.8358L18.0446 40.6236ZM18.1316 40.6629C18.0988 40.6608 18.0679 40.6469 18.0446 40.6236L17.8325 40.8358C17.9074 40.9107 18.007 40.9557 18.1128 40.9623L18.1316 40.6629ZM34.9219 41.7199L18.1316 40.6629L18.1128 40.9623L34.9031 42.0193L34.9219 41.7199ZM35.5695 42.0123C35.3965 41.8392 35.1662 41.7352 34.9219 41.7199L34.9031 42.0193C35.0745 42.0301 35.236 42.103 35.3574 42.2244L35.5695 42.0123ZM38.6584 45.1011L35.5695 42.0123L35.3574 42.2244L38.4462 45.3132L38.6584 45.1011ZM38.6584 46.5225C39.0509 46.1299 39.0509 45.4936 38.6584 45.1011L38.4462 45.3132C38.7216 45.5885 38.7216 46.035 38.4462 46.3103L38.6584 46.5225ZM37.2369 46.5225C37.6295 46.915 38.2659 46.915 38.6584 46.5225L38.4462 46.3103C38.1709 46.5857 37.7244 46.5857 37.4491 46.3103L37.2369 46.5225ZM34.3766 43.6621L37.2369 46.5225L37.4491 46.3103L34.5887 43.45L34.3766 43.6621ZM18.0053 42.6691L34.4732 43.7057L34.492 43.4063L18.0242 42.3697L18.0053 42.6691ZM16.6232 42.045C16.9925 42.4144 17.484 42.6363 18.0053 42.6691L18.0242 42.3697C17.5757 42.3414 17.153 42.1506 16.8353 41.8329L16.6232 42.045ZM5.14439 30.5664L16.6232 42.045L16.8353 41.8329L5.35652 30.3543L5.14439 30.5664ZM5.12 29.1703C4.75075 29.5663 4.76153 30.1836 5.14439 30.5664L5.35652 30.3543C5.08794 30.0857 5.08037 29.6527 5.33941 29.3749L5.12 29.1703ZM8.52011 27.4936C6.98494 27.6643 5.78304 28.4592 5.12 29.1703L5.33941 29.3749C5.96178 28.7075 7.10052 27.9533 8.55326 27.7918L8.52011 27.4936ZM13.7103 29.5083C11.918 27.8206 10.1047 27.3174 8.52011 27.4936L8.55326 27.7918C10.0406 27.6264 11.7689 28.0923 13.5047 29.7267L13.7103 29.5083ZM15.5048 31.2965C15.0094 30.7732 14.4208 30.1772 13.7103 29.5083L13.5047 29.7267C14.2105 30.3913 14.7951 30.9831 15.2869 31.5028L15.5048 31.2965ZM15.95 30.2415C15.7643 30.4594 15.4687 30.8396 15.2576 31.3415L15.5341 31.4578C15.7282 30.9963 16.0018 30.6431 16.1783 30.4361L15.95 30.2415ZM16.6912 29.8887C16.4052 29.8954 16.1356 30.0238 15.95 30.2415L16.1783 30.4361C16.3085 30.2834 16.4976 30.1933 16.6983 30.1886L16.6912 29.8887ZM25.6095 29.6784L16.6912 29.8887L16.6983 30.1886L25.6166 29.9783L25.6095 29.6784ZM29.7407 28.3719C27.6847 28.7363 26.237 29.3165 25.5411 29.6967L25.6849 29.96C26.3481 29.5976 27.764 29.0269 29.793 28.6673L29.7407 28.3719ZM33.6754 28.9321C32.5334 28.4752 31.1171 28.128 29.7407 28.3719L29.793 28.6673C31.0907 28.4373 32.4458 28.7633 33.564 29.2106L33.6754 28.9321ZM36.4083 30.4683C35.8247 30.0169 34.8311 29.3944 33.6754 28.9321L33.564 29.2106C34.6917 29.6618 35.6613 30.2698 36.2248 30.7056L36.4083 30.4683ZM36.5042 30.5526C36.474 30.5225 36.442 30.4943 36.4083 30.4683L36.2248 30.7056C36.2485 30.7239 36.2709 30.7436 36.292 30.7647L36.5042 30.5526ZM44.8556 38.9039L36.5042 30.5526L36.292 30.7647L44.6435 39.1161L44.8556 38.9039ZM44.8556 40.3253C45.2481 39.9328 45.2481 39.2964 44.8556 38.9039L44.6435 39.1161C44.9188 39.3914 44.9188 39.8378 44.6435 40.1132L44.8556 40.3253ZM43.4342 40.3253C43.8267 40.7178 44.4631 40.7178 44.8556 40.3253L44.6435 40.1132C44.3681 40.3885 43.9217 40.3885 43.6463 40.1132L43.4342 40.3253ZM35.1226 32.0139L43.4342 40.3253L43.6463 40.1132L35.3347 31.8018L35.1226 32.0139ZM32.9287 30.7984C33.8688 31.1745 34.6808 31.6806 35.138 32.0273L35.3193 31.7883C34.8428 31.4269 34.0076 30.9069 33.0402 30.5199L32.9287 30.7984ZM30.0915 30.3512C30.9399 30.2009 31.9463 30.4054 32.9287 30.7984L33.0402 30.5199C32.0339 30.1173 30.9664 29.8915 30.0391 30.0558L30.0915 30.3512ZM26.3973 31.5235C26.6817 31.3407 27.9561 30.7297 30.0915 30.3512L30.0391 30.0558C27.877 30.439 26.562 31.0609 26.2351 31.2711L26.3973 31.5235ZM25.8775 31.6828C26.0621 31.6784 26.2419 31.6233 26.3973 31.5235L26.2351 31.2711C26.1261 31.3412 25.9999 31.3798 25.8704 31.3829L25.8775 31.6828ZM17.1504 31.8886L25.8775 31.6828L25.8704 31.3829L17.1433 31.5887L17.1504 31.8886ZM17.0335 32.3667C17.0716 32.1753 17.1626 31.9886 17.2724 31.8207L17.0213 31.6565C16.8991 31.8434 16.7874 32.0663 16.7393 32.3082L17.0335 32.3667ZM17.442 33.4218C17.2137 33.1817 17.1021 32.976 17.0517 32.8054C17.0016 32.6358 17.0088 32.491 17.0335 32.3667L16.7393 32.3082C16.7074 32.4687 16.6971 32.6642 16.764 32.8905C16.8306 33.1158 16.9708 33.3616 17.2246 33.6285L17.442 33.4218ZM18.08 33.9759C17.8555 33.8016 17.6271 33.6147 17.4415 33.4213L17.2251 33.629C17.4266 33.839 17.6694 34.037 17.8959 34.2129L18.08 33.9759ZM18.2041 34.0717C18.1613 34.0388 18.1188 34.0061 18.0799 33.9759L17.8959 34.2129C17.9355 34.2436 17.9786 34.2767 18.0212 34.3095L18.2041 34.0717ZM18.3612 34.1931C18.3141 34.1562 18.2588 34.1138 18.2041 34.0717L18.0212 34.3095C18.0763 34.3518 18.1304 34.3934 18.1763 34.4293L18.3612 34.1931ZM24.9004 34.3098L18.2721 34.1612L18.2654 34.4612L24.8937 34.6097L24.9004 34.3098ZM25.8828 35.3372C25.8952 34.7822 25.4554 34.3223 24.9004 34.3098L24.8937 34.6097C25.283 34.6185 25.5916 34.9411 25.5828 35.3304L25.8828 35.3372ZM24.8554 36.3195C25.4103 36.3319 25.8703 35.8921 25.8828 35.3372L25.5828 35.3304C25.5741 35.7198 25.2514 36.0283 24.8621 36.0196L24.8554 36.3195ZM17.918 36.164L24.8554 36.3195L24.8621 36.0196L17.9247 35.864L17.918 36.164ZM17.1934 35.8315C17.3782 36.0368 17.6401 36.1577 17.918 36.164L17.9247 35.864C17.7298 35.8597 17.546 35.7748 17.4164 35.6308L17.1934 35.8315ZM17.1434 35.7927C17.1813 35.8227 17.2005 35.8392 17.2074 35.8452L17.4024 35.6172C17.3938 35.6098 17.3715 35.5907 17.3296 35.5574L17.1434 35.7927ZM16.9969 35.6792C17.0528 35.7221 17.0987 35.7573 17.1434 35.7927L17.3296 35.5574C17.2828 35.5204 17.2351 35.4838 17.1796 35.4412L16.9969 35.6792ZM16.847 35.5636C16.9048 35.6085 16.9537 35.646 16.9969 35.6792L17.1796 35.4412C17.1364 35.408 17.0881 35.371 17.031 35.3266L16.847 35.5636ZM15.9894 34.8113C16.282 35.1165 16.6077 35.3778 16.847 35.5636L17.031 35.3266C16.794 35.1426 16.4826 34.8923 16.2059 34.6037L15.9894 34.8113ZM15.1869 33.9303C15.4743 34.2532 15.7322 34.543 15.9894 34.8113L16.2059 34.6037C15.9533 34.3402 15.6992 34.0547 15.411 33.7309L15.1869 33.9303ZM12.3323 30.9718C13.6992 32.2589 14.5258 33.1876 15.1869 33.9303L15.411 33.7309C14.7481 32.9861 13.9145 32.0496 12.5379 30.7534L12.3323 30.9718ZM8.74224 29.4915C9.67629 29.3876 10.9195 29.6415 12.3323 30.9718L12.5379 30.7534C11.0684 29.3696 9.74009 29.0787 8.70909 29.1933L8.74224 29.4915ZM7.20365 30.041C7.61233 29.7807 8.13925 29.5585 8.74224 29.4915L8.70909 29.1933C8.05322 29.2662 7.48311 29.5074 7.04252 29.7879L7.20365 30.041Z" fill="#393939"/>
</svg>
