<svg width="50" height="50" viewBox="0 0 50 50" fill="none" xmlns="http://www.w3.org/2000/svg">
<path d="M11.7598 27.6753C11.6726 29.988 10.7933 31.0479 9.92115 31.2888H6.21463L6.43266 42.2738H9.92115C9.92115 42.2738 8.831 40.1539 8.28592 40.2503L9.92115 34.7578C9.92115 34.7578 17.9737 37.3595 19.0638 26.8081C19.0638 26.8081 20.2488 26.8081 22.0072 28.0242M13.5381 35.007V42.2738H17.0266C17.0266 42.2738 15.9365 40.1539 15.3914 40.2503L16.498 35.6948C18.3512 35.4938 21.8328 32.9287 22.0072 28.0242M22.0072 28.0242C22.634 28.4577 23.3337 29.0458 24.0785 29.8434C25.9318 31.2888 26.6835 30.4275 27.131 30.8552L29.4203 42.2738H32.5817C32.5817 42.2738 31.5642 40.2985 31.0555 40.2503C30.7191 36.563 30.9001 33.3773 31.4008 30.661C32.8332 31.113 36.8785 29.9357 37.9527 27.2867C39.0268 24.6377 39.7857 19.7458 40.5377 17.223C41.6526 17.5383 43.9843 17.4995 44.846 16.8799C46.1385 15.9504 46.5693 14.9877 47.0001 13.0956L43.5535 12.6225C43.5535 12.6225 42.6919 11.2034 41.8301 10.7304C40.9684 10.2573 39.2451 10.2573 39.2451 10.2573C39.6759 7.41912 37.9527 6 37.9527 6C36.8054 8.21411 34.5149 14.4767 31.0555 17.223C27.5961 19.9692 20.0845 18.0382 14.9028 20.343C12.5333 22.1845 9.21917 26.3406 2.62443 26.3406C-0.391391 26.3406 8.31321 29.6519 11.7599 27.2867M32.5817 30.7332L34.7912 41.9508H37.9527C37.9527 41.9508 36.9352 39.9755 36.4264 39.9273C36.09 36.2399 36.5401 31.3692 37.0408 28.6529" stroke="#393939" stroke-width="2" stroke-linecap="round" stroke-linejoin="round"/>
<path d="M31.2023 22.7383L39.3406 23.7229" stroke="#393939" stroke-width="2" stroke-linejoin="round"/>
<path d="M23 23.8421V19.1053C28.2706 19.5263 30.5294 18.2018 31 17.5V23.8421C30.6863 24.8947 29.8706 27 27.2353 27C24.6 27 23.1569 24.8947 23 23.8421Z" fill="#393939" stroke="#393939" stroke-width="2" stroke-linejoin="round"/>
<path d="M25.9363 30.6146L26.415 26.6763" stroke="#393939" stroke-width="2" stroke-linejoin="round"/>
<path d="M26.9999 20L26.9999 26" stroke="white" stroke-width="1.7" stroke-linejoin="round"/>
<path d="M23.9999 23L29.9999 23" stroke="white" stroke-width="1.7" stroke-linejoin="round"/>
</svg>
