<?xml version="1.0" encoding="utf-8"?>
<!-- Generator: Adobe Illustrator 26.0.3, SVG Export Plug-In . SVG Version: 6.00 Build 0)  -->
<svg version="1.1" id="Capa_1" xmlns="http://www.w3.org/2000/svg" xmlns:xlink="http://www.w3.org/1999/xlink" x="0px" y="0px"
	 viewBox="0 0 95 80" style="enable-background:new 0 0 95 80;" xml:space="preserve">
<style type="text/css">
	.st0{opacity:0.6;}
	.st1{fill:#FFFEFC;}
	.st2{fill:url(#SVGID_1_);fill-opacity:0.9;}
	.st3{fill:url(#SVGID_00000002358078790498655840000000913766928092775053_);fill-opacity:0.9;}
	.st4{fill:url(#SVGID_00000093880804644976918920000012125170674396843164_);fill-opacity:0.9;}
	.st5{fill:url(#SVGID_00000078045089554098866040000013820693879203945866_);fill-opacity:0.9;}
	.st6{fill:#C6F6E3;}
	.st7{fill:url(#SVGID_00000016756652404686422590000016022372769522535345_);fill-opacity:0.6;}
	.st8{fill:url(#SVGID_00000115516585772505376820000006121274629035227290_);fill-opacity:0.6;}
	.st9{fill:url(#SVGID_00000073000036737886266430000016897273532483004842_);fill-opacity:0.6;}
	.st10{fill:url(#SVGID_00000136409211871429065700000003960987068120596647_);fill-opacity:0.6;}
	.st11{fill:url(#SVGID_00000134968158982245940850000003230556492115230363_);fill-opacity:0.9;}
	.st12{fill:url(#SVGID_00000008148282052052050380000006929388076330839968_);fill-opacity:0.9;}
	.st13{fill:url(#SVGID_00000065760330312180661240000004315919172471773338_);fill-opacity:0.9;}
	.st14{fill:url(#SVGID_00000050640854245830672970000001800285034617671081_);fill-opacity:0.9;}
	.st15{fill:url(#SVGID_00000077285715457390489990000015724583331099672474_);fill-opacity:0.6;}
	.st16{fill:url(#SVGID_00000133495607094827112100000012484920864299386787_);fill-opacity:0.6;}
	.st17{fill:url(#SVGID_00000062911889652503693160000008543071900452886680_);fill-opacity:0.6;}
	.st18{fill:url(#SVGID_00000163772440999262798230000013964216142572977336_);fill-opacity:0.6;}
	.st19{fill:url(#SVGID_00000088820340825442892070000011016816206657859234_);fill-opacity:0.9;}
	.st20{fill:url(#SVGID_00000068668908237444436330000008007231409177235621_);fill-opacity:0.9;}
	.st21{fill:url(#SVGID_00000049928217122172220270000006204486434058181507_);fill-opacity:0.9;}
	.st22{fill:url(#SVGID_00000090260771653192475510000002397103769501098907_);fill-opacity:0.9;}
	.st23{fill:url(#SVGID_00000140717533781715940930000014556459049319162249_);fill-opacity:0.6;}
	.st24{fill:url(#SVGID_00000122692518587938829970000007172920154643278523_);fill-opacity:0.6;}
	.st25{fill:url(#SVGID_00000072967666841915154050000013372314611266861247_);fill-opacity:0.6;}
	.st26{fill:url(#SVGID_00000057130946785704793520000004474617704981220257_);fill-opacity:0.6;}
	.st27{fill:url(#SVGID_00000162320599557414920210000013442292044031388816_);fill-opacity:0.9;}
	.st28{fill:url(#SVGID_00000031907781549975009340000011995517609501696388_);fill-opacity:0.9;}
	.st29{fill:url(#SVGID_00000183238741395519739250000005457586133811024284_);fill-opacity:0.9;}
	.st30{fill:url(#SVGID_00000072256002976217527320000008389743749708051099_);fill-opacity:0.9;}
	.st31{fill:url(#SVGID_00000164472956166195015330000004505940344112758191_);fill-opacity:0.6;}
	.st32{fill:url(#SVGID_00000067206583856683366510000015090809823356259217_);fill-opacity:0.6;}
	.st33{fill:url(#SVGID_00000029755290727461061950000011402403493662929077_);fill-opacity:0.6;}
	.st34{fill:url(#SVGID_00000048459779830521482120000009642584714180226960_);fill-opacity:0.6;}
	.st35{fill:#A6E8CD;stroke:#393939;stroke-width:2.1818;stroke-linecap:round;stroke-linejoin:round;}
	.st36{fill:#FFFEFC;stroke:#393939;stroke-width:2.1818;stroke-linecap:round;stroke-linejoin:round;}
	.st37{fill:none;stroke:#393939;stroke-width:2.9091;stroke-miterlimit:4;}
	.st38{fill:#FF1E57;}
	.st39{fill:none;stroke:#393939;stroke-width:2.1818;stroke-linecap:round;stroke-linejoin:round;}
	.st40{fill:none;stroke:#FF1E57;stroke-width:3.6364;stroke-linecap:round;stroke-linejoin:round;}
	.st41{fill:#FFFFFF;stroke:#393939;stroke-width:1.4546;stroke-linecap:round;stroke-linejoin:round;}
</style>
<image style="overflow:visible;" width="4570" height="2148" xlink:href="../puppies_valentines.png"  transform="matrix(1 0 0 1 -1870.3301 -2404.9758)">
</image>
<g class="st0">
	<g>
		<path class="st1" d="M-72.8-3263.7c-12-10.1-29.8-8.4-39.7,3.6l-4.9,6l-5.9-5c-12-10-29.8-8.4-39.7,3.6c-9.9,12.1-8.3,30,3.7,40
			l5.9,5l43.4,36.4l36-43.7l4.9-6C-59.1-3235.7-60.8-3253.6-72.8-3263.7z"/>
		
			<linearGradient id="SVGID_1_" gradientUnits="userSpaceOnUse" x1="241.1793" y1="-2765.2554" x2="288.2593" y2="-2855.5007" gradientTransform="matrix(1 0 0 -1 -375.5 -6039.8608)">
			<stop  offset="0" style="stop-color:#00AD66"/>
			<stop  offset="1.000000e-04" style="stop-color:#00AD66"/>
			<stop  offset="1" style="stop-color:#91F0C9"/>
		</linearGradient>
		<path class="st2" d="M-72.8-3263.7c-12-10.1-29.8-8.4-39.7,3.6l-4.9,6l-5.9-5c-12-10-29.8-8.4-39.7,3.6c-9.9,12.1-8.3,30,3.7,40
			l5.9,5l43.4,36.4l36-43.7l4.9-6C-59.1-3235.7-60.8-3253.6-72.8-3263.7z"/>
	</g>
	<g>
		<path class="st1" d="M-125.7-2972.3c-3-15-17.6-24.6-32.5-21.5l-7.4,1.5l-1.5-7.4c-3-15-17.6-24.6-32.5-21.5
			c-15,3.1-24.6,17.8-21.6,32.8l1.5,7.4l10.9,54.3l54.2-11.4l7.4-1.5C-132.3-2942.6-122.6-2957.3-125.7-2972.3z"/>
		
			<linearGradient id="SVGID_00000163065403940291773200000018187228648864735924_" gradientUnits="userSpaceOnUse" x1="209.543" y1="-3021.603" x2="190.3329" y2="-3119.2791" gradientTransform="matrix(1 0 0 -1 -375.5 -6039.8608)">
			<stop  offset="0" style="stop-color:#00AD66"/>
			<stop  offset="1.000000e-04" style="stop-color:#00AD66"/>
			<stop  offset="1" style="stop-color:#91F0C9"/>
		</linearGradient>
		<path style="fill:url(#SVGID_00000163065403940291773200000018187228648864735924_);fill-opacity:0.9;" d="M-125.7-2972.3
			c-3-15-17.6-24.6-32.5-21.5l-7.4,1.5l-1.5-7.4c-3-15-17.6-24.6-32.5-21.5c-15,3.1-24.6,17.8-21.6,32.8l1.5,7.4l10.9,54.3
			l54.2-11.4l7.4-1.5C-132.3-2942.6-122.6-2957.3-125.7-2972.3z"/>
	</g>
	<g>
		<path class="st1" d="M-34.1-2930c-5.2-9.1-16.8-12.2-25.8-7l-4.5,2.6l-2.6-4.5c-5.2-9.1-16.8-12.2-25.8-7
			c-9.1,5.3-12.2,16.9-7,26.1l2.6,4.5l18.8,33l32.8-19.1l4.5-2.6C-32-2909.2-28.9-2920.9-34.1-2930z"/>
		
			<linearGradient id="SVGID_00000170980584659911707530000002927432650799108746_" gradientUnits="userSpaceOnUse" x1="305.2566" y1="-3088.6035" x2="313.8367" y2="-3156.3596" gradientTransform="matrix(1 0 0 -1 -375.5 -6039.8608)">
			<stop  offset="0" style="stop-color:#00AD66"/>
			<stop  offset="1.000000e-04" style="stop-color:#00AD66"/>
			<stop  offset="1" style="stop-color:#91F0C9"/>
		</linearGradient>
		<path style="fill:url(#SVGID_00000170980584659911707530000002927432650799108746_);fill-opacity:0.9;" d="M-34.1-2930
			c-5.2-9.1-16.8-12.2-25.8-7l-4.5,2.6l-2.6-4.5c-5.2-9.1-16.8-12.2-25.8-7c-9.1,5.3-12.2,16.9-7,26.1l2.6,4.5l18.8,33l32.8-19.1
			l4.5-2.6C-32-2909.2-28.9-2920.9-34.1-2930z"/>
	</g>
	<g>
		<path class="st1" d="M-143-3166.3c-13.5-7.9-30.7-3.3-38.5,10.2l-3.8,6.7l-6.7-3.9c-13.5-7.9-30.7-3.3-38.5,10.2
			c-7.8,13.5-3.1,30.9,10.4,38.8l6.7,3.9l48.8,28.6l28.1-49l3.8-6.7C-124.9-3141.1-129.5-3158.5-143-3166.3z"/>
		
			<linearGradient id="SVGID_00000173858490717669066240000007571453026181063829_" gradientUnits="userSpaceOnUse" x1="170.0406" y1="-2873.0542" x2="231.4906" y2="-2954.0129" gradientTransform="matrix(1 0 0 -1 -375.5 -6039.8608)">
			<stop  offset="0" style="stop-color:#00AD66"/>
			<stop  offset="1.000000e-04" style="stop-color:#00AD66"/>
			<stop  offset="1" style="stop-color:#91F0C9"/>
		</linearGradient>
		<path style="fill:url(#SVGID_00000173858490717669066240000007571453026181063829_);fill-opacity:0.9;" d="M-143-3166.3
			c-13.5-7.9-30.7-3.3-38.5,10.2l-3.8,6.7l-6.7-3.9c-13.5-7.9-30.7-3.3-38.5,10.2c-7.8,13.5-3.1,30.9,10.4,38.8l6.7,3.9l48.8,28.6
			l28.1-49l3.8-6.7C-124.9-3141.1-129.5-3158.5-143-3166.3z"/>
	</g>
	<g>
		<path class="st6" d="M-35.8-3140.6c-2.7-8.5-11.8-13.2-20.3-10.4l-4.2,1.4l-1.3-4.2c-2.7-8.5-11.8-13.2-20.3-10.4
			c-8.5,2.8-13.2,12-10.4,20.5l1.3,4.2l9.9,30.9l30.7-10.1l4.2-1.4C-37.8-3122.9-33.1-3132.1-35.8-3140.6z"/>
		
			<linearGradient id="SVGID_00000024695612843301887310000012380726285825807542_" gradientUnits="userSpaceOnUse" x1="308.355" y1="-2879.6958" x2="315.245" y2="-2920.8975" gradientTransform="matrix(1 0 0 -1 -375.5 -6039.8608)">
			<stop  offset="0" style="stop-color:#00AD66"/>
			<stop  offset="1" style="stop-color:#86FBD3"/>
		</linearGradient>
		<path style="fill:url(#SVGID_00000024695612843301887310000012380726285825807542_);fill-opacity:0.6;" d="M-35.8-3140.6
			c-2.7-8.5-11.8-13.2-20.3-10.4l-4.2,1.4l-1.3-4.2c-2.7-8.5-11.8-13.2-20.3-10.4c-8.5,2.8-13.2,12-10.4,20.5l1.3,4.2l9.9,30.9
			l30.7-10.1l4.2-1.4C-37.8-3122.9-33.1-3132.1-35.8-3140.6z"/>
	</g>
	<g>
		<path class="st6" d="M-223.5-3089.8c-8.3-3.4-17.7,0.5-21.1,8.8l-1.7,4.1l-4.1-1.7c-8.3-3.4-17.7,0.5-21.1,8.8
			c-3.4,8.3,0.6,17.8,8.9,21.2l4.1,1.7l29.9,12.5l12.2-30l1.7-4.1C-211.3-3076.8-215.3-3086.4-223.5-3089.8z"/>
		
			<linearGradient id="SVGID_00000175300254296253420510000014275599039805581738_" gradientUnits="userSpaceOnUse" x1="116.7615" y1="-2961.2556" x2="152.6116" y2="-2982.6985" gradientTransform="matrix(1 0 0 -1 -375.5 -6039.8608)">
			<stop  offset="0" style="stop-color:#00AD66"/>
			<stop  offset="1" style="stop-color:#86FBD3"/>
		</linearGradient>
		<path style="fill:url(#SVGID_00000175300254296253420510000014275599039805581738_);fill-opacity:0.6;" d="M-223.5-3089.8
			c-8.3-3.4-17.7,0.5-21.1,8.8l-1.7,4.1l-4.1-1.7c-8.3-3.4-17.7,0.5-21.1,8.8c-3.4,8.3,0.6,17.8,8.9,21.2l4.1,1.7l29.9,12.5l12.2-30
			l1.7-4.1C-211.3-3076.8-215.3-3086.4-223.5-3089.8z"/>
	</g>
	<g>
		<path class="st6" d="M-262.5-2971.3c-6.4-6.3-16.6-6.1-22.8,0.4l-3.1,3.2l-3.2-3.1c-6.4-6.3-16.6-6.1-22.8,0.4
			c-6.2,6.4-6,16.7,0.4,23l3.2,3.1l23.2,22.6l22.4-23.4l3-3.2C-255.9-2954.7-256.1-2965-262.5-2971.3z"/>
		
			<linearGradient id="SVGID_00000045598738466551395690000005403749470424732574_" gradientUnits="userSpaceOnUse" x1="76.1749" y1="-3065.9729" x2="101.5549" y2="-3099.157" gradientTransform="matrix(1 0 0 -1 -375.5 -6039.8608)">
			<stop  offset="0" style="stop-color:#00AD66"/>
			<stop  offset="1" style="stop-color:#86FBD3"/>
		</linearGradient>
		<path style="fill:url(#SVGID_00000045598738466551395690000005403749470424732574_);fill-opacity:0.6;" d="M-262.5-2971.3
			c-6.4-6.3-16.6-6.1-22.8,0.4l-3.1,3.2l-3.2-3.1c-6.4-6.3-16.6-6.1-22.8,0.4c-6.2,6.4-6,16.7,0.4,23l3.2,3.1l23.2,22.6l22.4-23.4
			l3-3.2C-255.9-2954.7-256.1-2965-262.5-2971.3z"/>
	</g>
	<g>
		<path class="st6" d="M-46.6-3058.7c-4.4-13.2-18.6-20.3-31.8-15.8l-6.5,2.2l-2.2-6.5c-4.4-13.2-18.6-20.3-31.8-15.8
			c-13.2,4.5-20.3,18.9-15.9,32.1l2.2,6.5l15.9,47.9l47.8-16.3l6.5-2.2C-49.4-3031.1-42.2-3045.4-46.6-3058.7z"/>
		
			<linearGradient id="SVGID_00000047742937355269154730000011025154665276063155_" gradientUnits="userSpaceOnUse" x1="279.8161" y1="-2951.1709" x2="291.1562" y2="-3015.2539" gradientTransform="matrix(1 0 0 -1 -375.5 -6039.8608)">
			<stop  offset="0" style="stop-color:#00AD66"/>
			<stop  offset="1" style="stop-color:#86FBD3"/>
		</linearGradient>
		<path style="fill:url(#SVGID_00000047742937355269154730000011025154665276063155_);fill-opacity:0.6;" d="M-46.6-3058.7
			c-4.4-13.2-18.6-20.3-31.8-15.8l-6.5,2.2l-2.2-6.5c-4.4-13.2-18.6-20.3-31.8-15.8c-13.2,4.5-20.3,18.9-15.9,32.1l2.2,6.5
			l15.9,47.9l47.8-16.3l6.5-2.2C-49.4-3031.1-42.2-3045.4-46.6-3058.7z"/>
	</g>
</g>
<g id="NUL8KI.tif">
	
		<image style="overflow:visible;" width="3840" height="566" id="Layer_0_00000039850005245503911380000003876617920421219472_" xlink:href="B72DBB193302A9EA.png"  transform="matrix(1 0 0 1 -1878.4484 -4647.0894)">
	</image>
</g>
<g class="st0">
	<g>
		<path class="st1" d="M-1720.6-4189.7c24.1-20.2,59.9-17,79.9,7.3l9.9,12l11.9-10c24.1-20.2,59.9-16.9,79.9,7.3s16.6,60.4-7.5,80.6
			l-11.9,10l-87.4,73.3l-72.4-87.9l-9.9-12C-1748.1-4133.4-1744.8-4169.5-1720.6-4189.7z"/>
		
			<linearGradient id="SVGID_00000085224557198163674710000001016295039645757594_" gradientUnits="userSpaceOnUse" x1="3381.9561" y1="-1828.1417" x2="3287.1729" y2="-2009.8374" gradientTransform="matrix(1 0 0 -1 -4978.6362 -6039.8608)">
			<stop  offset="0" style="stop-color:#00AD66"/>
			<stop  offset="1.000000e-04" style="stop-color:#00AD66"/>
			<stop  offset="1" style="stop-color:#91F0C9"/>
		</linearGradient>
		<path style="fill:url(#SVGID_00000085224557198163674710000001016295039645757594_);fill-opacity:0.9;" d="M-1720.6-4189.7
			c24.1-20.2,59.9-17,79.9,7.3l9.9,12l11.9-10c24.1-20.2,59.9-16.9,79.9,7.3s16.6,60.4-7.5,80.6l-11.9,10l-87.4,73.3l-72.4-87.9
			l-9.9-12C-1748.1-4133.4-1744.8-4169.5-1720.6-4189.7z"/>
	</g>
	<g>
		<path class="st1" d="M-1614.1-3603c6.1-30.2,35.4-49.6,65.5-43.2l14.9,3.1l3-14.9c6.1-30.2,35.4-49.6,65.5-43.2
			c30.1,6.3,49.6,35.9,43.5,66.1l-3,14.9l-22,109.4l-109-22.9l-14.9-3.1C-1600.7-3543.2-1620.2-3572.8-1614.1-3603z"/>
		
			<linearGradient id="SVGID_00000085245603372041240510000010671083040689414825_" gradientUnits="userSpaceOnUse" x1="3445.6541" y1="-2344.2615" x2="3484.3328" y2="-2540.9177" gradientTransform="matrix(1 0 0 -1 -4978.6362 -6039.8608)">
			<stop  offset="0" style="stop-color:#00AD66"/>
			<stop  offset="1.000000e-04" style="stop-color:#00AD66"/>
			<stop  offset="1" style="stop-color:#91F0C9"/>
		</linearGradient>
		<path style="fill:url(#SVGID_00000085245603372041240510000010671083040689414825_);fill-opacity:0.9;" d="M-1614.1-3603
			c6.1-30.2,35.4-49.6,65.5-43.2l14.9,3.1l3-14.9c6.1-30.2,35.4-49.6,65.5-43.2c30.1,6.3,49.6,35.9,43.5,66.1l-3,14.9l-22,109.4
			l-109-22.9l-14.9-3.1C-1600.7-3543.2-1620.2-3572.8-1614.1-3603z"/>
	</g>
	<g>
		<path class="st1" d="M-1798.5-3518c10.5-18.4,33.8-24.6,52-14l9,5.2l5.2-9.1c10.5-18.4,33.8-24.6,52-14s24.5,34.1,14.1,52.5
			l-5.2,9.1l-37.9,66.5l-66.1-38.4l-9-5.2C-1802.7-3476.1-1809-3499.6-1798.5-3518z"/>
		
			<linearGradient id="SVGID_00000079483985691553661780000005013690405605863351_" gradientUnits="userSpaceOnUse" x1="3252.9587" y1="-2479.1523" x2="3235.6726" y2="-2615.5691" gradientTransform="matrix(1 0 0 -1 -4978.6362 -6039.8608)">
			<stop  offset="0" style="stop-color:#00AD66"/>
			<stop  offset="1.000000e-04" style="stop-color:#00AD66"/>
			<stop  offset="1" style="stop-color:#91F0C9"/>
		</linearGradient>
		<path style="fill:url(#SVGID_00000079483985691553661780000005013690405605863351_);fill-opacity:0.9;" d="M-1798.5-3518
			c10.5-18.4,33.8-24.6,52-14l9,5.2l5.2-9.1c10.5-18.4,33.8-24.6,52-14s24.5,34.1,14.1,52.5l-5.2,9.1l-37.9,66.5l-66.1-38.4l-9-5.2
			C-1802.7-3476.1-1809-3499.6-1798.5-3518z"/>
	</g>
	<g>
		<path class="st1" d="M-1579.1-3993.7c27.1-15.9,61.8-6.7,77.4,20.6l7.7,13.4l13.4-7.8c27.2-15.9,61.8-6.6,77.4,20.6
			c15.6,27.3,6.3,62.2-20.9,78.1l-13.4,7.8l-98.3,57.5l-56.6-98.7l-7.7-13.4C-1615.6-3942.9-1606.3-3977.9-1579.1-3993.7z"/>
		
			<linearGradient id="SVGID_00000020358786533889316890000003407390952461517481_" gradientUnits="userSpaceOnUse" x1="3525.1917" y1="-2045.1801" x2="3401.4692" y2="-2208.1782" gradientTransform="matrix(1 0 0 -1 -4978.6362 -6039.8608)">
			<stop  offset="0" style="stop-color:#00AD66"/>
			<stop  offset="1.000000e-04" style="stop-color:#00AD66"/>
			<stop  offset="1" style="stop-color:#91F0C9"/>
		</linearGradient>
		<path style="fill:url(#SVGID_00000020358786533889316890000003407390952461517481_);fill-opacity:0.9;" d="M-1579.1-3993.7
			c27.1-15.9,61.8-6.7,77.4,20.6l7.7,13.4l13.4-7.8c27.2-15.9,61.8-6.6,77.4,20.6c15.6,27.3,6.3,62.2-20.9,78.1l-13.4,7.8
			l-98.3,57.5l-56.6-98.7l-7.7-13.4C-1615.6-3942.9-1606.3-3977.9-1579.1-3993.7z"/>
	</g>
	<g>
		<path class="st6" d="M-1795-3941.9c5.5-17.2,23.8-26.5,40.9-20.9l8.4,2.8l2.7-8.5c5.5-17.2,23.8-26.5,40.9-20.9
			c17.1,5.6,26.5,24.1,21,41.3l-2.7,8.5l-19.9,62.1l-61.9-20.4l-8.4-2.8C-1791.1-3906.3-1800.5-3924.8-1795-3941.9z"/>
		
			<linearGradient id="SVGID_00000161606482538732664990000015373489587286909361_" gradientUnits="userSpaceOnUse" x1="3246.7104" y1="-2058.5488" x2="3232.8379" y2="-2141.502" gradientTransform="matrix(1 0 0 -1 -4978.6362 -6039.8608)">
			<stop  offset="0" style="stop-color:#00AD66"/>
			<stop  offset="1" style="stop-color:#86FBD3"/>
		</linearGradient>
		<path style="fill:url(#SVGID_00000161606482538732664990000015373489587286909361_);fill-opacity:0.6;" d="M-1795-3941.9
			c5.5-17.2,23.8-26.5,40.9-20.9l8.4,2.8l2.7-8.5c5.5-17.2,23.8-26.5,40.9-20.9c17.1,5.6,26.5,24.1,21,41.3l-2.7,8.5l-19.9,62.1
			l-61.9-20.4l-8.4-2.8C-1791.1-3906.3-1800.5-3924.8-1795-3941.9z"/>
	</g>
	<g>
		<path class="st6" d="M-1417-3839.6c16.6-6.9,35.6,1,42.4,17.7l3.3,8.2l8.2-3.4c16.6-6.9,35.6,1,42.4,17.7
			c6.8,16.7-1.2,35.8-17.9,42.7l-8.2,3.4l-60.2,25.1l-24.5-60.4l-3.3-8.2C-1441.7-3813.6-1433.7-3832.7-1417-3839.6z"/>
		
			<linearGradient id="SVGID_00000029727925316350957150000008419675793541648543_" gradientUnits="userSpaceOnUse" x1="3632.4634" y1="-2222.7571" x2="3560.2849" y2="-2265.9292" gradientTransform="matrix(1 0 0 -1 -4978.6362 -6039.8608)">
			<stop  offset="0" style="stop-color:#00AD66"/>
			<stop  offset="1" style="stop-color:#86FBD3"/>
		</linearGradient>
		<path style="fill:url(#SVGID_00000029727925316350957150000008419675793541648543_);fill-opacity:0.6;" d="M-1417-3839.6
			c16.6-6.9,35.6,1,42.4,17.7l3.3,8.2l8.2-3.4c16.6-6.9,35.6,1,42.4,17.7c6.8,16.7-1.2,35.8-17.9,42.7l-8.2,3.4l-60.2,25.1
			l-24.5-60.4l-3.3-8.2C-1441.7-3813.6-1433.7-3832.7-1417-3839.6z"/>
	</g>
	<g>
		<path class="st6" d="M-1338.6-3601c12.9-12.6,33.5-12.3,45.9,0.7l6.2,6.4l6.4-6.2c12.9-12.6,33.5-12.3,45.9,0.7
			c12.5,13,12.1,33.7-0.8,46.3l-6.4,6.2l-46.7,45.6l-45.1-47l-6.2-6.4C-1351.9-3567.6-1351.5-3588.4-1338.6-3601z"/>
		
			<linearGradient id="SVGID_00000055703997282521555260000001979769571506219679_" gradientUnits="userSpaceOnUse" x1="3714.1677" y1="-2433.5959" x2="3663.0791" y2="-2500.407" gradientTransform="matrix(1 0 0 -1 -4978.6362 -6039.8608)">
			<stop  offset="0" style="stop-color:#00AD66"/>
			<stop  offset="1" style="stop-color:#86FBD3"/>
		</linearGradient>
		<path style="fill:url(#SVGID_00000055703997282521555260000001979769571506219679_);fill-opacity:0.6;" d="M-1338.6-3601
			c12.9-12.6,33.5-12.3,45.9,0.7l6.2,6.4l6.4-6.2c12.9-12.6,33.5-12.3,45.9,0.7c12.5,13,12.1,33.7-0.8,46.3l-6.4,6.2l-46.7,45.6
			l-45.1-47l-6.2-6.4C-1351.9-3567.6-1351.5-3588.4-1338.6-3601z"/>
	</g>
	<g>
		<path class="st6" d="M-1773.3-3777c8.8-26.7,37.5-40.9,64-31.9l13.1,4.5l4.4-13.2c8.8-26.7,37.5-40.9,64-31.9
			c26.5,9,40.9,38,32.1,64.6l-4.4,13.2l-31.9,96.5l-96.1-32.7l-13.1-4.5C-1767.7-3721.4-1782.1-3750.3-1773.3-3777z"/>
		
			<linearGradient id="SVGID_00000089560438893901560800000006035721654979089294_" gradientUnits="userSpaceOnUse" x1="3304.1709" y1="-2202.4534" x2="3281.3354" y2="-2331.4751" gradientTransform="matrix(1 0 0 -1 -4978.6362 -6039.8608)">
			<stop  offset="0" style="stop-color:#00AD66"/>
			<stop  offset="1" style="stop-color:#86FBD3"/>
		</linearGradient>
		<path style="fill:url(#SVGID_00000089560438893901560800000006035721654979089294_);fill-opacity:0.6;" d="M-1773.3-3777
			c8.8-26.7,37.5-40.9,64-31.9l13.1,4.5l4.4-13.2c8.8-26.7,37.5-40.9,64-31.9c26.5,9,40.9,38,32.1,64.6l-4.4,13.2l-31.9,96.5
			l-96.1-32.7l-13.1-4.5C-1767.7-3721.4-1782.1-3750.3-1773.3-3777z"/>
	</g>
</g>
<g class="st0">
	<g>
		<path class="st1" d="M860.9-4100.4l-9.9,12l-72.4,87.9l-87.4-73.3l-11.9-10c-24.1-20.2-27.5-56.3-7.5-80.6
			c20-24.3,55.8-27.6,79.9-7.3l11.9,10l9.9-12c20-24.3,55.8-27.6,79.9-7.3C877.6-4160.7,880.9-4124.6,860.9-4100.4z"/>
		
			<linearGradient id="SVGID_00000079460611937832038520000001558067519546328504_" gradientUnits="userSpaceOnUse" x1="5683.5239" y1="-1836.8597" x2="5588.7407" y2="-2018.5554" gradientTransform="matrix(-1 0 0 -1 6413.0435 -6039.8608)">
			<stop  offset="0" style="stop-color:#00AD66"/>
			<stop  offset="1.000000e-04" style="stop-color:#00AD66"/>
			<stop  offset="1" style="stop-color:#91F0C9"/>
		</linearGradient>
		<path style="fill:url(#SVGID_00000079460611937832038520000001558067519546328504_);fill-opacity:0.9;" d="M860.9-4100.4l-9.9,12
			l-72.4,87.9l-87.4-73.3l-11.9-10c-24.1-20.2-27.5-56.3-7.5-80.6c20-24.3,55.8-27.6,79.9-7.3l11.9,10l9.9-12
			c20-24.3,55.8-27.6,79.9-7.3C877.6-4160.7,880.9-4124.6,860.9-4100.4z"/>
	</g>
	<g>
		<path class="st1" d="M703.4-3528.2l-14.9,3.1l-109,22.9l-22-109.4l-3-14.9c-6.1-30.2,13.4-59.8,43.5-66.1
			c30.1-6.3,59.4,13,65.5,43.2l3,14.9l14.9-3.1c30.1-6.3,59.4,13,65.5,43.2C753-3564.1,733.6-3534.5,703.4-3528.2z"/>
		
			<linearGradient id="SVGID_00000041287909450872124520000003906948361547443883_" gradientUnits="userSpaceOnUse" x1="5747.2222" y1="-2352.9795" x2="5785.9009" y2="-2549.6357" gradientTransform="matrix(-1 0 0 -1 6413.0435 -6039.8608)">
			<stop  offset="0" style="stop-color:#00AD66"/>
			<stop  offset="1.000000e-04" style="stop-color:#00AD66"/>
			<stop  offset="1" style="stop-color:#91F0C9"/>
		</linearGradient>
		<path style="fill:url(#SVGID_00000041287909450872124520000003906948361547443883_);fill-opacity:0.9;" d="M703.4-3528.2
			l-14.9,3.1l-109,22.9l-22-109.4l-3-14.9c-6.1-30.2,13.4-59.8,43.5-66.1c30.1-6.3,59.4,13,65.5,43.2l3,14.9l14.9-3.1
			c30.1-6.3,59.4,13,65.5,43.2C753-3564.1,733.6-3534.5,703.4-3528.2z"/>
	</g>
	<g>
		<path class="st1" d="M917.3-3456.8l-9,5.2l-66.1,38.4l-37.9-66.5l-5.2-9.1c-10.5-18.4-4.2-41.8,14.1-52.5s41.5-4.3,52,14l5.2,9.1
			l9-5.2c18.2-10.6,41.5-4.3,52,14C941.8-3490.9,935.5-3467.4,917.3-3456.8z"/>
		
			<linearGradient id="SVGID_00000119827863153848085950000013670730096782357382_" gradientUnits="userSpaceOnUse" x1="5554.5269" y1="-2487.8704" x2="5537.2407" y2="-2624.2871" gradientTransform="matrix(-1 0 0 -1 6413.0435 -6039.8608)">
			<stop  offset="0" style="stop-color:#00AD66"/>
			<stop  offset="1.000000e-04" style="stop-color:#00AD66"/>
			<stop  offset="1" style="stop-color:#91F0C9"/>
		</linearGradient>
		<path style="fill:url(#SVGID_00000119827863153848085950000013670730096782357382_);fill-opacity:0.9;" d="M917.3-3456.8l-9,5.2
			l-66.1,38.4l-37.9-66.5l-5.2-9.1c-10.5-18.4-4.2-41.8,14.1-52.5s41.5-4.3,52,14l5.2,9.1l9-5.2c18.2-10.6,41.5-4.3,52,14
			C941.8-3490.9,935.5-3467.4,917.3-3456.8z"/>
	</g>
	<g>
		<path class="st1" d="M732.8-3906.9l-7.7,13.4l-56.6,98.7l-98.3-57.5l-13.4-7.8c-27.1-15.9-36.5-50.8-20.9-78.1
			s50.3-36.5,77.4-20.6l13.4,7.8l7.7-13.4c15.6-27.3,50.3-36.5,77.4-20.6C739.1-3969.1,748.5-3934.2,732.8-3906.9z"/>
		
			<linearGradient id="SVGID_00000076578391466709049660000003861042494218958247_" gradientUnits="userSpaceOnUse" x1="5826.7598" y1="-2053.8982" x2="5703.0371" y2="-2216.8962" gradientTransform="matrix(-1 0 0 -1 6413.0435 -6039.8608)">
			<stop  offset="0" style="stop-color:#00AD66"/>
			<stop  offset="1.000000e-04" style="stop-color:#00AD66"/>
			<stop  offset="1" style="stop-color:#91F0C9"/>
		</linearGradient>
		<path style="fill:url(#SVGID_00000076578391466709049660000003861042494218958247_);fill-opacity:0.9;" d="M732.8-3906.9
			l-7.7,13.4l-56.6,98.7l-98.3-57.5l-13.4-7.8c-27.1-15.9-36.5-50.8-20.9-78.1s50.3-36.5,77.4-20.6l13.4,7.8l7.7-13.4
			c15.6-27.3,50.3-36.5,77.4-20.6C739.1-3969.1,748.5-3934.2,732.8-3906.9z"/>
	</g>
	<g>
		<path class="st6" d="M906.8-3891.9l-8.4,2.8l-61.9,20.4l-19.9-62.1l-2.7-8.5c-5.5-17.2,3.9-35.6,21-41.3
			c17.1-5.6,35.4,3.7,40.9,20.9l2.7,8.5l8.4-2.8c17.1-5.6,35.4,3.7,40.9,20.9C933.3-3916,923.9-3897.6,906.8-3891.9z"/>
		
			<linearGradient id="SVGID_00000170278836450826134630000000999797293869339546_" gradientUnits="userSpaceOnUse" x1="5548.2783" y1="-2067.2668" x2="5534.4058" y2="-2150.22" gradientTransform="matrix(-1 0 0 -1 6413.0435 -6039.8608)">
			<stop  offset="0" style="stop-color:#00AD66"/>
			<stop  offset="1" style="stop-color:#86FBD3"/>
		</linearGradient>
		<path style="fill:url(#SVGID_00000170278836450826134630000000999797293869339546_);fill-opacity:0.6;" d="M906.8-3891.9l-8.4,2.8
			l-61.9,20.4l-19.9-62.1l-2.7-8.5c-5.5-17.2,3.9-35.6,21-41.3c17.1-5.6,35.4,3.7,40.9,20.9l2.7,8.5l8.4-2.8
			c17.1-5.6,35.4,3.7,40.9,20.9C933.3-3916,923.9-3897.6,906.8-3891.9z"/>
	</g>
	<g>
		<path class="st6" d="M567.7-3788.2l-3.3,8.2l-24.5,60.4l-60.2-25.1l-8.2-3.4c-16.6-6.9-24.6-26.1-17.9-42.7
			c6.8-16.7,25.8-24.6,42.4-17.7l8.2,3.4l3.3-8.2c6.8-16.7,25.8-24.6,42.4-17.7C566.5-3824,574.5-3804.8,567.7-3788.2z"/>
		
			<linearGradient id="SVGID_00000055676401516841734030000003911016345582021512_" gradientUnits="userSpaceOnUse" x1="5934.0312" y1="-2231.4751" x2="5861.853" y2="-2274.6472" gradientTransform="matrix(-1 0 0 -1 6413.0435 -6039.8608)">
			<stop  offset="0" style="stop-color:#00AD66"/>
			<stop  offset="1" style="stop-color:#86FBD3"/>
		</linearGradient>
		<path style="fill:url(#SVGID_00000055676401516841734030000003911016345582021512_);fill-opacity:0.6;" d="M567.7-3788.2l-3.3,8.2
			l-24.5,60.4l-60.2-25.1l-8.2-3.4c-16.6-6.9-24.6-26.1-17.9-42.7c6.8-16.7,25.8-24.6,42.4-17.7l8.2,3.4l3.3-8.2
			c6.8-16.7,25.8-24.6,42.4-17.7C566.5-3824,574.5-3804.8,567.7-3788.2z"/>
	</g>
	<g>
		<path class="st6" d="M472.2-3545.9l-6.2,6.4l-45.1,47l-46.7-45.6l-6.4-6.2c-12.9-12.6-13.2-33.3-0.8-46.3
			c12.5-13,33-13.3,45.9-0.7l6.4,6.2l6.2-6.4c12.5-13,33-13.3,45.9-0.7C484.4-3579.7,484.7-3558.9,472.2-3545.9z"/>
		
			<linearGradient id="SVGID_00000115504191714767353440000008612301389634474909_" gradientUnits="userSpaceOnUse" x1="6015.7358" y1="-2442.314" x2="5964.647" y2="-2509.125" gradientTransform="matrix(-1 0 0 -1 6413.0435 -6039.8608)">
			<stop  offset="0" style="stop-color:#00AD66"/>
			<stop  offset="1" style="stop-color:#86FBD3"/>
		</linearGradient>
		<path style="fill:url(#SVGID_00000115504191714767353440000008612301389634474909_);fill-opacity:0.6;" d="M472.2-3545.9l-6.2,6.4
			l-45.1,47l-46.7-45.6l-6.4-6.2c-12.9-12.6-13.2-33.3-0.8-46.3c12.5-13,33-13.3,45.9-0.7l6.4,6.2l6.2-6.4c12.5-13,33-13.3,45.9-0.7
			C484.4-3579.7,484.7-3558.9,472.2-3545.9z"/>
	</g>
	<g>
		<path class="st6" d="M874-3703.6l-13.1,4.5l-96.1,32.7l-31.9-96.5l-4.4-13.2c-8.8-26.7,5.5-55.6,32.1-64.6
			c26.5-9,55.2,5.2,64,31.9l4.4,13.2l13.1-4.5c26.5-9,55.2,5.2,64,31.9C914.9-3741.6,900.6-3712.7,874-3703.6z"/>
		
			<linearGradient id="SVGID_00000007430305666228855830000016394282092854365886_" gradientUnits="userSpaceOnUse" x1="5605.7388" y1="-2211.1714" x2="5582.9033" y2="-2340.1931" gradientTransform="matrix(-1 0 0 -1 6413.0435 -6039.8608)">
			<stop  offset="0" style="stop-color:#00AD66"/>
			<stop  offset="1" style="stop-color:#86FBD3"/>
		</linearGradient>
		<path style="fill:url(#SVGID_00000007430305666228855830000016394282092854365886_);fill-opacity:0.6;" d="M874-3703.6l-13.1,4.5
			l-96.1,32.7l-31.9-96.5l-4.4-13.2c-8.8-26.7,5.5-55.6,32.1-64.6c26.5-9,55.2,5.2,64,31.9l4.4,13.2l13.1-4.5
			c26.5-9,55.2,5.2,64,31.9C914.9-3741.6,900.6-3712.7,874-3703.6z"/>
	</g>
</g>
<g id="Vxmp8Q.tif">
	
		<image style="overflow:visible;" width="740" height="371" id="Layer_0_00000133531437687264358950000014295292763389203867_" xlink:href="B72DBB193302A9ED.png"  transform="matrix(1 0 0 1 -1834.4858 -3254.9639)">
	</image>
</g>
<g class="st0">
	<g>
		<path class="st1" d="M-780.3-3223.6l4.9,6l36,43.7l43.4-36.4l5.9-5c12-10,13.6-28,3.7-40c-9.9-12.1-27.7-13.7-39.7-3.6l-5.9,5
			l-4.9-6c-9.9-12.1-27.7-13.7-39.7-3.6C-788.6-3253.6-790.2-3235.7-780.3-3223.6z"/>
		
			<linearGradient id="SVGID_00000012450343843866881570000003666715870085207209_" gradientUnits="userSpaceOnUse" x1="740.1005" y1="-2765.2554" x2="787.1804" y2="-2855.5007" gradientTransform="matrix(-1 0 0 -1 25.0943 -6039.8608)">
			<stop  offset="0" style="stop-color:#00AD66"/>
			<stop  offset="1.000000e-04" style="stop-color:#00AD66"/>
			<stop  offset="1" style="stop-color:#91F0C9"/>
		</linearGradient>
		<path style="fill:url(#SVGID_00000012450343843866881570000003666715870085207209_);fill-opacity:0.9;" d="M-780.3-3223.6l4.9,6
			l36,43.7l43.4-36.4l5.9-5c12-10,13.6-28,3.7-40c-9.9-12.1-27.7-13.7-39.7-3.6l-5.9,5l-4.9-6c-9.9-12.1-27.7-13.7-39.7-3.6
			C-788.6-3253.6-790.2-3235.7-780.3-3223.6z"/>
	</g>
	<g>
		<path class="st1" d="M-702.1-2939.4l7.4,1.5l54.2,11.4l10.9-54.3l1.5-7.4c3-15-6.7-29.7-21.6-32.8c-14.9-3.1-29.5,6.5-32.5,21.5
			l-1.5,7.4l-7.4-1.5c-15-3.1-29.5,6.5-32.5,21.5C-726.7-2957.3-717-2942.6-702.1-2939.4z"/>
		
			<linearGradient id="SVGID_00000132084763158169950450000009629234431539552900_" gradientUnits="userSpaceOnUse" x1="708.4641" y1="-3021.603" x2="689.254" y2="-3119.2791" gradientTransform="matrix(-1 0 0 -1 25.0943 -6039.8608)">
			<stop  offset="0" style="stop-color:#00AD66"/>
			<stop  offset="1.000000e-04" style="stop-color:#00AD66"/>
			<stop  offset="1" style="stop-color:#91F0C9"/>
		</linearGradient>
		<path style="fill:url(#SVGID_00000132084763158169950450000009629234431539552900_);fill-opacity:0.9;" d="M-702.1-2939.4l7.4,1.5
			l54.2,11.4l10.9-54.3l1.5-7.4c3-15-6.7-29.7-21.6-32.8c-14.9-3.1-29.5,6.5-32.5,21.5l-1.5,7.4l-7.4-1.5
			c-15-3.1-29.5,6.5-32.5,21.5C-726.7-2957.3-717-2942.6-702.1-2939.4z"/>
	</g>
	<g>
		<path class="st1" d="M-808.3-2904l4.5,2.6l32.8,19.1l18.8-33l2.6-4.5c5.2-9.1,2.1-20.8-7-26.1c-9.1-5.3-20.6-2.2-25.8,7l-2.6,4.5
			l-4.5-2.6c-9.1-5.3-20.6-2.2-25.8,7C-820.5-2920.9-817.3-2909.2-808.3-2904z"/>
		
			<linearGradient id="SVGID_00000022553404886826062970000007108511878439762583_" gradientUnits="userSpaceOnUse" x1="804.1777" y1="-3088.6035" x2="812.7578" y2="-3156.3596" gradientTransform="matrix(-1 0 0 -1 25.0943 -6039.8608)">
			<stop  offset="0" style="stop-color:#00AD66"/>
			<stop  offset="1.000000e-04" style="stop-color:#00AD66"/>
			<stop  offset="1" style="stop-color:#91F0C9"/>
		</linearGradient>
		<path style="fill:url(#SVGID_00000022553404886826062970000007108511878439762583_);fill-opacity:0.9;" d="M-808.3-2904l4.5,2.6
			l32.8,19.1l18.8-33l2.6-4.5c5.2-9.1,2.1-20.8-7-26.1c-9.1-5.3-20.6-2.2-25.8,7l-2.6,4.5l-4.5-2.6c-9.1-5.3-20.6-2.2-25.8,7
			C-820.5-2920.9-817.3-2909.2-808.3-2904z"/>
	</g>
	<g>
		<path class="st1" d="M-716.7-3127.6l3.8,6.7l28.1,49l48.8-28.6l6.7-3.9c13.5-7.9,18.1-25.2,10.4-38.8c-7.8-13.5-25-18.1-38.5-10.2
			l-6.7,3.9l-3.8-6.7c-7.8-13.5-25-18.1-38.5-10.2C-719.8-3158.5-724.4-3141.1-716.7-3127.6z"/>
		
			<linearGradient id="SVGID_00000167379781238402157600000016818312001130463381_" gradientUnits="userSpaceOnUse" x1="668.9617" y1="-2873.0542" x2="730.4117" y2="-2954.0129" gradientTransform="matrix(-1 0 0 -1 25.0943 -6039.8608)">
			<stop  offset="0" style="stop-color:#00AD66"/>
			<stop  offset="1.000000e-04" style="stop-color:#00AD66"/>
			<stop  offset="1" style="stop-color:#91F0C9"/>
		</linearGradient>
		<path style="fill:url(#SVGID_00000167379781238402157600000016818312001130463381_);fill-opacity:0.9;" d="M-716.7-3127.6l3.8,6.7
			l28.1,49l48.8-28.6l6.7-3.9c13.5-7.9,18.1-25.2,10.4-38.8c-7.8-13.5-25-18.1-38.5-10.2l-6.7,3.9l-3.8-6.7
			c-7.8-13.5-25-18.1-38.5-10.2C-719.8-3158.5-724.4-3141.1-716.7-3127.6z"/>
	</g>
	<g>
		<path class="st6" d="M-803.1-3120.1l4.2,1.4l30.7,10.1l9.9-30.9l1.3-4.2c2.7-8.5-1.9-17.7-10.4-20.5c-8.5-2.8-17.6,1.8-20.3,10.4
			l-1.3,4.2l-4.2-1.4c-8.5-2.8-17.6,1.8-20.3,10.4C-816.2-3132.1-811.6-3122.9-803.1-3120.1z"/>
		
			<linearGradient id="SVGID_00000048461148802404915900000008615991907347259049_" gradientUnits="userSpaceOnUse" x1="807.2761" y1="-2879.6958" x2="814.1661" y2="-2920.8975" gradientTransform="matrix(-1 0 0 -1 25.0943 -6039.8608)">
			<stop  offset="0" style="stop-color:#00AD66"/>
			<stop  offset="1" style="stop-color:#86FBD3"/>
		</linearGradient>
		<path style="fill:url(#SVGID_00000048461148802404915900000008615991907347259049_);fill-opacity:0.6;" d="M-803.1-3120.1l4.2,1.4
			l30.7,10.1l9.9-30.9l1.3-4.2c2.7-8.5-1.9-17.7-10.4-20.5c-8.5-2.8-17.6,1.8-20.3,10.4l-1.3,4.2l-4.2-1.4
			c-8.5-2.8-17.6,1.8-20.3,10.4C-816.2-3132.1-811.6-3122.9-803.1-3120.1z"/>
	</g>
	<g>
		<path class="st6" d="M-634.6-3068.6l1.7,4.1l12.2,30l29.9-12.5l4.1-1.7c8.3-3.4,12.2-12.9,8.9-21.2c-3.4-8.3-12.8-12.2-21.1-8.8
			l-4.1,1.7l-1.7-4.1c-3.4-8.3-12.8-12.2-21.1-8.8C-634-3086.4-638-3076.8-634.6-3068.6z"/>
		
			<linearGradient id="SVGID_00000145057547975687857520000011937807573472349093_" gradientUnits="userSpaceOnUse" x1="615.6826" y1="-2961.2556" x2="651.5327" y2="-2982.6985" gradientTransform="matrix(-1 0 0 -1 25.0943 -6039.8608)">
			<stop  offset="0" style="stop-color:#00AD66"/>
			<stop  offset="1" style="stop-color:#86FBD3"/>
		</linearGradient>
		<path style="fill:url(#SVGID_00000145057547975687857520000011937807573472349093_);fill-opacity:0.6;" d="M-634.6-3068.6l1.7,4.1
			l12.2,30l29.9-12.5l4.1-1.7c8.3-3.4,12.2-12.9,8.9-21.2c-3.4-8.3-12.8-12.2-21.1-8.8l-4.1,1.7l-1.7-4.1
			c-3.4-8.3-12.8-12.2-21.1-8.8C-634-3086.4-638-3076.8-634.6-3068.6z"/>
	</g>
	<g>
		<path class="st6" d="M-587.2-2948.3l3,3.2l22.4,23.4l23.2-22.6l3.2-3.1c6.4-6.3,6.6-16.6,0.4-23c-6.2-6.4-16.4-6.6-22.8-0.4
			l-3.2,3.1l-3.1-3.2c-6.2-6.5-16.4-6.6-22.8-0.4C-593.2-2965-593.4-2954.7-587.2-2948.3z"/>
		
			<linearGradient id="SVGID_00000027580275188227607410000007460479174258166671_" gradientUnits="userSpaceOnUse" x1="575.0959" y1="-3065.9729" x2="600.476" y2="-3099.157" gradientTransform="matrix(-1 0 0 -1 25.0943 -6039.8608)">
			<stop  offset="0" style="stop-color:#00AD66"/>
			<stop  offset="1" style="stop-color:#86FBD3"/>
		</linearGradient>
		<path style="fill:url(#SVGID_00000027580275188227607410000007460479174258166671_);fill-opacity:0.6;" d="M-587.2-2948.3l3,3.2
			l22.4,23.4l23.2-22.6l3.2-3.1c6.4-6.3,6.6-16.6,0.4-23c-6.2-6.4-16.4-6.6-22.8-0.4l-3.2,3.1l-3.1-3.2c-6.2-6.5-16.4-6.6-22.8-0.4
			C-593.2-2965-593.4-2954.7-587.2-2948.3z"/>
	</g>
	<g>
		<path class="st6" d="M-786.8-3026.6l6.5,2.2l47.8,16.3l15.9-47.9l2.2-6.5c4.4-13.2-2.8-27.6-15.9-32.1
			c-13.2-4.5-27.4,2.6-31.8,15.8l-2.2,6.5l-6.5-2.2c-13.2-4.5-27.4,2.6-31.8,15.8C-807.1-3045.4-800-3031.1-786.8-3026.6z"/>
		
			<linearGradient id="SVGID_00000167356049449255969940000017845169948932857259_" gradientUnits="userSpaceOnUse" x1="778.7372" y1="-2951.1709" x2="790.0773" y2="-3015.2539" gradientTransform="matrix(-1 0 0 -1 25.0943 -6039.8608)">
			<stop  offset="0" style="stop-color:#00AD66"/>
			<stop  offset="1" style="stop-color:#86FBD3"/>
		</linearGradient>
		<path style="fill:url(#SVGID_00000167356049449255969940000017845169948932857259_);fill-opacity:0.6;" d="M-786.8-3026.6l6.5,2.2
			l47.8,16.3l15.9-47.9l2.2-6.5c4.4-13.2-2.8-27.6-15.9-32.1c-13.2-4.5-27.4,2.6-31.8,15.8l-2.2,6.5l-6.5-2.2
			c-13.2-4.5-27.4,2.6-31.8,15.8C-807.1-3045.4-800-3031.1-786.8-3026.6z"/>
	</g>
</g>
<g id="ukooRn.tif">
	
		<image style="overflow:visible;" width="597" height="397" id="Layer_0_00000007410485102098277170000009478837796286457530_" xlink:href="B72DBB193302A9EE.png"  transform="matrix(1 0 0 1 -928.2357 127.7037)">
	</image>
</g>
<text transform="matrix(1 0 0 1 202.4102 314.469)" style="font-family:'MyriadPro-Regular'; font-size:12px;">search.svg</text>
<g>
	<path class="st35" d="M-112.5,53.7L-112.5,53.7c0-12.3,10-22.2,22.2-22.2l0,0c12.3,0,22.2,10,22.2,22.2l0,0
		c0,12.3-10,22.2-22.2,22.2l0,0C-102.6,75.9-112.5,65.9-112.5,53.7z"/>
	<path class="st36" d="M-106.5,53.7L-106.5,53.7c0-8.9,7.2-16.2,16.2-16.2l0,0c8.9,0,16.2,7.2,16.2,16.2l0,0
		c0,8.9-7.2,16.2-16.2,16.2l0,0C-99.2,69.8-106.5,62.6-106.5,53.7z"/>
	<path class="st35" d="M-70.5,77.1l3.7-3.7c0.6-0.6,1.5-0.6,2.1,0l16.7,16.7c0.6,0.6,0.6,1.5,0,2.1l-3.7,3.7c-0.6,0.6-1.5,0.6-2.1,0
		l-16.7-16.7C-71.1,78.6-71.1,77.7-70.5,77.1z"/>
	<line class="st37" x1="-74.2" y1="68.7" x2="-68.1" y2="74.8"/>
	<line class="st37" x1="-74.8" y1="69.3" x2="-68.7" y2="75.5"/>
	<path class="st38" d="M-83.3,47.3c-1.8-1.9-4.7-1.9-6.4,0l-0.9,0.9l-0.9-0.9c-1.8-1.9-4.7-1.9-6.4,0c-1.8,1.9-1.8,5,0,6.9l0.9,0.9
		l5.9,6.3c0.3,0.3,0.8,0.3,1.1,0l5.9-6.3l0.9-0.9C-81.5,52.3-81.5,49.2-83.3,47.3z"/>
</g>
<g>
	<path class="st35" d="M-114.3,90.3H-80c3.4,0,6.2,2.8,6.2,6.2v49.4c0,3.4-2.8,6.2-6.2,6.2h-34.2c-3.4,0-6.2-2.8-6.2-6.2V96.4
		C-120.5,93-117.7,90.3-114.3,90.3z"/>
	<path class="st36" d="M-105.2,86.9h16.1c1,0,1.8,0.8,1.8,1.8v3.7c0,1-0.8,1.8-1.8,1.8h-16.1c-1,0-1.8-0.8-1.8-1.8v-3.7
		C-107,87.7-106.2,86.9-105.2,86.9z"/>
	<line class="st39" x1="-114.3" y1="102.7" x2="-80" y2="102.7"/>
	<line class="st39" x1="-114.3" y1="111.1" x2="-80" y2="111.1"/>
	<line class="st39" x1="-114.3" y1="120" x2="-80" y2="120"/>
	<line class="st39" x1="-114.3" y1="128.5" x2="-86.2" y2="128.5"/>
	<line class="st39" x1="-114.3" y1="136.9" x2="-92.4" y2="136.9"/>
	<circle class="st36" cx="-73.6" cy="137.7" r="11"/>
	<path class="st40" d="M-77.8,138.7l2.2,2.6l6.2-6.7"/>
</g>
<g>
	<path class="st39" d="M37.4,13.3c0-2.2,1.8-4,4-4H56c2.2,0,4,1.8,4,4v4H37.4V13.3z"/>
	<path class="st35" d="M15.8,24.4c1.3-4.3,5.3-7.3,9.8-7.3H71c4.6,0,8.6,3,9.8,7.5L85.1,40c0.5,1.7,0.5,3.5,0.1,5.2L80.7,63
		c-1.1,4.5-5.2,7.7-9.9,7.7H25.7c-4.6,0-8.6-3.1-9.8-7.5l-4.8-17.8c-0.5-1.8-0.5-3.8,0.1-5.6L15.8,24.4z"/>
	<path class="st36" d="M9.2,37.4h76.6c2.4,0,4.3,1.9,4.3,4.3v0c0,2.4-1.9,4.3-4.3,4.3H9.2c-2.4,0-4.3-1.9-4.3-4.3v0
		C4.9,39.3,6.8,37.4,9.2,37.4z"/>
	<path class="st39" d="M72.3,36.3v-6.6"/>
	<path class="st39" d="M60.5,36.3v-6.6"/>
	<path class="st39" d="M48.1,36.3v-6.6"/>
	<path class="st39" d="M36.3,36.3v-6.6"/>
	<path class="st39" d="M24.5,36.3v-6.6"/>
	<circle class="st41" cx="48.3" cy="58.2" r="9.7"/>
	<path class="st38" d="M53.1,54.5c-1.1-1.2-3-1.2-4.2,0l-0.6,0.6l-0.6-0.6c-1.1-1.2-3-1.2-4.2,0c-1.1,1.2-1.1,3.2,0,4.4l0.6,0.6
		l3.6,3.9c0.3,0.3,0.8,0.3,1.1,0l3.6-3.9l0.6-0.6C54.2,57.7,54.2,55.7,53.1,54.5z"/>
</g>
</svg>
