<svg width="90" height="90" viewBox="0 0 90 90" fill="none" xmlns="http://www.w3.org/2000/svg">
<path d="M26.3867 22.3332V8.79477C29.7713 7.66657 38.0636 5.41016 44.156 5.41016C50.2483 5.41016 59.6688 7.66657 63.6175 8.79477V22.3332C59.9508 23.1794 50.9252 25.0409 44.156 25.7178C37.3867 26.3948 29.4893 23.7435 26.3867 22.3332Z" fill="#A6E8CD"/>
<path d="M12.0304 84.9486V69.6139C11.8038 67.1423 12.7441 61.5252 18.3184 58.829C20.8039 57.6267 23.0665 56.5585 24.9464 55.684M39.0519 63.3789C39.758 58.6179 35.1444 55.7575 31.7442 54.2174M77.9696 84.9486V69.6139C78.1962 67.1423 77.2559 61.5252 71.6817 58.829C69.5599 57.8027 67.6007 56.8741 65.9033 56.0804M50.9481 62.8383C50.242 58.0774 54.8556 55.7575 58.2558 54.2174M34.1235 84.9486L26.306 64.2214L37.6923 63.5824M65.9033 56.0804C63.1413 54.7887 61.0725 53.854 60.1252 53.4366C59.5889 53.6455 58.9474 53.9041 58.2558 54.2174M65.9033 56.0804C61.2807 61.0264 55.5932 62.5575 53.3273 62.7048L37.6923 63.5824M24.9464 55.684C27.2823 54.5974 29.0273 53.81 29.8748 53.4366C30.4111 53.6455 31.0526 53.9041 31.7442 54.2174M24.9464 55.684C26.306 57.6544 30.7586 61.9926 37.6923 63.5824M29.8748 30.3502C29.6482 32.0915 29.331 36.1134 29.8748 38.2703M29.8748 30.3502C31.7442 29.4514 35.483 27.081 35.483 24.7892M29.8748 30.3502L26.9858 29.1706M29.8748 38.2703C30.2303 39.6803 31.9337 43.3486 34.6446 46.5275M29.8748 38.2703C28.232 37.0907 24.9464 34.1923 24.9464 32.0353C24.9464 29.8783 26.306 29.2268 26.9858 29.1706M60.1252 38.2703C60.1252 35.4393 60.1252 31.8106 60.1252 30.3502M60.1252 38.2703C60.1252 40.0226 58.2502 43.3861 55.3667 46.3357M60.1252 38.2703C61.6547 37.2592 64.7137 34.5967 64.7137 32.0353C64.7137 29.4739 63.4674 29.0582 62.8443 29.1706M60.1252 30.3502C58.7656 29.3391 55.9105 26.8114 55.3667 24.7892M60.1252 30.3502L62.8443 29.1706M31.7442 54.2174C32.8847 52.7775 35.0615 49.2237 34.6446 46.5275M34.6446 46.5275C37.1175 49.4273 40.4288 51.9199 44.3202 51.9199C48.4385 51.9199 52.4268 49.343 55.3667 46.3357M58.2558 54.2174C57.2927 53.3237 55.3667 50.4962 55.3667 46.3357M26.9858 29.1706V18.3857M62.8443 29.1706V18.3857M24.9464 21.756C28.5719 23.1041 37.8963 25.8003 46.1896 25.8003C54.483 25.8003 61.9946 23.1041 64.7137 21.756M26.9858 18.3857V8.27489C29.0818 7.31998 35.483 5.41016 44.3202 5.41016C53.1574 5.41016 60.3518 7.31998 62.8443 8.27489V18.3857M26.9858 18.3857C33.4437 17.0376 49.6565 15.1502 62.8443 18.3857" stroke="#00663C" stroke-width="3.5" stroke-linecap="round" stroke-linejoin="round"/>
<path d="M44.5176 45.09C42.4866 45.09 40.5879 44.4794 39.1718 43.3709C38.5441 42.8798 38.4537 41.9971 38.9692 41.3993C39.4833 40.8044 40.4112 40.7148 41.0388 41.2072C42.7968 42.5817 46.2381 42.5817 47.9962 41.2072C48.6238 40.7149 49.5517 40.8044 50.0658 41.3993C50.5815 41.997 50.491 42.8798 49.8632 43.3709C48.4474 44.4794 46.5485 45.09 44.5176 45.09Z" fill="#00663C"/>
<path d="M37.1622 72.7834C36.3493 72.7834 35.6914 72.1563 35.6914 71.3829V71.1203C35.6914 70.3469 36.3492 69.7198 37.1622 69.7198C37.9751 69.7198 38.6331 70.3469 38.6331 71.1203V71.3829C38.6329 72.1563 37.9751 72.7834 37.1622 72.7834Z" fill="#00663C"/>
<path d="M40.547 81.2473C39.7341 81.2473 39.0762 80.6202 39.0762 79.8468V79.5842C39.0762 78.8108 39.7339 78.1836 40.547 78.1836C41.3599 78.1836 42.0178 78.8108 42.0178 79.5842V79.8468C42.0177 80.6202 41.3599 81.2473 40.547 81.2473Z" fill="#00663C"/>
<path d="M37.1622 35.5549C36.3493 35.5549 35.6914 34.9278 35.6914 34.1544V33.8918C35.6914 33.1184 36.3492 32.4913 37.1622 32.4913C37.9751 32.4913 38.6331 33.1184 38.6331 33.8918V34.1544C38.6329 34.9278 37.9751 35.5549 37.1622 35.5549Z" fill="#00663C"/>
<path d="M50.7052 35.5549C49.8923 35.5549 49.2344 34.9278 49.2344 34.1544V33.8918C49.2344 33.1184 49.8921 32.4913 50.7052 32.4913C51.5181 32.4913 52.176 33.1184 52.176 33.8918V34.1544C52.1759 34.9278 51.5181 35.5549 50.7052 35.5549Z" fill="#00663C"/>
<path d="M66.542 71.0662C64.8029 69.2709 61.9824 69.2709 60.2433 71.0662L59.3851 71.9518L58.527 71.0662C56.7876 69.2715 53.9676 69.2715 52.2283 71.0662C50.489 72.861 50.489 75.7709 52.2283 77.5656L53.0865 78.4511L58.667 84.2095C59.0599 84.6149 59.7104 84.6149 60.1033 84.2095L65.6838 78.4511L66.542 77.5656C68.2819 75.7711 68.2819 72.8607 66.542 71.0662Z" fill="#00AD66"/>
</svg>
