<svg width="42" height="42" viewBox="0 0 42 42" fill="none" xmlns="http://www.w3.org/2000/svg">
<path d="M26.572 8.03538C27.7436 6.86381 29.6431 6.86381 30.8147 8.03538L34.1985 11.4192C35.3701 12.5908 35.3701 14.4903 34.1985 15.6618L15.7284 34.1319L8.10193 26.5055L26.572 8.03538Z" stroke="#00AD66" stroke-width="1.5"/>
<path d="M6.57617 24.9805L11.9147 30.319M17.2532 35.6575L11.9147 30.319M11.9147 30.319L7.33882 34.8949M4.6636 32.2196L10.0021 37.5582" stroke="#00AD66" stroke-width="1.5" stroke-linecap="round" stroke-linejoin="round"/>
<path d="M34.7943 7.44101L40.8955 1.33984" stroke="#00AD66" stroke-width="1.5" stroke-linecap="round" stroke-linejoin="round"/>
<rect x="33.2695" y="5.91406" width="4.31417" height="3.23563" transform="rotate(45 33.2695 5.91406)" stroke="#00AD66" stroke-width="1.5" stroke-linecap="round" stroke-linejoin="round"/>
<path d="M35.5148 23.029C34.1848 21.5034 32.0277 21.5034 30.6977 23.029L30.0414 23.7815L29.3851 23.029C28.0549 21.5039 25.8982 21.5039 24.568 23.029C23.2378 24.5541 23.2378 27.0268 24.568 28.5519L25.2243 29.3044L30.0414 34.8273L34.8585 29.3044L35.5148 28.5519C36.8455 27.027 36.8455 24.5539 35.5148 23.029Z" fill="#FFFEFC" stroke="#00AD66" stroke-width="1.5" stroke-linecap="round" stroke-linejoin="round"/>
</svg>
