<svg width="31" height="39" viewBox="0 0 31 39" fill="none" xmlns="http://www.w3.org/2000/svg">
<path d="M2.91016 37.3371H27.9798C29.0844 37.3371 29.9798 36.4416 29.9798 35.3371V33.2848V9.02796C29.9798 8.48118 29.756 7.95824 29.3603 7.58082L23.0413 1.55286C22.6693 1.19799 22.175 1 21.6608 1H2.91016C1.80559 1 0.910156 1.89543 0.910156 3V35.3371C0.910156 36.4416 1.80559 37.3371 2.91016 37.3371Z" stroke="#00AD66" stroke-width="1.7" stroke-linecap="round" stroke-linejoin="round"/>
<path d="M22.35 2.21094C22.35 1.7415 21.9694 1.36094 21.5 1.36094C21.0306 1.36094 20.65 1.7415 20.65 2.21094H22.35ZM28.7674 10.3284C29.2369 10.3284 29.6174 9.94779 29.6174 9.47835C29.6174 9.00891 29.2369 8.62835 28.7674 8.62835V10.3284ZM20.65 2.21094V8.47835H22.35V2.21094H20.65ZM22.5 10.3284H28.7674V8.62835H22.5V10.3284ZM20.65 8.47835C20.65 9.50008 21.4783 10.3284 22.5 10.3284V8.62835C22.4172 8.62835 22.35 8.5612 22.35 8.47835H20.65Z" fill="#00AD66"/>
<path d="M8.1754 7.00742C7.84403 7.00742 7.5754 7.27605 7.5754 7.60742V9.42989H5.75293C5.42156 9.42989 5.15293 9.69852 5.15293 10.0299V12.4524C5.15293 12.7837 5.42156 13.0524 5.75293 13.0524H7.5754V14.8748C7.5754 15.2062 7.84403 15.4748 8.1754 15.4748H10.5979C10.9292 15.4748 11.1979 15.2062 11.1979 14.8748V13.0524H13.0203C13.3517 13.0524 13.6203 12.7837 13.6203 12.4524V10.0299C13.6203 9.69852 13.3517 9.42989 13.0203 9.42989H11.1979V7.60742C11.1979 7.27605 10.9292 7.00742 10.5979 7.00742H8.1754Z" stroke="#00AD66" stroke-width="1.2" stroke-linecap="round" stroke-linejoin="round"/>
<path d="M5.75293 19.5289C5.28349 19.5289 4.90293 19.9095 4.90293 20.3789C4.90293 20.8483 5.28349 21.2289 5.75293 21.2289V19.5289ZM25.1327 21.2289C25.6021 21.2289 25.9827 20.8483 25.9827 20.3789C25.9827 19.9095 25.6021 19.5289 25.1327 19.5289V21.2289ZM5.75293 21.2289H25.1327V19.5289H5.75293V21.2289Z" fill="#00AD66"/>
<path d="M5.75293 24.3727C5.28349 24.3727 4.90293 24.7532 4.90293 25.2227C4.90293 25.6921 5.28349 26.0727 5.75293 26.0727V24.3727ZM25.1327 26.0727C25.6021 26.0727 25.9827 25.6921 25.9827 25.2227C25.9827 24.7532 25.6021 24.3727 25.1327 24.3727V26.0727ZM5.75293 26.0727H25.1327V24.3727H5.75293V26.0727Z" fill="#00AD66"/>
<path d="M5.75293 29.2203C5.28349 29.2203 4.90293 29.6009 4.90293 30.0703C4.90293 30.5398 5.28349 30.9203 5.75293 30.9203V29.2203ZM19.0765 30.9203C19.546 30.9203 19.9265 30.5398 19.9265 30.0703C19.9265 29.6009 19.546 29.2203 19.0765 29.2203V30.9203ZM5.75293 30.9203H19.0765V29.2203H5.75293V30.9203Z" fill="#00AD66"/>
</svg>
