<svg width="154" height="35" viewBox="0 0 154 35" fill="none" xmlns="http://www.w3.org/2000/svg">
<path d="M121.316 34.1236C121.196 34.1236 121.08 34.0771 120.995 33.9943C120.91 33.9115 120.863 33.7992 120.863 33.682V25.9548C120.863 23.2569 123.245 21.8704 125.764 21.8704C128.517 21.8704 130.506 23.7735 130.506 26.2859C130.506 29.1737 128.16 30.6794 125.909 30.6794C125.56 30.6835 125.212 30.6494 124.871 30.5779C124.77 30.5546 124.68 30.4979 124.616 30.4175C124.553 30.3371 124.52 30.2378 124.523 30.1363V28.5247C124.522 28.4602 124.535 28.3964 124.562 28.3376C124.59 28.2788 124.63 28.2266 124.68 28.1845C124.73 28.1424 124.789 28.1115 124.852 28.094C124.916 28.0765 124.983 28.0728 125.048 28.0831C125.266 28.1234 125.487 28.1426 125.709 28.1405C125.971 28.1528 126.233 28.1132 126.479 28.0239C126.725 27.9346 126.95 27.7976 127.14 27.6211C127.33 27.4446 127.481 27.2323 127.585 26.9971C127.688 26.7619 127.742 26.5087 127.742 26.2528C127.742 25.997 127.688 25.7437 127.585 25.5086C127.481 25.2734 127.33 25.0611 127.14 24.8846C126.95 24.7081 126.725 24.571 126.479 24.4818C126.233 24.3925 125.971 24.3528 125.709 24.3652C124.35 24.3652 123.703 25.3013 123.703 26.5994V33.6644C123.703 33.7815 123.655 33.8938 123.57 33.9766C123.485 34.0594 123.37 34.1059 123.25 34.1059L121.316 34.1236Z" fill="#00AD66"/>
<path d="M135.293 27.041L134.7 26.1314C134.637 26.0334 134.616 25.915 134.641 25.8018C134.666 25.6887 134.737 25.5898 134.836 25.5265L136.788 24.2769C136.462 24.0691 136.077 23.9657 135.688 23.981C134.514 23.981 133.876 25.1423 133.876 26.1447C133.876 27.147 134.641 28.273 135.796 28.273C136.702 28.273 137.64 27.5797 138.138 26.7584C138.196 26.6606 138.29 26.5881 138.402 26.5561C138.513 26.5241 138.633 26.5348 138.736 26.5862L139.986 27.2132C140.04 27.2398 140.088 27.2767 140.128 27.3218C140.167 27.3668 140.197 27.4191 140.215 27.4755C140.233 27.532 140.239 27.5913 140.233 27.6502C140.228 27.7091 140.21 27.7662 140.181 27.8182C139.765 28.6637 139.117 29.3804 138.308 29.8886C137.5 30.3968 136.563 30.6767 135.601 30.6971C134.4 30.6971 133.248 30.2319 132.399 29.4038C131.549 28.5758 131.072 27.4526 131.072 26.2816C131.072 25.1105 131.549 23.9873 132.399 23.1593C133.248 22.3312 134.4 21.866 135.601 21.866C137.413 21.866 138.695 22.7491 139.601 24.1753C139.666 24.2718 139.689 24.389 139.666 24.502C139.643 24.6151 139.576 24.7149 139.479 24.7803L135.932 27.1602C135.883 27.1942 135.826 27.2181 135.767 27.2305C135.708 27.2428 135.647 27.2435 135.587 27.2324C135.527 27.2213 135.471 27.1986 135.42 27.1657C135.37 27.1329 135.327 27.0905 135.293 27.041Z" fill="#00AD66"/>
<path d="M145.752 22.4488V24.0958C145.752 24.2129 145.704 24.3252 145.619 24.408C145.534 24.4908 145.419 24.5374 145.299 24.5374H144.18C144.06 24.5374 143.945 24.5839 143.86 24.6667C143.775 24.7495 143.727 24.8618 143.727 24.9789V26.7849C143.727 27.7563 144.085 27.9285 145.186 27.9639C145.38 27.9639 145.593 27.9639 145.788 27.9285V30.048C145.788 30.1651 145.74 30.2774 145.655 30.3603C145.571 30.4431 145.455 30.4896 145.335 30.4896H144.189C142.024 30.4896 141.019 29.0722 141.019 27.4781V20.4441C141.019 20.327 141.066 20.2147 141.151 20.1319C141.236 20.0491 141.351 20.0026 141.472 20.0026H143.315C143.435 20.0026 143.55 20.0491 143.635 20.1319C143.72 20.2147 143.768 20.327 143.768 20.4441V21.5657C143.768 21.6828 143.816 21.7951 143.901 21.8779C143.986 21.9607 144.101 22.0072 144.221 22.0072H145.322C145.438 22.0129 145.547 22.0619 145.627 22.1441C145.707 22.2263 145.752 22.3354 145.752 22.4488Z" fill="#00AD66"/>
<path d="M146.689 28.5776C146.689 28.4605 146.737 28.3482 146.822 28.2654C146.907 28.1826 147.022 28.1361 147.142 28.1361H149.407C149.742 28.1361 149.905 27.9815 149.905 27.7563C149.905 26.9571 146.762 27.2529 146.762 24.4667C146.762 22.8727 148.18 22.0779 149.529 22.0779H151.848C151.969 22.0779 152.084 22.1244 152.169 22.2072C152.254 22.29 152.301 22.4023 152.301 22.5194V23.8883C152.301 24.0054 152.254 24.1177 152.169 24.2005C152.084 24.2833 151.969 24.3298 151.848 24.3298H150.082C149.742 24.3298 149.498 24.502 149.498 24.7272C149.498 25.4028 152.818 25.575 152.818 27.8181C152.818 29.5314 151.717 30.4675 149.851 30.4675H147.133C147.013 30.4675 146.898 30.421 146.813 30.3382C146.728 30.2553 146.68 30.143 146.68 30.0259L146.689 28.5776Z" fill="#00AD66"/>
<path d="M42.9551 28.9661C41.8741 27.6737 41.3341 25.8582 41.3351 23.5198C41.3015 21.917 41.7219 20.3355 42.5515 18.9431C43.3475 17.6331 44.5205 16.5702 45.9304 15.8813C47.4312 15.1525 49.0947 14.7842 50.7774 14.8081C52.103 14.7794 53.4255 14.9452 54.6987 15.2997C55.8332 15.6568 56.8574 16.0429 57.2495 17.0175C57.6416 17.9921 57.8432 29.3912 57.8432 29.3912C57.8607 29.5395 57.8504 29.6896 57.8128 29.8344C57.776 29.9753 57.7117 30.1082 57.6234 30.2263C57.366 30.3971 57.0518 30.471 56.741 30.434H53.0888C52.919 30.4417 52.7498 30.4084 52.597 30.337C52.4598 30.2518 52.3497 30.132 52.2788 29.9909L51.8159 29.2015C51.2752 29.7575 50.6142 30.1937 49.8792 30.4797C49.0368 30.7818 48.1416 30.9262 47.2423 30.9048C45.4661 30.9048 44.037 30.2586 42.9551 28.9661ZM51.2893 25.885C51.5547 25.885 51.9167 25.7137 52.0735 25.4888C52.1781 25.3389 52.3872 25.114 52.3872 24.6642C52.3872 24.2144 52.1519 20.3161 52.1519 20.3161C51.9951 19.7836 51.0099 19.7746 50.7716 19.7836C50.4104 19.7676 49.8026 19.9248 49.4855 20.0912C49.2679 20.2053 49.0934 20.2411 48.6229 20.6909C48.0551 21.2336 47.6043 21.9582 47.6033 23.1648C47.6033 24.7453 48.7741 25.8859 49.8184 25.885C50.0381 25.8899 50.1129 25.885 50.4266 25.885C50.6619 25.885 51.0238 25.885 51.2893 25.885Z" fill="#00AD66"/>
<path d="M101.099 22.8593C101.099 20.3777 100.337 18.4155 98.812 16.9726C97.2875 15.5296 95.166 14.8082 92.4477 14.8082C90.8389 14.7691 89.2443 15.1055 87.8018 15.7886C86.5356 16.4049 85.4994 17.381 84.8351 18.5831C84.1676 19.9124 83.8209 21.3684 83.8209 22.8434C83.8209 24.3183 84.1676 25.7744 84.8351 27.1037C85.5038 28.306 86.5384 29.2854 87.8018 29.912C89.2582 30.5658 90.8471 30.9048 92.4557 30.9048C94.0643 30.9048 95.6532 30.5658 97.1096 29.912C98.3696 29.281 99.4029 28.3027 100.076 27.1037C100.784 25.7937 101.136 24.3339 101.099 22.8593ZM94.9746 24.485C94.7618 24.9258 94.4163 25.2957 93.9824 25.5472C93.5034 25.7935 92.9682 25.9223 92.4246 25.9223C91.8809 25.9223 91.3457 25.7935 90.8668 25.5472C90.432 25.2967 90.0862 24.9265 89.8745 24.485C89.6501 23.9748 89.5346 23.4268 89.5346 22.8731C89.5346 22.3195 89.6501 21.7715 89.8745 21.2612C90.0841 20.8195 90.4305 20.4502 90.8668 20.2033C91.3403 19.947 91.8779 19.8192 92.4217 19.8336C93.3329 19.8336 94.0436 20.1063 94.5537 20.6519C95.0638 21.1975 95.3194 21.9398 95.3203 22.8787C95.3328 23.4322 95.2146 23.9813 94.9746 24.485Z" fill="#00AD66"/>
<path d="M119.574 22.8579C119.574 20.3782 118.811 18.4164 117.284 16.9726C115.758 15.5287 113.637 14.8073 110.92 14.8082C109.311 14.7691 107.717 15.1055 106.274 15.7886C105.007 16.4037 103.971 17.3801 103.308 18.5831C102.64 19.9124 102.293 21.3684 102.293 22.8434C102.293 24.3183 102.64 25.7744 103.308 27.1037C103.975 28.3072 105.01 29.287 106.274 29.912C107.731 30.5658 109.32 30.9048 110.928 30.9048C112.537 30.9048 114.126 30.5658 115.582 29.912C116.839 29.2794 117.87 28.3014 118.541 27.1037C119.253 25.7941 119.609 24.3338 119.574 22.8579ZM113.489 24.485C113.276 24.9258 112.931 25.2957 112.497 25.5472C112.018 25.7935 111.483 25.9223 110.939 25.9223C110.395 25.9223 109.86 25.7935 109.381 25.5472C108.946 25.2967 108.601 24.9265 108.389 24.485C108.165 23.9748 108.049 23.4268 108.049 22.8731C108.049 22.3195 108.165 21.7715 108.389 21.2612C108.599 20.8195 108.945 20.4502 109.381 20.2033C109.855 19.947 110.392 19.8192 110.936 19.8336C111.847 19.8336 112.558 20.1063 113.068 20.6519C113.578 21.1975 113.834 21.9398 113.835 22.8787C113.847 23.4322 113.729 23.9813 113.489 24.485Z" fill="#00AD66"/>
<path d="M81.41 16.841C81.2162 16.0683 80.5985 15.5434 79.9071 15.5434H76.4733C76.2506 15.5434 76.0654 15.7733 76.0929 16.0267L77.3079 23.3743C77.3475 23.5844 77.3428 23.8 77.2942 24.0083C77.2456 24.2166 77.1541 24.4136 77.0249 24.5876C76.8958 24.7616 76.7316 24.9092 76.5421 25.0217C76.3526 25.1342 76.1416 25.2093 75.9214 25.2427C75.7011 25.276 75.4762 25.267 75.2596 25.216C75.0431 25.1651 74.8394 25.0732 74.6604 24.9459C74.4815 24.8186 74.3309 24.6583 74.2174 24.4745C74.104 24.2908 74.0301 24.0872 73.9999 23.8757L72.6706 17.2051C72.6588 17.0857 72.6035 16.9741 72.5144 16.8898C72.4253 16.8055 72.3081 16.7539 72.1832 16.744H69.7358C69.605 16.7441 69.4783 16.7882 69.3781 16.8687C69.2778 16.9493 69.2104 17.061 69.1876 17.1844L67.9075 23.8757C67.8774 24.0872 67.8034 24.2908 67.69 24.4745C67.5766 24.6583 67.426 24.8186 67.247 24.9459C67.068 25.0732 66.8643 25.1651 66.6478 25.216C66.4313 25.267 66.2063 25.276 65.9861 25.2427C65.7659 25.2093 65.5548 25.1342 65.3653 25.0217C65.1758 24.9092 65.0117 24.7616 64.8825 24.5876C64.7534 24.4136 64.6618 24.2166 64.6133 24.0083C64.5647 23.8 64.56 23.5844 64.5995 23.3743L64.8671 21.7625C64.9047 21.3775 64.9669 20.9925 65.0306 20.638L65.8059 16.0876C65.855 15.8176 65.6395 15.5434 65.4023 15.5434H62.0365C61.3523 15.5434 60.7506 16.0641 60.5495 16.8243C60.1243 18.4265 59.2029 21.3678 59.3707 25.4945C59.5385 29.6211 65.181 33.4431 70.6225 28.7487C70.715 28.6683 70.8351 28.6231 70.96 28.6215C71.085 28.62 71.2062 28.6623 71.3009 28.7404C77.0389 33.4376 82.5454 29.3317 82.5454 25.4945C82.5454 21.6572 81.7542 18.2257 81.41 16.841Z" fill="#00AD66"/>
<path d="M7.8424 1.22815C7.64894 2.38221 6.98298 3.41618 5.99044 4.10347C4.99789 4.79077 3.75973 5.07533 2.54727 4.89481C0.183295 4.50054 -0.276259 3.14822 0.133607 0.932448C0.195708 0.597323 0.237111 0.36865 0.266092 0.218829C0.272948 0.184923 0.287029 0.152721 0.307482 0.12421C0.325631 0.0938928 0.351192 0.0681941 0.382 0.0492983C0.411716 0.0286166 0.445508 0.0138589 0.481358 0.00592286C0.516759 -0.00197429 0.553602 -0.00197429 0.589003 0.00592286L7.8424 1.22815Z" fill="#00AD66"/>
<path d="M14.9861 2.39895C14.7522 3.54407 15.0025 4.73115 15.6824 5.70013C16.3622 6.66911 17.416 7.34098 18.613 7.56854C20.9664 7.96257 21.8814 6.84747 22.2894 4.63306C22.3513 4.29814 22.3925 4.07354 22.4255 3.91987C22.4373 3.85108 22.4211 3.78054 22.3801 3.72286C22.3594 3.69482 22.3331 3.67098 22.3026 3.65272C22.2722 3.63446 22.2383 3.62215 22.2029 3.61648L14.9861 2.39895Z" fill="#00AD66"/>
<path fill-rule="evenodd" clip-rule="evenodd" d="M43.2109 2.10189L43.9602 6.05738H43.9437C44.2533 7.79056 44.0092 9.5732 43.2434 11.1704C42.4776 12.7676 41.2262 14.1044 39.654 15.0047C38.7409 15.5306 37.7346 15.89 36.6857 16.0648C34.7218 16.3942 32.6996 16.084 30.9401 15.1832C29.1807 14.2824 27.7848 12.8427 26.9741 11.0927C26.6809 10.4607 26.4694 9.79647 26.3442 9.11499L25.5785 5.08435C25.5545 4.94012 25.5658 4.7925 25.6114 4.65319C25.6562 4.51104 25.7373 4.38193 25.8473 4.2776C25.9573 4.17328 26.0928 4.09706 26.2413 4.0559C26.3863 4.01191 26.5399 4.00108 26.69 4.02426L30.4775 4.65319C31.6334 3.88815 32.9475 3.37163 34.33 3.13885C35.7126 2.90608 37.1311 2.96254 38.4889 3.30436L41.8277 1.46902C41.9534 1.39927 42.0944 1.35864 42.2393 1.35035C42.391 1.34371 42.5421 1.3722 42.6799 1.43341C42.8186 1.4946 42.9389 1.58849 43.0298 1.70634C43.1244 1.8211 43.1868 1.95731 43.2109 2.10189ZM33.3717 7.94722C32.8616 7.58534 32.2241 7.43237 31.5977 7.52155C31.0657 7.66254 30.6005 7.97254 30.2758 8.39878C30.5802 8.3805 30.8832 8.46417 31.1327 8.6376C31.3415 8.78297 31.502 8.98405 31.5946 9.21625C31.6871 9.44845 31.7078 9.70171 31.654 9.94508C31.6002 10.1885 31.4742 10.4114 31.2916 10.5866C31.1089 10.7619 30.8775 10.8818 30.6255 10.9318C30.5647 10.9407 30.5034 10.9451 30.4422 10.9452H30.757L30.8683 10.9253H30.893C30.9296 10.9216 30.9656 10.9136 31.0002 10.9015H31.0249L31.1526 10.8696H31.1774L31.3175 10.8338L31.6719 10.7464C31.724 10.736 31.7749 10.7251 31.8255 10.7143C31.9111 10.696 31.996 10.6779 32.084 10.6629L32.4055 10.6191H32.5126L32.7269 10.5913H33.4481L33.5841 10.5635H33.6212L33.782 10.5157H33.8273L33.9221 10.476L33.9756 10.4521L34.0539 10.4044L34.0993 10.3766L34.1735 10.3129L34.2023 10.2851C34.233 10.2527 34.2593 10.2166 34.2806 10.1778C34.2828 10.1686 34.2828 10.1591 34.2806 10.1499C34.2982 10.1179 34.3133 10.0847 34.326 10.0505V10.0028C34.3348 9.96873 34.3417 9.93421 34.3466 9.8994C34.3428 9.87969 34.3428 9.85946 34.3466 9.83975C34.3507 9.80009 34.3507 9.76013 34.3466 9.72046V9.66083C34.3426 9.59149 34.3344 9.52244 34.3218 9.45405C34.2233 8.85061 33.8818 8.30909 33.3717 7.94722ZM30.4402 10.9452C30.3704 10.9451 30.3006 10.9394 30.2316 10.9279C30.2507 10.9358 30.2708 10.9416 30.2913 10.9452H30.4402ZM38.4846 6.32374C39.1149 6.23094 39.7575 6.38396 40.2713 6.74914C40.785 7.11432 41.1279 7.6618 41.2245 8.27133C41.2368 8.33999 41.2451 8.40929 41.2493 8.47886V8.72231C41.2516 8.75553 41.2516 8.78886 41.2493 8.82208C41.2516 8.8393 41.2516 8.85675 41.2493 8.87397C41.2384 8.90889 41.2231 8.9424 41.2039 8.97374C41.2017 8.97809 41.2005 8.98288 41.2005 8.98772C41.2005 8.99256 41.2017 8.99733 41.2039 9.00168C41.1791 9.03946 41.1515 9.07548 41.1213 9.10944C41.1213 9.10944 41.1213 9.13339 41.0966 9.13339L41.0182 9.19723L40.9769 9.22517C40.9519 9.24486 40.9241 9.26098 40.8944 9.27306L40.849 9.29701L40.7459 9.3409H40.7046L40.5436 9.38882L40.3827 9.42472H40.3291L40.1929 9.44867H40.131L39.9825 9.46862H39.933L39.7225 9.49256L39.4089 9.54844H39.3305L39.0087 9.60032C38.9141 9.60032 38.8232 9.62392 38.7311 9.64785C38.6866 9.65941 38.6417 9.67105 38.596 9.68015L38.2453 9.76794L37.94 9.84377L37.8162 9.87171L37.7007 9.89565H37.4654C37.4014 9.89553 37.3376 9.88749 37.2756 9.87171C37.2452 9.86786 37.2158 9.85837 37.189 9.84377C37.1634 9.8334 37.1386 9.82142 37.1147 9.80786L37.0446 9.75198C37.0271 9.73386 37.0112 9.71434 36.9972 9.69362C37.0138 9.69845 37.0305 9.70295 37.0473 9.70712C37.2118 9.7479 37.3833 9.75647 37.5514 9.73232C37.8853 9.65596 38.1761 9.46079 38.3643 9.18669C38.5525 8.91259 38.6239 8.58026 38.5639 8.25763C38.5038 7.93499 38.3169 7.6464 38.0414 7.45084C37.7692 7.25765 37.4307 7.16967 37.0937 7.20418C37.4104 6.75185 37.8991 6.42239 38.4846 6.32374ZM38.3072 12.6014C38.3111 12.547 38.337 12.4962 38.3796 12.4599C38.4227 12.423 38.4794 12.404 38.5372 12.4072C38.595 12.4103 38.6492 12.4352 38.6877 12.4764C38.7263 12.5177 38.7461 12.5719 38.7429 12.6271C38.7232 12.9453 38.5895 13.2475 38.3642 13.4825C38.1389 13.7175 37.8358 13.8711 37.5059 13.9176L37.5048 13.9177C37.4352 13.9265 37.3651 13.9307 37.295 13.9304C36.9472 13.9292 36.6115 13.8088 36.3488 13.5909C36.2915 13.5433 36.2384 13.4917 36.19 13.4368C36.1457 13.5343 36.0895 13.6273 36.0219 13.7139C35.7922 14.008 35.45 14.2031 35.0701 14.2564C35.0017 14.266 34.9326 14.2703 34.8634 14.2692C34.5656 14.2687 34.2751 14.1808 34.0312 14.0174C33.7871 13.8538 33.6016 13.6225 33.4996 13.3548L33.4983 13.3515L33.4974 13.3481C33.4835 13.2972 33.4901 13.2432 33.5159 13.1968C33.5416 13.1504 33.5846 13.1148 33.6364 13.0973C33.6882 13.0797 33.7451 13.0813 33.7957 13.1018C33.8463 13.1224 33.887 13.1603 33.9098 13.2081L33.9105 13.2098C34.0058 13.4233 34.1777 13.5973 34.3953 13.7005C34.6129 13.8036 34.8619 13.8292 35.0975 13.7724C35.2143 13.7443 35.3239 13.6968 35.422 13.633C35.5216 13.5682 35.6092 13.4864 35.68 13.391C35.7993 13.2301 35.8643 13.0391 35.8677 12.8435C35.8682 12.8095 35.867 12.7753 35.8638 12.7412L35.8357 12.5571C35.1536 12.31 35.1112 12.172 35.0965 12.1242L35.0963 12.1237C35.0892 12.0978 35.0886 12.0708 35.0946 12.0447C35.1006 12.0186 35.113 11.9943 35.1308 11.9737C35.3127 11.7638 36.5064 11.6214 36.7526 11.7353C36.7631 11.7396 36.7727 11.7457 36.7808 11.7533C36.8024 11.7705 36.8196 11.7921 36.8313 11.8165C36.8429 11.8409 36.8487 11.8674 36.8483 11.8943C36.8427 12.0275 36.6475 12.232 36.2674 12.5034L36.2951 12.6851C36.3432 12.9122 36.4745 13.1156 36.6654 13.2585C36.8568 13.4019 37.0955 13.4752 37.3385 13.4651C37.5814 13.455 37.8126 13.3623 37.9903 13.2036C38.1675 13.0453 38.2799 12.8318 38.3072 12.6014ZM29.8167 9.24425C29.7992 9.16992 29.7964 9.09272 29.8084 9.01724C29.8204 8.94175 29.8469 8.86955 29.8864 8.80491C29.9259 8.74027 29.9776 8.68454 30.0384 8.64101C30.0991 8.59749 30.1677 8.56708 30.2401 8.55159C30.3895 8.53104 30.541 8.57023 30.6635 8.66119C30.7841 8.75447 30.8647 8.89296 30.8879 9.04699C30.9027 9.12301 30.9028 9.2013 30.8882 9.27735C30.8736 9.35341 30.8445 9.42571 30.8028 9.49011C30.7611 9.5545 30.7075 9.60973 30.645 9.65256C30.5826 9.69539 30.5126 9.72498 30.4391 9.73966C30.3666 9.75073 30.2927 9.7466 30.2219 9.72751C30.151 9.70842 30.0845 9.67478 30.0265 9.62856C29.9684 9.58234 29.9199 9.5245 29.8839 9.45848C29.8478 9.39246 29.825 9.3196 29.8167 9.24425ZM36.7097 7.90706C36.6977 7.97273 36.7005 8.0399 36.7179 8.10457C36.7262 8.17087 36.7491 8.23498 36.7852 8.29309C36.8214 8.3512 36.87 8.40213 36.9283 8.44284C36.9866 8.48355 37.0533 8.51322 37.1245 8.53009C37.1957 8.54695 37.27 8.55066 37.3428 8.541C37.4914 8.51339 37.6219 8.43356 37.7059 8.31895C37.7872 8.20422 37.8176 8.06582 37.7909 7.9316C37.7643 7.79737 37.6826 7.67726 37.5623 7.59541C37.5023 7.55526 37.434 7.52644 37.3615 7.51066C37.2889 7.49488 37.2137 7.49245 37.1401 7.50353C37.0681 7.51661 36.9998 7.54274 36.9392 7.58036C36.8787 7.61798 36.8271 7.66633 36.7877 7.72247C36.7483 7.77861 36.7217 7.8414 36.7097 7.90706Z" fill="#00AD66"/>
<path fill-rule="evenodd" clip-rule="evenodd" d="M18.7045 8.8548C17.1095 8.58919 15.6902 7.72889 14.7588 6.46311C13.8273 5.19733 13.46 3.62973 13.7375 2.10509L9.25069 1.34941C8.96618 2.87239 8.06105 4.22523 6.73402 5.11092C5.40699 5.99661 3.76649 6.34278 2.1727 6.07343C1.97403 6.04209 1.7777 5.99847 1.58494 5.94285L1.54768 6.1288C1.13494 8.37 1.66997 10.6762 3.03519 12.5405C4.40041 14.4048 6.48415 15.6748 8.82849 16.0714C10.8454 16.3975 12.9183 16.0626 14.7111 15.1211C16.5038 14.1796 17.9111 12.6866 18.7045 10.8845C18.9661 10.2952 19.1563 9.67924 19.2716 9.04866L19.2923 8.92997C19.0952 8.91426 18.899 8.88917 18.7045 8.8548ZM6.95437 6.32374C6.33436 6.23094 5.70225 6.38396 5.1969 6.74914C4.69155 7.11432 4.3543 7.6618 4.25925 8.27133C4.24713 8.33999 4.239 8.40929 4.23489 8.47886V8.72231C4.24062 8.75608 4.24876 8.78942 4.25925 8.82208V8.87396C4.27166 8.90824 4.28658 8.94158 4.30389 8.97374C4.30604 8.97809 4.30718 8.98288 4.30718 8.98772C4.30718 8.99256 4.30604 8.99733 4.30389 9.00168L4.38507 9.10944C4.38507 9.10944 4.38507 9.13339 4.40942 9.13339L4.48655 9.19723L4.52715 9.22517C4.55318 9.24492 4.58185 9.26103 4.61237 9.27306L4.65704 9.29701L4.75851 9.3409H4.79503L4.95333 9.38881L5.11163 9.42472H5.1644L5.29833 9.44866H5.35922L5.50534 9.46861H5.55404L5.76105 9.49256L6.06953 9.54844H6.14665L6.46323 9.60032C6.55826 9.60032 6.65136 9.62492 6.74387 9.64937C6.78569 9.66042 6.82742 9.67145 6.86913 9.68015H6.95437L7.29533 9.76793L7.59569 9.84377L7.71745 9.8717L7.83515 9.89565H8.08276C8.1458 9.8958 8.20856 9.88775 8.26946 9.8717C8.29815 9.86786 8.32577 9.85835 8.35064 9.84377C8.37445 9.83336 8.3975 9.82137 8.41963 9.80786L8.48459 9.75198C8.49755 9.73923 8.50885 9.72486 8.52061 9.7099C8.52726 9.70144 8.53407 9.69278 8.5414 9.68414C8.5414 9.6817 8.54163 9.67928 8.54208 9.67688C8.50811 9.68835 8.47358 9.69845 8.43858 9.70712C8.27407 9.7479 8.10258 9.75647 7.93451 9.73232C7.60055 9.65596 7.30979 9.46079 7.12161 9.18669C6.93342 8.91259 6.86203 8.58026 6.92204 8.25763C6.98206 7.93499 7.16893 7.6464 7.44448 7.45084C7.7027 7.26758 8.02053 7.17899 8.34019 7.19983C8.01656 6.74974 7.53406 6.42207 6.95437 6.32374ZM12.1457 7.94547C12.6737 7.58271 13.3337 7.43082 13.9811 7.52308C14.5427 7.66345 15.0331 7.98166 15.3705 8.42122C15.3541 8.41731 15.3376 8.41372 15.321 8.41045C14.9806 8.36093 14.6336 8.44259 14.3548 8.63786C14.1458 8.78294 13.985 8.98367 13.892 9.21557C13.7991 9.44747 13.7781 9.7005 13.8315 9.94376C13.8849 10.187 14.0105 10.41 14.1929 10.5854C14.3752 10.7609 14.6066 10.8813 14.8586 10.9318C15.0239 10.9559 15.1926 10.9474 15.3545 10.9067C15.4219 10.8898 15.4876 10.8675 15.5508 10.84C15.5334 10.8559 15.514 10.8699 15.493 10.8817C15.4709 10.8967 15.4467 10.9087 15.421 10.9174C15.3945 10.9308 15.366 10.9401 15.3363 10.9452H14.8874L14.7731 10.9253H14.7477C14.7101 10.9212 14.6732 10.9132 14.6376 10.9016H14.6164L14.4809 10.8698H14.3792L14.2352 10.8341L13.8668 10.7469C13.8133 10.7366 13.761 10.7258 13.709 10.715C13.6209 10.6967 13.5338 10.6786 13.4433 10.6636L13.113 10.62H13.0028L12.7826 10.5923H12.0457L11.906 10.5645H11.8679L11.7027 10.5169H11.6519L11.5545 10.4773L11.5036 10.4535L11.419 10.4059L11.3766 10.3781L11.2961 10.3147L11.2707 10.2869C11.2378 10.2547 11.2094 10.2187 11.186 10.1799V10.1521C11.1662 10.121 11.1506 10.0877 11.1394 10.053V10.0054C11.1374 9.97106 11.1374 9.93664 11.1394 9.9023C11.1433 9.88264 11.1433 9.86247 11.1394 9.84281C11.1351 9.80326 11.1351 9.7634 11.1394 9.72385V9.66436C11.1435 9.59521 11.152 9.52637 11.1648 9.45818C11.265 8.85224 11.6178 8.30823 12.1457 7.94547ZM8.77615 7.9085C8.78815 7.97446 8.7854 8.04194 8.76803 8.1069C8.7592 8.17278 8.73603 8.23641 8.69991 8.29406C8.66379 8.35171 8.61544 8.40224 8.55766 8.44268C8.49987 8.48313 8.43383 8.51269 8.36336 8.52965C8.2929 8.54661 8.21942 8.55062 8.14724 8.54145C7.99857 8.51372 7.86801 8.43352 7.78406 8.3184C7.74217 8.26279 7.71276 8.2002 7.69754 8.1342C7.68231 8.0682 7.68158 8.0001 7.69537 7.93385C7.72001 7.79828 7.80186 7.67684 7.92343 7.59544C7.98368 7.55549 8.05198 7.52678 8.12445 7.51094C8.19692 7.4951 8.27213 7.49245 8.34573 7.50315C8.41773 7.51628 8.48605 7.54253 8.54663 7.58032C8.60719 7.61811 8.65874 7.66668 8.69818 7.72307C8.73763 7.77947 8.76415 7.84254 8.77615 7.9085ZM15.6786 9.1099C15.6888 9.17618 15.6864 9.24396 15.6715 9.30922C15.6639 9.37504 15.6441 9.43857 15.613 9.49609C15.582 9.55362 15.5404 9.60397 15.4907 9.64415C15.4411 9.68433 15.3843 9.71352 15.3239 9.73005C15.2634 9.74657 15.2005 9.75007 15.1387 9.74034C15.0757 9.72745 15.0157 9.70143 14.9622 9.66377C14.9087 9.62611 14.8628 9.57756 14.827 9.52093C14.7566 9.40754 14.7294 9.26992 14.7509 9.136C14.7721 9.00031 14.8423 8.87875 14.9466 8.79727C15.0514 8.71705 15.1811 8.6826 15.309 8.70104C15.371 8.71464 15.4297 8.74134 15.4817 8.77956C15.5337 8.81777 15.5779 8.8667 15.6118 8.92346C15.6456 8.98021 15.6683 9.04363 15.6786 9.1099ZM10.2908 11.6948C10.2998 11.7019 10.3072 11.7106 10.3128 11.7203C10.3291 11.7443 10.3391 11.7717 10.3418 11.8002C10.3446 11.8287 10.34 11.8574 10.3284 11.8838C10.2792 12.0061 10.0282 12.1297 9.58434 12.262L9.35062 13.5732C10.0182 13.6239 10.2887 13.3544 10.2936 13.3495L10.2954 13.3476L10.2972 13.3459C10.3385 13.3074 10.3939 13.2859 10.4516 13.2859C10.5092 13.2859 10.5646 13.3074 10.6059 13.3459L10.6072 13.3471C10.6474 13.3863 10.6699 13.4391 10.6699 13.4941C10.6699 13.5486 10.6478 13.6009 10.6081 13.6401C10.5714 13.6779 10.224 13.9978 9.50342 13.9978L9.50275 13.9978C9.35561 13.9966 9.2088 13.9843 9.06371 13.9608C8.55039 13.8767 8.19828 13.6832 7.97187 13.5057C7.85885 13.4171 7.77743 13.3328 7.7229 13.2684C7.69563 13.2363 7.67508 13.2091 7.66066 13.1889C7.65345 13.1788 7.6478 13.1705 7.64363 13.1642C7.64001 13.1587 7.63631 13.153 7.63631 13.153L7.63409 13.1496L7.63226 13.146C7.60793 13.0981 7.60355 13.0431 7.62002 12.9922C7.6365 12.9413 7.67259 12.8984 7.72098 12.872C7.76937 12.8456 7.82644 12.8378 7.88064 12.8501C7.93484 12.8624 7.98211 12.894 8.01288 12.9384L8.0143 12.9404L8.01558 12.9426C8.01984 12.9497 8.25386 13.3311 8.91934 13.5023L9.15539 12.1781C8.59056 11.7706 8.59056 11.6309 8.59056 11.5824C8.59083 11.5545 8.59844 11.5271 8.6127 11.5027C8.62695 11.4783 8.64739 11.4578 8.67213 11.443C8.9121 11.2975 10.0932 11.5134 10.2908 11.6948Z" fill="#00AD66"/>
<path d="M26.1028 11.8534L26.0391 11.8714C25.247 11.9883 24.4467 12.0471 23.6453 12.0472C22.2782 12.019 20.9178 11.8571 19.5851 11.564C18.8823 13.2704 17.6594 14.7349 16.0755 15.767C14.4916 16.799 12.62 17.351 10.704 17.351C8.76835 17.3533 6.87804 16.79 5.28568 15.7363C5.10929 16.4454 4.98077 17.1647 4.90093 17.8896C4.74182 21.5607 5.06293 25.4284 6.14197 28.8169C6.29019 29.283 6.59091 29.6911 6.99978 29.981C7.40865 30.271 7.90404 30.4275 8.41287 30.4275H12.136C12.2188 30.4275 12.3006 30.4099 12.3754 30.3758C12.4501 30.3417 12.516 30.2921 12.5681 30.2305C12.6203 30.1689 12.6574 30.0969 12.6767 30.0198C12.696 29.9427 12.6971 29.8624 12.6798 29.7849L11.3896 23.9688C10.9803 22.1271 11.9971 20.4986 13.8341 20.1316C15.8403 19.73 17.5818 20.9015 17.9839 22.7115L19.575 29.8555C19.6111 30.0175 19.7042 30.1627 19.8388 30.2668C19.9733 30.3709 20.1411 30.4276 20.3141 30.4275H24.5609C24.7337 30.4278 24.9015 30.3711 25.0358 30.267C25.1702 30.1628 25.263 30.0175 25.2985 29.8555L26.8708 22.7793C27.2671 20.9943 29.0636 19.7826 30.9382 20.1136C32.8836 20.4556 33.8585 22.2642 33.4506 24.1046L32.1908 29.7822C32.1733 29.8607 32.1744 29.942 32.194 30.0201C32.2136 30.0982 32.2512 30.1711 32.304 30.2335C32.3569 30.2959 32.4236 30.3462 32.4994 30.3807C32.5751 30.4152 32.658 30.4331 32.7419 30.433H36.3044C36.8085 30.4331 37.2992 30.2781 37.7041 29.9909C38.1091 29.7036 38.4069 29.2994 38.5536 28.8377C39.6095 25.5281 39.9422 21.7629 39.812 18.168C39.7513 17.6639 39.5835 16.7596 39.4635 16.2182C38.2995 16.8316 37.0146 17.2056 35.6909 17.3164C34.3673 17.4271 33.0341 17.272 31.7767 16.8612C30.5192 16.4503 29.3652 15.7927 28.3884 14.9304C27.4116 14.0681 26.6336 13.02 26.1042 11.8534H26.1028Z" fill="#00AD66"/>
</svg>
