<svg width="181" height="42" viewBox="0 0 181 42" fill="none" xmlns="http://www.w3.org/2000/svg">
<path d="M142.587 41.149C142.446 41.149 142.31 41.0929 142.211 40.9931C142.111 40.8932 142.055 40.7578 142.055 40.6166V31.2984C142.055 28.045 144.855 26.373 147.815 26.373C151.051 26.373 153.388 28.668 153.388 31.6977C153.388 35.1801 150.631 36.9958 147.985 36.9958C147.575 37.0006 147.167 36.9596 146.766 36.8733C146.647 36.8452 146.541 36.7769 146.466 36.6799C146.392 36.5829 146.353 36.4632 146.356 36.3408V34.3973C146.355 34.3196 146.371 34.2426 146.403 34.1718C146.435 34.1009 146.482 34.0379 146.541 33.9872C146.6 33.9364 146.669 33.8992 146.744 33.878C146.818 33.8569 146.897 33.8524 146.974 33.8649C147.23 33.9134 147.49 33.9366 147.751 33.9341C148.059 33.949 148.367 33.9012 148.656 33.7935C148.945 33.6858 149.209 33.5206 149.433 33.3077C149.656 33.0949 149.834 32.8389 149.955 32.5553C150.077 32.2717 150.139 31.9663 150.139 31.6578C150.139 31.3492 150.077 31.0439 149.955 30.7603C149.834 30.4767 149.656 30.2207 149.433 30.0078C149.209 29.795 148.945 29.6297 148.656 29.5221C148.367 29.4144 148.059 29.3666 147.751 29.3815C146.154 29.3815 145.393 30.5103 145.393 32.0758V40.5952C145.393 40.7365 145.336 40.8719 145.237 40.9718C145.137 41.0716 145.001 41.1277 144.86 41.1277L142.587 41.149Z" fill="#393939"/>
<path d="M159.016 32.6087L158.319 31.5118C158.244 31.3936 158.22 31.2508 158.249 31.1144C158.279 30.9779 158.362 30.8587 158.479 30.7823L160.773 29.2754C160.389 29.0249 159.937 28.9002 159.479 28.9187C158.101 28.9187 157.35 30.3191 157.35 31.5278C157.35 32.7365 158.25 34.0943 159.607 34.0943C160.672 34.0943 161.774 33.2583 162.359 32.2679C162.428 32.1499 162.539 32.0625 162.669 32.0239C162.8 31.9853 162.941 31.9983 163.062 32.0602L164.531 32.8164C164.595 32.8484 164.652 32.8929 164.698 32.9472C164.744 33.0015 164.779 33.0646 164.8 33.1326C164.822 33.2007 164.829 33.2723 164.822 33.3433C164.815 33.4143 164.794 33.4831 164.76 33.5458C164.272 34.5655 163.51 35.4297 162.56 36.0425C161.61 36.6553 160.508 36.9928 159.378 37.0175C157.966 37.0175 156.612 36.4565 155.614 35.458C154.616 34.4594 154.055 33.105 154.055 31.6928C154.055 30.2806 154.616 28.9263 155.614 27.9277C156.612 26.9292 157.966 26.3682 159.378 26.3682C161.508 26.3682 163.014 27.4331 164.079 29.153C164.155 29.2693 164.182 29.4107 164.155 29.547C164.129 29.6832 164.05 29.8036 163.935 29.8825L159.767 32.7524C159.708 32.7934 159.643 32.8222 159.573 32.8371C159.503 32.852 159.431 32.8528 159.361 32.8394C159.291 32.826 159.225 32.7987 159.165 32.759C159.106 32.7194 159.055 32.6683 159.016 32.6087Z" fill="#393939"/>
<path d="M171.309 27.071V29.0571C171.309 29.1983 171.253 29.3337 171.153 29.4336C171.053 29.5334 170.918 29.5895 170.777 29.5895H169.462C169.321 29.5895 169.185 29.6456 169.085 29.7455C168.986 29.8453 168.93 29.9808 168.93 30.122V32.2998C168.93 33.4712 169.35 33.6789 170.644 33.7215C170.873 33.7215 171.123 33.7215 171.352 33.6789V36.2347C171.352 36.3759 171.296 36.5114 171.196 36.6112C171.096 36.7111 170.961 36.7672 170.819 36.7672H169.473C166.928 36.7672 165.746 35.058 165.746 33.1358V24.6536C165.746 24.5123 165.802 24.3769 165.902 24.2771C166.002 24.1772 166.137 24.1211 166.278 24.1211H168.445C168.586 24.1211 168.722 24.1772 168.822 24.2771C168.921 24.3769 168.977 24.5123 168.977 24.6536V26.006C168.977 26.1473 169.034 26.2827 169.133 26.3825C169.233 26.4824 169.369 26.5385 169.51 26.5385H170.803C170.94 26.5453 171.069 26.6044 171.163 26.7036C171.257 26.8027 171.309 26.9342 171.309 27.071Z" fill="#393939"/>
<path d="M172.409 34.4619C172.409 34.3207 172.465 34.1853 172.565 34.0854C172.665 33.9856 172.8 33.9295 172.941 33.9295H175.603C175.997 33.9295 176.189 33.7431 176.189 33.4715C176.189 32.5078 172.494 32.8645 172.494 29.5047C172.494 27.5825 174.161 26.624 175.747 26.624H178.473C178.614 26.624 178.749 26.6801 178.849 26.78C178.949 26.8798 179.005 27.0153 179.005 27.1565V28.8071C179.005 28.9484 178.949 29.0838 178.849 29.1836C178.749 29.2835 178.614 29.3396 178.473 29.3396H176.396C175.997 29.3396 175.71 29.5473 175.71 29.8188C175.71 30.6335 179.612 30.8412 179.612 33.5461C179.612 35.6121 178.318 36.7409 176.125 36.7409H172.931C172.79 36.7409 172.654 36.6848 172.554 36.5849C172.455 36.4851 172.398 36.3497 172.398 36.2084L172.409 34.4619Z" fill="#393939"/>
<path d="M50.4862 34.9297C49.2157 33.3712 48.581 31.1819 48.5821 28.3621C48.5427 26.4294 49.0368 24.5222 50.0119 22.8431C50.9473 21.2634 52.326 19.9817 53.9831 19.151C55.7471 18.2721 57.7022 17.828 59.6799 17.8568C61.238 17.8222 62.7923 18.0221 64.2887 18.4497C65.6222 18.8803 66.8259 19.3459 67.2867 20.5211C67.7476 21.6963 67.9846 35.4424 67.9846 35.4424C68.0051 35.6212 67.993 35.8021 67.9489 35.9768C67.9056 36.1467 67.83 36.307 67.7262 36.4493C67.4236 36.6553 67.0544 36.7445 66.6892 36.6998H62.3966C62.197 36.7091 61.9982 36.6689 61.8186 36.5829C61.6572 36.4801 61.5279 36.3357 61.4446 36.1654L60.9006 35.2136C60.265 35.884 59.4882 36.41 58.6242 36.7549C57.6341 37.1193 56.582 37.2933 55.5251 37.2676C53.4374 37.2676 51.7578 36.4883 50.4862 34.9297ZM60.2816 31.2142C60.5935 31.2142 61.0189 31.0077 61.2033 30.7365C61.3262 30.5557 61.572 30.2845 61.572 29.7421C61.572 29.1997 61.2955 24.4988 61.2955 24.4988C61.1111 23.8567 59.9532 23.8458 59.6731 23.8567C59.2486 23.8374 58.5342 24.027 58.1616 24.2276C57.9058 24.3652 57.7007 24.4084 57.1476 24.9508C56.4804 25.6053 55.9505 26.479 55.9494 27.934C55.9494 29.8399 57.3254 31.2154 58.5528 31.2142C58.811 31.2202 58.8989 31.2142 59.2676 31.2142C59.5442 31.2142 59.9696 31.2142 60.2816 31.2142Z" fill="#393939"/>
<path d="M118.824 27.5656C118.824 24.5732 117.928 22.2069 116.136 20.4669C114.344 18.7269 111.851 17.8569 108.656 17.8569C106.765 17.8098 104.891 18.2155 103.196 19.0392C101.707 19.7824 100.49 20.9595 99.7088 22.409C98.9242 24.012 98.5168 25.7678 98.5168 27.5464C98.5168 29.325 98.9242 31.0809 99.7088 32.6838C100.495 34.1337 101.711 35.3147 103.196 36.0703C104.907 36.8588 106.775 37.2676 108.665 37.2676C110.556 37.2676 112.424 36.8588 114.135 36.0703C115.616 35.3094 116.831 34.1298 117.622 32.6838C118.454 31.1042 118.868 29.3438 118.824 27.5656ZM111.626 29.526C111.376 30.0576 110.97 30.5036 110.46 30.8069C109.897 31.1039 109.268 31.2593 108.629 31.2593C107.99 31.2593 107.361 31.1039 106.798 30.8069C106.287 30.5049 105.88 30.0585 105.632 29.526C105.368 28.9107 105.232 28.2499 105.232 27.5823C105.232 26.9147 105.368 26.2538 105.632 25.6385C105.878 25.1059 106.285 24.6605 106.798 24.3628C107.355 24.0538 107.986 23.8996 108.625 23.9169C109.697 23.9169 110.532 24.2459 111.131 24.9038C111.731 25.5618 112.031 26.4568 112.032 27.589C112.047 28.2565 111.908 28.9186 111.626 29.526Z" fill="#393939"/>
<path d="M140.539 27.5639C140.539 24.5737 139.641 22.2081 137.847 20.4669C136.053 18.7258 133.56 17.8558 130.367 17.8569C128.476 17.8098 126.602 18.2155 124.907 19.0392C123.417 19.7809 122.199 20.9583 121.42 22.409C120.635 24.012 120.228 25.7678 120.228 27.5464C120.228 29.325 120.635 31.0809 121.42 32.6838C122.204 34.1351 123.42 35.3166 124.907 36.0703C126.618 36.8588 128.486 37.2676 130.377 37.2676C132.267 37.2676 134.135 36.8588 135.846 36.0703C137.324 35.3075 138.535 34.1282 139.325 32.6838C140.161 31.1047 140.579 29.3437 140.539 27.5639ZM133.386 29.526C133.136 30.0576 132.73 30.5036 132.22 30.8069C131.657 31.1039 131.028 31.2593 130.389 31.2593C129.75 31.2593 129.121 31.1039 128.558 30.8069C128.047 30.5049 127.641 30.0585 127.392 29.526C127.128 28.9107 126.993 28.2499 126.993 27.5823C126.993 26.9147 127.128 26.2538 127.392 25.6385C127.639 25.1059 128.046 24.6605 128.558 24.3628C129.115 24.0538 129.747 23.8996 130.386 23.9169C131.457 23.9169 132.292 24.2459 132.892 24.9038C133.491 25.5618 133.792 26.4568 133.793 27.589C133.807 28.2565 133.669 28.9186 133.386 29.526Z" fill="#393939"/>
<path d="M95.6832 20.3082C95.4554 19.3764 94.7295 18.7435 93.9168 18.7435H89.881C89.6192 18.7435 89.4016 19.0208 89.4339 19.3263L90.8619 28.1867C90.9084 28.44 90.9029 28.6999 90.8458 28.9512C90.7887 29.2024 90.6811 29.4399 90.5293 29.6497C90.3775 29.8596 90.1846 30.0376 89.9619 30.1732C89.7392 30.3089 89.4911 30.3994 89.2323 30.4397C88.9734 30.4799 88.709 30.469 88.4545 30.4075C88.2 30.3461 87.9606 30.2353 87.7503 30.0818C87.5399 29.9283 87.3629 29.735 87.2296 29.5134C87.0963 29.2918 87.0094 29.0463 86.9739 28.7912L85.4116 20.7474C85.3977 20.6034 85.3327 20.4688 85.228 20.3671C85.1233 20.2655 84.9855 20.2032 84.8387 20.1913H81.9622C81.8084 20.1914 81.6596 20.2446 81.5418 20.3417C81.424 20.4388 81.3447 20.5736 81.3179 20.7223L79.8134 28.7912C79.778 29.0463 79.6911 29.2918 79.5577 29.5134C79.4244 29.735 79.2474 29.9283 79.0371 30.0818C78.8267 30.2353 78.5873 30.3461 78.3328 30.4075C78.0783 30.469 77.8139 30.4799 77.5551 30.4397C77.2962 30.3994 77.0482 30.3089 76.8255 30.1732C76.6028 30.0376 76.4098 29.8596 76.2581 29.6497C76.1063 29.4399 75.9987 29.2024 75.9416 28.9512C75.8844 28.6999 75.879 28.44 75.9254 28.1867L76.24 26.243C76.2841 25.7788 76.3573 25.3145 76.4321 24.887L77.3433 19.3998C77.4011 19.0742 77.1478 18.7435 76.869 18.7435H72.913C72.1089 18.7435 71.4017 19.3714 71.1654 20.2882C70.6656 22.2202 69.5826 25.7671 69.7798 30.7433C69.977 35.7196 76.6089 40.3285 83.0044 34.6675C83.1131 34.5706 83.2542 34.5161 83.4011 34.5142C83.548 34.5124 83.6904 34.5633 83.8017 34.6575C90.5457 40.3218 97.0177 35.3706 97.0177 30.7433C97.0177 26.1161 96.0878 21.9781 95.6832 20.3082Z" fill="#393939"/>
<path d="M9.21736 1.481C8.98999 2.87267 8.20727 4.11951 7.04071 4.94831C5.87415 5.7771 4.41891 6.12025 2.99387 5.90256C0.215431 5.42713 -0.324694 3.79638 0.157031 1.12442C0.23002 0.720301 0.278683 0.444549 0.312744 0.263883C0.320803 0.222995 0.337352 0.184164 0.361391 0.149782C0.382722 0.113224 0.412765 0.0822341 0.448974 0.0594479C0.4839 0.0345083 0.523617 0.0167122 0.565752 0.00714227C0.60736 -0.00238076 0.650662 -0.00238076 0.69227 0.00714227L9.21736 1.481Z" fill="#393939"/>
<path d="M17.6135 2.89285C17.3386 4.27373 17.6328 5.70521 18.4319 6.87368C19.2309 8.04216 20.4695 8.85236 21.8764 9.12677C24.6424 9.60192 25.7178 8.25725 26.1973 5.58692C26.27 5.18305 26.3184 4.91221 26.3572 4.72691C26.3712 4.64394 26.3521 4.55889 26.3039 4.48933C26.2796 4.45552 26.2486 4.42677 26.2129 4.40475C26.1771 4.38273 26.1373 4.36789 26.0956 4.36105L17.6135 2.89285Z" fill="#393939"/>
<path fill-rule="evenodd" clip-rule="evenodd" d="M50.7869 2.53463L51.6675 7.30449H51.6482C52.0121 9.3945 51.7251 11.5442 50.825 13.4702C49.925 15.3962 48.4541 17.0083 46.6063 18.0939C45.5331 18.7281 44.3505 19.1615 43.1176 19.3722C40.8094 19.7695 38.4326 19.3954 36.3647 18.3091C34.2968 17.2229 32.6561 15.4868 31.7033 13.3765C31.3587 12.6143 31.1101 11.8134 30.963 10.9916L30.063 6.13112C30.0348 5.9572 30.0481 5.77919 30.1017 5.6112C30.1544 5.43978 30.2497 5.28409 30.379 5.15829C30.5083 5.03248 30.6675 4.94057 30.8421 4.89094C31.0124 4.83789 31.193 4.82483 31.3695 4.85279L35.821 5.6112C37.1796 4.68865 38.724 4.06578 40.3489 3.78509C41.9739 3.5044 43.6411 3.57247 45.237 3.98467L49.1611 1.77147C49.3089 1.68736 49.4746 1.63835 49.6449 1.62836C49.8232 1.62036 50.0008 1.65471 50.1627 1.72853C50.3257 1.80232 50.4672 1.91553 50.574 2.05765C50.6852 2.19603 50.7585 2.36028 50.7869 2.53463ZM39.2226 9.58341C38.6231 9.14703 37.8738 8.96256 37.1376 9.0701C36.5123 9.24012 35.9656 9.61395 35.5839 10.1279C35.9417 10.1059 36.2978 10.2068 36.5911 10.4159C36.8365 10.5912 37.0251 10.8337 37.1339 11.1137C37.2427 11.3937 37.267 11.6991 37.2037 11.9926C37.1405 12.2861 36.9925 12.5549 36.7778 12.7662C36.5631 12.9776 36.291 13.1222 35.9949 13.1825C35.9234 13.1932 35.8514 13.1986 35.7795 13.1986H36.1495L36.2803 13.1746H36.3093C36.3523 13.1701 36.3946 13.1605 36.4353 13.1459H36.4643L36.6145 13.1075H36.6435L36.8082 13.0643L37.2248 12.9589C37.286 12.9464 37.3458 12.9333 37.4053 12.9202C37.506 12.8981 37.6057 12.8762 37.7092 12.8582L38.087 12.8054H38.2129L38.4648 12.7718H39.3124L39.4723 12.7383H39.5159L39.7048 12.6807H39.758L39.8695 12.6328L39.9324 12.604L40.0244 12.5465L40.0777 12.5129L40.1649 12.4362L40.1988 12.4026C40.2349 12.3635 40.2658 12.32 40.2909 12.2732C40.2934 12.2621 40.2934 12.2507 40.2909 12.2396C40.3115 12.201 40.3293 12.1609 40.3441 12.1197V12.0622C40.3545 12.0211 40.3626 11.9795 40.3684 11.9375C40.3639 11.9137 40.3639 11.8894 40.3684 11.8656C40.3733 11.8178 40.3733 11.7696 40.3684 11.7217V11.6498C40.3637 11.5662 40.354 11.4829 40.3393 11.4005C40.2235 10.6728 39.8222 10.0198 39.2226 9.58341ZM35.7772 13.1986C35.695 13.1985 35.613 13.1916 35.5319 13.1777C35.5545 13.1872 35.578 13.1943 35.6021 13.1986H35.7772ZM45.2319 7.62568C45.9727 7.51378 46.728 7.6983 47.3318 8.13867C47.9356 8.57904 48.3386 9.23923 48.4522 9.97425C48.4666 10.0571 48.4764 10.1406 48.4813 10.2245V10.5181C48.484 10.5581 48.484 10.5983 48.4813 10.6384C48.484 10.6592 48.484 10.6802 48.4813 10.701C48.4685 10.7431 48.4506 10.7835 48.4279 10.8213C48.4254 10.8265 48.424 10.8323 48.424 10.8381C48.424 10.844 48.4254 10.8497 48.4279 10.855C48.3988 10.9005 48.3664 10.944 48.3309 10.9849C48.3309 10.9849 48.3309 11.0138 48.3018 11.0138L48.2097 11.0908L48.1612 11.1245C48.1318 11.1482 48.0991 11.1677 48.0642 11.1822L48.0109 11.2111L47.8896 11.264H47.8411L47.652 11.3218L47.4628 11.3651H47.3998L47.2397 11.394H47.167L46.9924 11.418H46.9342L46.6869 11.4469L46.3183 11.5143H46.2261L45.8479 11.5769C45.7367 11.5769 45.6299 11.6053 45.5216 11.6342C45.4693 11.6481 45.4166 11.6621 45.3629 11.6731L44.9507 11.779L44.5918 11.8704L44.4463 11.9041L44.3105 11.933H44.0341C43.9588 11.9328 43.8838 11.9231 43.811 11.9041C43.7752 11.8995 43.7406 11.888 43.7091 11.8704C43.6791 11.8579 43.6499 11.8435 43.6218 11.8271L43.5394 11.7597C43.5188 11.7379 43.5002 11.7144 43.4837 11.6894C43.5032 11.6952 43.5229 11.7006 43.5426 11.7056C43.736 11.7548 43.9375 11.7652 44.1351 11.736C44.5276 11.644 44.8693 11.4086 45.0905 11.0781C45.3117 10.7475 45.3956 10.3468 45.3251 9.95773C45.2545 9.56867 45.0349 9.22066 44.711 8.98484C44.3911 8.75187 43.9933 8.64578 43.5972 8.68739C43.9694 8.14194 44.5437 7.74465 45.2319 7.62568ZM45.0235 15.1958C45.028 15.1303 45.0584 15.069 45.1085 15.0252C45.1592 14.9807 45.2258 14.9578 45.2938 14.9616C45.3617 14.9653 45.4253 14.9954 45.4706 15.0451C45.516 15.0949 45.5393 15.1602 45.5355 15.2269C45.5123 15.6105 45.3551 15.975 45.0904 16.2583C44.8256 16.5417 44.4694 16.727 44.0816 16.783L44.0803 16.7832C43.9985 16.7937 43.9161 16.7988 43.8337 16.7984C43.425 16.797 43.0304 16.6518 42.7217 16.389C42.6543 16.3316 42.5919 16.2694 42.535 16.2032C42.4829 16.3207 42.4169 16.4329 42.3374 16.5373C42.0675 16.892 41.6652 17.1272 41.2187 17.1916C41.1384 17.2032 41.0571 17.2083 40.9759 17.207C40.6258 17.2064 40.2844 17.1004 39.9977 16.9033C39.7109 16.7061 39.4928 16.4271 39.3729 16.1043L39.3714 16.1003L39.3703 16.0962C39.354 16.0349 39.3618 15.9698 39.392 15.9138C39.4223 15.8578 39.4728 15.815 39.5337 15.7938C39.5946 15.7726 39.6614 15.7745 39.7209 15.7993C39.7804 15.824 39.8282 15.8698 39.855 15.9274L39.8559 15.9294C39.9679 16.1869 40.1699 16.3968 40.4257 16.5212C40.6815 16.6456 40.9741 16.6763 41.2509 16.6079C41.3882 16.574 41.5171 16.5167 41.6323 16.4398C41.7494 16.3616 41.8524 16.2631 41.9356 16.1479C42.0759 15.9539 42.1522 15.7236 42.1561 15.4877C42.1568 15.4467 42.1553 15.4055 42.1516 15.3643L42.1186 15.1424C41.3169 14.8444 41.267 14.678 41.2497 14.6203L41.2495 14.6197C41.2412 14.5886 41.2405 14.5559 41.2475 14.5245C41.2546 14.493 41.2692 14.4637 41.2901 14.4389C41.5039 14.1858 42.9068 14.014 43.1963 14.1514C43.2086 14.1565 43.2199 14.1639 43.2294 14.1731C43.2547 14.1939 43.275 14.2199 43.2887 14.2493C43.3024 14.2787 43.3092 14.3107 43.3087 14.3431C43.3021 14.5037 43.0727 14.7503 42.626 15.0776L42.6585 15.2967C42.7151 15.5706 42.8694 15.8158 43.0937 15.9882C43.3187 16.1612 43.5993 16.2495 43.8848 16.2373C44.1704 16.2252 44.4421 16.1133 44.6509 15.9219C44.8592 15.7311 44.9913 15.4736 45.0235 15.1958ZM35.0443 11.1475C35.0238 11.0578 35.0205 10.9648 35.0345 10.8737C35.0486 10.7827 35.0798 10.6956 35.1262 10.6177C35.1727 10.5397 35.2334 10.4725 35.3049 10.42C35.3763 10.3676 35.4569 10.3309 35.5419 10.3122C35.7176 10.2874 35.8955 10.3347 36.0396 10.4444C36.1814 10.5569 36.276 10.7239 36.3033 10.9096C36.3207 11.0013 36.3208 11.0957 36.3036 11.1874C36.2865 11.2791 36.2524 11.3663 36.2033 11.444C36.1543 11.5216 36.0913 11.5882 36.0179 11.6399C35.9445 11.6915 35.8622 11.7272 35.7758 11.7449C35.6906 11.7582 35.6038 11.7533 35.5205 11.7302C35.4372 11.7072 35.3591 11.6666 35.2908 11.6109C35.2226 11.5552 35.1656 11.4854 35.1232 11.4058C35.0809 11.3262 35.054 11.2383 35.0443 11.1475ZM43.1459 9.53499C43.1318 9.61417 43.135 9.69518 43.1554 9.77316C43.1652 9.8531 43.1921 9.93041 43.2346 10.0005C43.2771 10.0706 43.3343 10.132 43.4028 10.1811C43.4713 10.2302 43.5497 10.2659 43.6334 10.2863C43.7171 10.3066 43.8043 10.3111 43.8899 10.2994C44.0646 10.2661 44.218 10.1699 44.3166 10.0317C44.4122 9.89332 44.4479 9.72643 44.4166 9.56457C44.3853 9.40271 44.2893 9.25787 44.1479 9.15917C44.0774 9.11075 43.9971 9.076 43.9119 9.05697C43.8266 9.03794 43.7382 9.03502 43.6517 9.04838C43.5671 9.06415 43.4868 9.09566 43.4156 9.14102C43.3444 9.18639 43.2838 9.24469 43.2375 9.31239C43.1911 9.38009 43.16 9.4558 43.1459 9.53499Z" fill="#393939"/>
<path fill-rule="evenodd" clip-rule="evenodd" d="M21.9839 10.6778C20.1093 10.3575 18.4411 9.32013 17.3463 7.79374C16.2516 6.26736 15.8198 4.37703 16.1461 2.53849L10.8726 1.62723C10.5382 3.46376 9.47435 5.09513 7.91466 6.16317C6.35496 7.23121 4.42685 7.64865 2.55362 7.32384C2.32013 7.28604 2.08938 7.23344 1.86282 7.16638L1.81902 7.39061C1.33392 10.0932 1.96275 12.8742 3.56733 15.1224C5.17192 17.3705 7.62098 18.902 10.3763 19.3802C12.7468 19.7735 15.1832 19.3697 17.2903 18.2343C19.3973 17.0989 21.0513 15.2985 21.9839 13.1254C22.2913 12.4148 22.5149 11.672 22.6504 10.9116L22.6747 10.7685C22.443 10.7495 22.2125 10.7193 21.9839 10.6778ZM8.17364 7.62568C7.44494 7.51378 6.702 7.6983 6.10805 8.13867C5.5141 8.57904 5.11771 9.23923 5.006 9.97425C4.99176 10.0571 4.9822 10.1406 4.97738 10.2245V10.5181C4.98411 10.5588 4.99367 10.599 5.006 10.6384V10.701C5.02059 10.7423 5.03812 10.7825 5.05847 10.8213C5.061 10.8265 5.06234 10.8323 5.06234 10.8381C5.06234 10.844 5.061 10.8497 5.05847 10.855L5.15388 10.9849C5.15388 10.9849 5.15388 11.0138 5.1825 11.0138L5.27315 11.0908L5.32087 11.1245C5.35147 11.1483 5.38516 11.1677 5.42103 11.1822L5.47353 11.2111L5.59279 11.264H5.63571L5.82177 11.3218L6.00783 11.3651H6.06985L6.22726 11.394H6.29882L6.47056 11.418H6.5278L6.7711 11.4469L7.13367 11.5143H7.22431L7.5964 11.5769C7.70809 11.5769 7.81751 11.6065 7.92623 11.636C7.97539 11.6493 8.02444 11.6626 8.07345 11.6731H8.17364L8.57438 11.779L8.9274 11.8704L9.07051 11.9041L9.20885 11.933H9.49987C9.57396 11.9332 9.64773 11.9235 9.7193 11.9041C9.75302 11.8995 9.78548 11.888 9.81471 11.8704C9.8427 11.8579 9.86979 11.8434 9.8958 11.8271L9.97215 11.7597C9.98738 11.7444 10.0007 11.727 10.0145 11.709C10.0223 11.6988 10.0303 11.6884 10.0389 11.6779C10.0389 11.675 10.0392 11.6721 10.0397 11.6692C9.99979 11.683 9.9592 11.6952 9.91807 11.7056C9.72471 11.7548 9.52317 11.7652 9.32562 11.736C8.93312 11.644 8.59138 11.4086 8.3702 11.0781C8.14902 10.7475 8.06511 10.3468 8.13565 9.95773C8.20619 9.56867 8.42582 9.22066 8.74968 8.98484C9.05318 8.76385 9.42673 8.65702 9.80244 8.68214C9.42207 8.13939 8.85496 7.74426 8.17364 7.62568ZM14.2752 9.5813C14.8957 9.14386 15.6715 8.9607 16.4324 9.07195C17.0924 9.24122 17.6688 9.62495 18.0653 10.155C18.046 10.1503 18.0267 10.146 18.0072 10.142C17.607 10.0823 17.1992 10.1808 16.8715 10.4162C16.6259 10.5912 16.4369 10.8332 16.3277 11.1129C16.2184 11.3925 16.1937 11.6977 16.2565 11.991C16.3193 12.2843 16.4669 12.5532 16.6812 12.7648C16.8956 12.9764 17.1675 13.1215 17.4636 13.1825C17.658 13.2115 17.8563 13.2012 18.0465 13.1522C18.1258 13.1318 18.203 13.1049 18.2773 13.0718C18.2567 13.091 18.234 13.1079 18.2094 13.1221C18.1833 13.1401 18.1548 13.1546 18.1247 13.1651C18.0936 13.1812 18.06 13.1925 18.0252 13.1986H17.4976L17.3632 13.1747H17.3333C17.2892 13.1697 17.2458 13.1601 17.2039 13.146H17.179L17.0197 13.1078H16.9003L16.731 13.0647L16.298 12.9595C16.2351 12.9471 16.1736 12.934 16.1125 12.921C16.009 12.8989 15.9066 12.8771 15.8002 12.8591L15.412 12.8065H15.2826L15.0237 12.773H14.1576L13.9934 12.7396H13.9486L13.7545 12.6822H13.6947L13.5803 12.6344L13.5205 12.6057L13.421 12.5483L13.3712 12.5148L13.2766 12.4383L13.2467 12.4048C13.2081 12.3659 13.1747 12.3226 13.1472 12.2757V12.2423C13.1239 12.2047 13.1056 12.1646 13.0924 12.1227V12.0653C13.0901 12.0239 13.0901 11.9824 13.0924 11.941C13.097 11.9173 13.097 11.893 13.0924 11.8693C13.0874 11.8216 13.0874 11.7735 13.0924 11.7258V11.6541C13.0972 11.5707 13.1072 11.4877 13.1223 11.4055C13.2401 10.6748 13.6547 10.0187 14.2752 9.5813ZM10.3148 9.53672C10.3289 9.61626 10.3257 9.69763 10.3053 9.77597C10.2949 9.85541 10.2677 9.93215 10.2252 10.0017C10.1828 10.0712 10.1259 10.1321 10.058 10.1809C9.99011 10.2297 9.91249 10.2653 9.82967 10.2857C9.74685 10.3062 9.66049 10.311 9.57565 10.3C9.40092 10.2665 9.24747 10.1698 9.1488 10.031C9.09957 9.96396 9.06499 9.88847 9.0471 9.80889C9.02921 9.7293 9.02835 9.64719 9.04456 9.56729C9.07352 9.40381 9.16972 9.25737 9.3126 9.1592C9.38341 9.11103 9.46369 9.07641 9.54887 9.05731C9.63405 9.03821 9.72244 9.03501 9.80895 9.04791C9.89356 9.06375 9.97387 9.0954 10.0451 9.14097C10.1162 9.18654 10.1768 9.24511 10.2232 9.31312C10.2696 9.38112 10.3007 9.45717 10.3148 9.53672ZM18.4274 10.9855C18.4394 11.0654 18.4366 11.1471 18.4191 11.2258C18.4102 11.3052 18.3868 11.3818 18.3504 11.4512C18.3139 11.5205 18.265 11.5813 18.2066 11.6297C18.1483 11.6782 18.0816 11.7134 18.0105 11.7333C17.9395 11.7532 17.8655 11.7574 17.7929 11.7457C17.7188 11.7302 17.6483 11.6988 17.5854 11.6534C17.5226 11.608 17.4686 11.5494 17.4266 11.4811C17.3438 11.3444 17.3118 11.1784 17.3371 11.0169C17.362 10.8533 17.4445 10.7067 17.5671 10.6085C17.6902 10.5117 17.8427 10.4702 17.9931 10.4924C18.0659 10.5088 18.1349 10.541 18.196 10.5871C18.2571 10.6332 18.3091 10.6922 18.3489 10.7606C18.3886 10.8291 18.4153 10.9056 18.4274 10.9855ZM12.095 14.1026C12.1056 14.1111 12.1143 14.1216 12.1208 14.1333C12.1401 14.1622 12.1518 14.1953 12.155 14.2296C12.1582 14.264 12.1528 14.2986 12.1393 14.3304C12.0814 14.478 11.7863 14.627 11.2647 14.7865L10.99 16.3677C11.7746 16.4288 12.0926 16.1038 12.0983 16.0979L12.1004 16.0957L12.1026 16.0936C12.1511 16.0472 12.2162 16.0213 12.284 16.0213C12.3517 16.0213 12.4168 16.0472 12.4654 16.0936L12.4669 16.095C12.5142 16.1424 12.5406 16.206 12.5406 16.2722C12.5406 16.338 12.5146 16.4011 12.468 16.4483C12.4248 16.494 12.0165 16.8797 11.1696 16.8797L11.1688 16.8797C10.9959 16.8783 10.8233 16.8634 10.6528 16.8351C10.0495 16.7337 9.63565 16.5004 9.36954 16.2863C9.23671 16.1795 9.14101 16.0778 9.07691 16.0002C9.04486 15.9614 9.02071 15.9286 9.00377 15.9043C8.99529 15.8921 8.98865 15.8821 8.98374 15.8745C8.97949 15.8679 8.97514 15.8609 8.97514 15.8609L8.97254 15.8568L8.97039 15.8525C8.94179 15.7947 8.93664 15.7285 8.956 15.6671C8.97537 15.6057 9.01778 15.5539 9.07465 15.5221C9.13153 15.4903 9.19861 15.4808 9.26232 15.4957C9.32601 15.5106 9.38157 15.5486 9.41774 15.6022L9.41941 15.6047L9.42091 15.6072C9.42591 15.6158 9.70097 16.0758 10.4831 16.2822L10.7606 14.6853C10.0967 14.1939 10.0967 14.0255 10.0967 13.967C10.097 13.9333 10.106 13.9003 10.1227 13.8709C10.1395 13.8415 10.1635 13.8168 10.1926 13.7989C10.4746 13.6235 11.8628 13.8838 12.095 14.1026Z" fill="#393939"/>
<path d="M30.6792 14.2938L30.6044 14.3155C29.6734 14.4564 28.7328 14.5273 27.7909 14.5276C26.1841 14.4935 24.5852 14.2982 23.0189 13.9448C22.1929 16.0025 20.7556 17.7685 18.894 19.0131C17.0324 20.2577 14.8326 20.9233 12.5807 20.9232C10.3057 20.926 8.08393 20.2467 6.21239 18.9761C6.00507 19.8312 5.85402 20.6986 5.76018 21.5728C5.57318 25.9997 5.95059 30.6636 7.21881 34.7498C7.39301 35.3118 7.74646 35.8039 8.22701 36.1536C8.70757 36.5033 9.28981 36.692 9.88786 36.6919H14.2637C14.3611 36.692 14.4572 36.6708 14.5451 36.6297C14.633 36.5886 14.7104 36.5287 14.7716 36.4544C14.8329 36.3801 14.8765 36.2933 14.8992 36.2003C14.922 36.1074 14.9232 36.0106 14.9029 35.9171L13.3865 28.9036C12.9054 26.6826 14.1005 24.7188 16.2596 24.2763C18.6175 23.7921 20.6643 25.2048 21.1369 27.3873L23.007 36.0022C23.0494 36.1976 23.1589 36.3727 23.317 36.4982C23.4752 36.6237 23.6724 36.6921 23.8757 36.6919H28.867C29.0702 36.6924 29.2673 36.624 29.4252 36.4984C29.5831 36.3728 29.6922 36.1976 29.734 36.0022L31.5819 27.4692C32.0477 25.3167 34.1592 23.8555 36.3624 24.2546C38.6489 24.6671 39.7948 26.848 39.3154 29.0673L37.8346 35.9138C37.8141 36.0085 37.8154 36.1065 37.8384 36.2007C37.8615 36.2949 37.9056 36.3828 37.9677 36.4581C38.0298 36.5333 38.1083 36.594 38.1973 36.6356C38.2863 36.6772 38.3837 36.6987 38.4823 36.6986H42.6695C43.2619 36.6987 43.8386 36.5118 44.3146 36.1654C44.7906 35.8191 45.1406 35.3316 45.3131 34.7749C46.5541 30.7839 46.9451 26.2435 46.7921 21.9084C46.7207 21.3006 46.5235 20.2102 46.3824 19.5572C45.0143 20.2969 43.5041 20.748 41.9484 20.8815C40.3928 21.015 38.8258 20.828 37.3479 20.3326C35.87 19.8372 34.5136 19.0442 33.3656 18.0043C32.2176 16.9645 31.3032 15.7006 30.6809 14.2938H30.6792Z" fill="#393939"/>
</svg>
