<svg width="43" height="41" viewBox="0 0 43 41" fill="none" xmlns="http://www.w3.org/2000/svg">
<path d="M40.9999 19.9445C41.0076 22.7309 40.3223 25.4795 38.9999 27.9667C35.8021 34.0453 29.2642 37.8863 22.1111 37.8889C19.3114 37.8958 16.5479 37.303 14.0254 36.1565C13.7938 36.0512 13.5317 36.0316 13.2891 36.1084L2.90819 39.3957C2.12232 39.6446 1.38977 38.8892 1.6627 38.1113L5.07711 28.3802C5.1696 28.1166 5.14622 27.827 5.02135 27.5771C3.83053 25.194 3.21497 22.5862 3.22222 19.9445C3.225 13.149 7.26815 6.93803 13.6666 3.90006C16.2847 2.6438 19.178 1.9928 22.1111 2.00006H23.2222C32.8129 2.50271 40.4708 9.77778 40.9999 18.8889V19.9445Z" stroke="#00AD66" stroke-width="3" stroke-linecap="round" stroke-linejoin="round"/>
</svg>
