<svg width="38" height="39" viewBox="0 0 38 39" fill="none" xmlns="http://www.w3.org/2000/svg">
<g clip-path="url(#clip0)">
<g clip-path="url(#clip1)">
<path fill-rule="evenodd" clip-rule="evenodd" d="M18.6743 0.951172L0.34375 7.56332V30.7322L18.6736 37.3441L21.7357 36.244C23.1971 37.0343 24.8683 37.4835 26.6424 37.4835C32.3504 37.4835 36.9949 32.8371 37.0036 27.1225L37.0049 7.56332L18.6743 0.951172ZM18.6735 3.23852L32.7674 8.3224L27.5904 10.1991L13.49 5.10833L18.6735 3.23852ZM10.3219 6.25032L24.4302 11.344L18.674 13.4306L4.58021 8.32143L10.3219 6.25032ZM18.6754 35.0601L2.49228 29.2224V9.85462L17.6007 15.3315V22.0465C16.7611 23.5448 16.2814 25.2714 16.2814 27.1084C16.2814 30.115 17.5651 32.8265 19.6121 34.7235L18.6754 35.0601ZM26.6411 35.3317C22.1122 35.3317 18.4278 31.6417 18.4278 27.1061C18.4278 22.5703 22.1122 18.8803 26.6411 18.8803C31.1699 18.8803 34.8544 22.5703 34.8544 27.1061C34.8544 31.6417 31.1699 35.3317 26.6411 35.3317ZM34.8574 20.7914C32.9614 18.3243 29.9847 16.7313 26.643 16.7313C23.998 16.7313 21.5819 17.7295 19.749 19.3688V15.3315L34.8574 9.85462L34.8574 20.7914Z" fill="#00AD66"/>
<path d="M29.7269 24.6584C28.9048 23.7154 27.5714 23.7154 26.7493 24.6584L26.3436 25.1236L25.938 24.6584C25.1157 23.7157 23.7826 23.7157 22.9604 24.6584C22.1382 25.6011 22.1382 27.1295 22.9604 28.0722L23.3661 28.5374L26.3436 31.9512L29.3212 28.5374L29.7269 28.0722C30.5494 27.1297 30.5494 25.601 29.7269 24.6584Z" stroke="#00AD66" stroke-width="1.5" stroke-linecap="round" stroke-linejoin="round"/>
</g>
</g>
<defs>
<clipPath id="clip0">
<rect width="36.6611" height="36.5323" fill="white" transform="translate(0.34375 0.951172)"/>
</clipPath>
<clipPath id="clip1">
<rect width="36.6611" height="36.5323" fill="white" transform="translate(0.34375 0.951172)"/>
</clipPath>
</defs>
</svg>
