<svg width="43" height="43" viewBox="0 0 43 43" fill="none" xmlns="http://www.w3.org/2000/svg">
<path d="M40.7478 31.2448V37.1252C40.75 37.6711 40.6379 38.2115 40.4188 38.7117C40.1997 39.2119 39.8783 39.6609 39.4752 40.0299C39.0721 40.399 38.5963 40.68 38.0781 40.8548C37.56 41.0297 37.0109 41.0947 36.4661 41.0456C30.4224 40.3902 24.617 38.3291 19.5164 35.0279C14.7709 32.0184 10.7476 28.003 7.7321 23.2669C4.41281 18.1533 2.34715 12.3312 1.70247 6.27236C1.65338 5.73031 1.71793 5.184 1.892 4.66821C2.06606 4.15242 2.34583 3.67846 2.71349 3.27649C3.08115 2.87453 3.52865 2.55337 4.02749 2.33346C4.52633 2.11356 5.06559 1.99973 5.61092 1.99921H11.5031C12.4562 1.98985 13.3803 2.32671 14.103 2.94701C14.8257 3.56731 15.2978 4.42872 15.4312 5.37069C15.6799 7.25257 16.1411 9.10033 16.806 10.8787C17.0703 11.5803 17.1274 12.3428 16.9708 13.0758C16.8142 13.8089 16.4502 14.4817 15.9222 15.0147V15.0147C14.4494 16.4845 14.1143 18.7807 15.3406 20.4617C17.2696 23.1058 19.6014 25.4328 22.251 27.3577C23.9357 28.5816 26.2326 28.2466 27.7065 26.7756V26.7756C28.2405 26.2486 28.9147 25.8854 29.6492 25.7291C30.3836 25.5727 31.1476 25.6298 31.8506 25.8935C33.6325 26.5572 35.484 27.0174 37.3696 27.2656C38.3237 27.4 39.195 27.8796 39.8178 28.6132C40.4407 29.3469 40.7717 30.2835 40.7478 31.2448Z" stroke="#393939" stroke-width="3" stroke-linecap="round" stroke-linejoin="round"/>
</svg>
