<svg width="31" height="40" viewBox="0 0 31 40" fill="none" xmlns="http://www.w3.org/2000/svg">
<path d="M8.19138 13.9013L11.2247 16.7994L10.5268 20.8725C10.4782 21.1562 10.5989 21.4419 10.8389 21.6109C11.0786 21.7799 11.3962 21.8027 11.6594 21.6705L15.4385 19.7675L19.2174 21.6705C19.4784 21.8018 19.796 21.7813 20.0378 21.6109C20.2778 21.4419 20.3985 21.1562 20.3499 20.8725L19.652 16.7994L22.6853 13.9013C22.8966 13.6998 22.9721 13.3998 22.8804 13.1262C22.7887 12.8529 22.5456 12.6534 22.2525 12.6104L18.0429 11.9959L16.1382 8.30225C16.0059 8.04525 15.7347 7.88281 15.4385 7.88281C15.142 7.88281 14.8712 8.04525 14.7385 8.30225L12.8338 11.9959L8.62423 12.6104C8.33108 12.6531 8.08806 12.8529 7.99635 13.1262C7.90465 13.3998 7.98046 13.6998 8.19138 13.9013ZM13.4687 13.438C13.7206 13.4013 13.9382 13.248 14.0522 13.0272L15.4385 10.3384L16.8248 13.0272C16.9388 13.248 17.1564 13.4013 17.4083 13.438L20.4722 13.8853L18.2642 15.9943C18.083 16.1677 17.9998 16.4159 18.0414 16.6595L18.5494 19.624L15.7989 18.2391C15.6861 18.1822 15.5623 18.1538 15.4385 18.1538C15.3147 18.1538 15.1909 18.1822 15.0778 18.2391L12.3273 19.624L12.8353 16.6595C12.8772 16.4159 12.794 16.1677 12.6125 15.9943L10.4048 13.8853L13.4687 13.438Z" fill="#00AD66" stroke="#00AD66" stroke-width="0.2" stroke-linecap="round" stroke-linejoin="round"/>
<path d="M16.2204 1.59673C16.2204 2.01586 15.8701 2.35556 15.4378 2.35556C15.0056 2.35556 14.6553 2.01586 14.6553 1.59673C14.6553 1.17759 15.0056 0.837891 15.4378 0.837891C15.8701 0.837891 16.2204 1.17759 16.2204 1.59673Z" fill="#00AD66" stroke="#00AD66" stroke-width="0.2" stroke-linecap="round" stroke-linejoin="round"/>
<path d="M11.7507 1.28551C5.16778 2.91493 0.570312 8.65985 0.570312 15.2561C0.570312 19.3529 2.34664 23.2132 5.46491 25.947L0.75036 34.004C0.598741 34.2634 0.617693 34.5847 0.798658 34.8254C0.979622 35.0664 1.28897 35.1823 1.59007 35.1215L6.94411 34.0435L8.82589 39.1855C8.92799 39.4653 9.18935 39.6612 9.49442 39.6876C9.79949 39.714 10.092 39.5649 10.2433 39.3067L15.4387 30.4497L20.6338 39.3067C20.7738 39.5453 21.0343 39.6903 21.3137 39.6903C21.3366 39.6903 21.3598 39.6894 21.3827 39.6876C21.6878 39.6612 21.9492 39.465 22.0516 39.1855L23.9331 34.0435L29.2871 35.1215C29.5879 35.182 29.8975 35.0661 30.0785 34.8254C30.2598 34.5847 30.2784 34.2634 30.1268 34.004L25.4123 25.947C28.5305 23.2132 30.3069 19.3529 30.3069 15.2561C30.3069 8.65985 25.7094 2.91493 19.1268 1.28551C18.7077 1.18177 18.2819 1.42691 18.1749 1.833C18.0679 2.2391 18.3207 2.65231 18.7395 2.75605C24.6288 4.21385 28.7421 9.35406 28.7421 15.2561C28.7421 22.4392 22.7259 28.1563 15.4387 28.1563C8.14636 28.1563 2.13541 22.4345 2.13541 15.2561C2.13541 9.35406 6.24837 4.21385 12.1377 2.75605C12.5564 2.65231 12.8092 2.2391 12.7026 1.833C12.5956 1.42691 12.1698 1.18177 11.7507 1.28551ZM9.72888 37.1147L8.19099 32.9123C8.06016 32.5548 7.67744 32.3459 7.29442 32.4229L2.96503 33.2947L6.6962 26.9181C8.87175 28.4518 11.4477 29.3861 14.1264 29.6173L9.72888 37.1147ZM23.5827 32.4229C23.2 32.3459 22.817 32.5548 22.6862 32.9123L21.1486 37.1147L16.7507 29.6173C19.4297 29.3861 22.0054 28.4518 24.1813 26.9181L27.9124 33.2947L23.5827 32.4229Z" fill="#00AD66" stroke="#00AD66" stroke-width="0.2" stroke-linecap="round" stroke-linejoin="round"/>
</svg>
