<?xml version="1.0" encoding="utf-8"?>
<!-- Generator: Adobe Illustrator 26.0.3, SVG Export Plug-In . SVG Version: 6.00 Build 0)  -->
<svg version="1.1" id="Capa_1" xmlns="http://www.w3.org/2000/svg" xmlns:xlink="http://www.w3.org/1999/xlink" x="0px" y="0px"
	 viewBox="0 0 95 80" style="enable-background:new 0 0 95 80;" xml:space="preserve">
<style type="text/css">
	.st0{opacity:0.6;}
	.st1{fill:#FFFEFC;}
	.st2{fill:url(#SVGID_1_);fill-opacity:0.9;}
	.st3{fill:url(#SVGID_00000071521513621829310500000015320306190817583530_);fill-opacity:0.9;}
	.st4{fill:url(#SVGID_00000000901883435235057000000008234203123568630459_);fill-opacity:0.9;}
	.st5{fill:url(#SVGID_00000052086219218994251550000011462322343170128047_);fill-opacity:0.9;}
	.st6{fill:#C6F6E3;}
	.st7{fill:url(#SVGID_00000070835278515484758000000011464506264508395706_);fill-opacity:0.6;}
	.st8{fill:url(#SVGID_00000062151856773285031310000007348618527049380536_);fill-opacity:0.6;}
	.st9{fill:url(#SVGID_00000058561868317031546930000016063274862491375265_);fill-opacity:0.6;}
	.st10{fill:url(#SVGID_00000171702991256737221130000006466253396386484364_);fill-opacity:0.6;}
	.st11{fill:url(#SVGID_00000176038573146445277420000012596081780774968478_);fill-opacity:0.9;}
	.st12{fill:url(#SVGID_00000060017282648346194650000005336466485792312222_);fill-opacity:0.9;}
	.st13{fill:url(#SVGID_00000100360024612187411830000008255658961811674518_);fill-opacity:0.9;}
	.st14{fill:url(#SVGID_00000067939285313617649470000012783372209700400779_);fill-opacity:0.9;}
	.st15{fill:url(#SVGID_00000163074863034255430700000011859369119691518877_);fill-opacity:0.6;}
	.st16{fill:url(#SVGID_00000139274395682745335310000014987498773701568143_);fill-opacity:0.6;}
	.st17{fill:url(#SVGID_00000083048052460029718550000014079820948627479466_);fill-opacity:0.6;}
	.st18{fill:url(#SVGID_00000108300725751506385520000004298760696652382396_);fill-opacity:0.6;}
	.st19{fill:url(#SVGID_00000178891098330987679090000004226673077428158877_);fill-opacity:0.9;}
	.st20{fill:url(#SVGID_00000087388169374008853830000008144218054765309375_);fill-opacity:0.9;}
	.st21{fill:url(#SVGID_00000014608963464418551910000007712403726346273432_);fill-opacity:0.9;}
	.st22{fill:url(#SVGID_00000163760861515721482800000002085185570082522518_);fill-opacity:0.9;}
	.st23{fill:url(#SVGID_00000013893837024032208290000016742385660958501816_);fill-opacity:0.6;}
	.st24{fill:url(#SVGID_00000127029848959527457300000000957291106443914416_);fill-opacity:0.6;}
	.st25{fill:url(#SVGID_00000166633966753147901810000006345649851426183612_);fill-opacity:0.6;}
	.st26{fill:url(#SVGID_00000016053895932469626340000010968892375787170949_);fill-opacity:0.6;}
	.st27{fill:url(#SVGID_00000024709049701868609060000001989772441983098025_);fill-opacity:0.9;}
	.st28{fill:url(#SVGID_00000155145788286255008500000014025534056685297572_);fill-opacity:0.9;}
	.st29{fill:url(#SVGID_00000003791794583926627730000008758099877898211739_);fill-opacity:0.9;}
	.st30{fill:url(#SVGID_00000132769286539547040280000011763356136816739984_);fill-opacity:0.9;}
	.st31{fill:url(#SVGID_00000021831480986408016910000000850209779598071449_);fill-opacity:0.6;}
	.st32{fill:url(#SVGID_00000028305564008006162770000018002490278073930386_);fill-opacity:0.6;}
	.st33{fill:url(#SVGID_00000100348944317999610290000016608409856474608822_);fill-opacity:0.6;}
	.st34{fill:url(#SVGID_00000134967484626782286670000008030540404581771947_);fill-opacity:0.6;}
	.st35{fill:#A6E8CD;stroke:#393939;stroke-width:2.1818;stroke-linecap:round;stroke-linejoin:round;}
	.st36{fill:#FFFEFC;stroke:#393939;stroke-width:2.1818;stroke-linecap:round;stroke-linejoin:round;}
	.st37{fill:none;stroke:#393939;stroke-width:2.9091;stroke-miterlimit:4;}
	.st38{fill:#FF1E57;}
</style>
<image style="overflow:visible;" width="4570" height="2148" xlink:href="../puppies_valentines.png"  transform="matrix(1 0 0 1 -1868.626 -2404.9758)">
</image>
<g class="st0">
	<g>
		<path class="st1" d="M-71.1-3263.7c-12-10.1-29.8-8.4-39.7,3.6l-4.9,6l-5.9-5c-12-10-29.8-8.4-39.7,3.6c-9.9,12.1-8.3,30,3.7,40
			l5.9,5l43.4,36.4l36-43.7l4.9-6C-57.4-3235.7-59.1-3253.6-71.1-3263.7z"/>
		
			<linearGradient id="SVGID_1_" gradientUnits="userSpaceOnUse" x1="242.8834" y1="-2765.2554" x2="289.9634" y2="-2855.5007" gradientTransform="matrix(1 0 0 -1 -375.5 -6039.8608)">
			<stop  offset="0" style="stop-color:#00AD66"/>
			<stop  offset="1.000000e-04" style="stop-color:#00AD66"/>
			<stop  offset="1" style="stop-color:#91F0C9"/>
		</linearGradient>
		<path class="st2" d="M-71.1-3263.7c-12-10.1-29.8-8.4-39.7,3.6l-4.9,6l-5.9-5c-12-10-29.8-8.4-39.7,3.6c-9.9,12.1-8.3,30,3.7,40
			l5.9,5l43.4,36.4l36-43.7l4.9-6C-57.4-3235.7-59.1-3253.6-71.1-3263.7z"/>
	</g>
	<g>
		<path class="st1" d="M-123.9-2972.3c-3-15-17.6-24.6-32.5-21.5l-7.4,1.5l-1.5-7.4c-3-15-17.6-24.6-32.5-21.5
			c-15,3.1-24.6,17.8-21.6,32.8l1.5,7.4l10.9,54.3l54.2-11.4l7.4-1.5C-130.6-2942.6-120.9-2957.3-123.9-2972.3z"/>
		
			<linearGradient id="SVGID_00000096780968423312566270000009896000390619079821_" gradientUnits="userSpaceOnUse" x1="211.2471" y1="-3021.603" x2="192.037" y2="-3119.2791" gradientTransform="matrix(1 0 0 -1 -375.5 -6039.8608)">
			<stop  offset="0" style="stop-color:#00AD66"/>
			<stop  offset="1.000000e-04" style="stop-color:#00AD66"/>
			<stop  offset="1" style="stop-color:#91F0C9"/>
		</linearGradient>
		<path style="fill:url(#SVGID_00000096780968423312566270000009896000390619079821_);fill-opacity:0.9;" d="M-123.9-2972.3
			c-3-15-17.6-24.6-32.5-21.5l-7.4,1.5l-1.5-7.4c-3-15-17.6-24.6-32.5-21.5c-15,3.1-24.6,17.8-21.6,32.8l1.5,7.4l10.9,54.3
			l54.2-11.4l7.4-1.5C-130.6-2942.6-120.9-2957.3-123.9-2972.3z"/>
	</g>
	<g>
		<path class="st1" d="M-32.4-2930c-5.2-9.1-16.8-12.2-25.8-7l-4.5,2.6l-2.6-4.5c-5.2-9.1-16.8-12.2-25.8-7
			c-9.1,5.3-12.2,16.9-7,26.1l2.6,4.5l18.8,33l32.8-19.1l4.5-2.6C-30.3-2909.2-27.2-2920.9-32.4-2930z"/>
		
			<linearGradient id="SVGID_00000114065479459799269110000007594070891201542036_" gradientUnits="userSpaceOnUse" x1="306.9607" y1="-3088.6035" x2="315.5408" y2="-3156.3596" gradientTransform="matrix(1 0 0 -1 -375.5 -6039.8608)">
			<stop  offset="0" style="stop-color:#00AD66"/>
			<stop  offset="1.000000e-04" style="stop-color:#00AD66"/>
			<stop  offset="1" style="stop-color:#91F0C9"/>
		</linearGradient>
		<path style="fill:url(#SVGID_00000114065479459799269110000007594070891201542036_);fill-opacity:0.9;" d="M-32.4-2930
			c-5.2-9.1-16.8-12.2-25.8-7l-4.5,2.6l-2.6-4.5c-5.2-9.1-16.8-12.2-25.8-7c-9.1,5.3-12.2,16.9-7,26.1l2.6,4.5l18.8,33l32.8-19.1
			l4.5-2.6C-30.3-2909.2-27.2-2920.9-32.4-2930z"/>
	</g>
	<g>
		<path class="st1" d="M-141.3-3166.3c-13.5-7.9-30.7-3.3-38.5,10.2l-3.8,6.7l-6.7-3.9c-13.5-7.9-30.7-3.3-38.5,10.2
			c-7.8,13.5-3.1,30.9,10.4,38.8l6.7,3.9l48.8,28.6l28.1-49l3.8-6.7C-123.2-3141.1-127.8-3158.5-141.3-3166.3z"/>
		
			<linearGradient id="SVGID_00000115489548228849254600000016160431977967658166_" gradientUnits="userSpaceOnUse" x1="171.7447" y1="-2873.0542" x2="233.1947" y2="-2954.0129" gradientTransform="matrix(1 0 0 -1 -375.5 -6039.8608)">
			<stop  offset="0" style="stop-color:#00AD66"/>
			<stop  offset="1.000000e-04" style="stop-color:#00AD66"/>
			<stop  offset="1" style="stop-color:#91F0C9"/>
		</linearGradient>
		<path style="fill:url(#SVGID_00000115489548228849254600000016160431977967658166_);fill-opacity:0.9;" d="M-141.3-3166.3
			c-13.5-7.9-30.7-3.3-38.5,10.2l-3.8,6.7l-6.7-3.9c-13.5-7.9-30.7-3.3-38.5,10.2c-7.8,13.5-3.1,30.9,10.4,38.8l6.7,3.9l48.8,28.6
			l28.1-49l3.8-6.7C-123.2-3141.1-127.8-3158.5-141.3-3166.3z"/>
	</g>
	<g>
		<path class="st6" d="M-34.1-3140.6c-2.7-8.5-11.8-13.2-20.3-10.4l-4.2,1.4l-1.3-4.2c-2.7-8.5-11.8-13.2-20.3-10.4
			c-8.5,2.8-13.2,12-10.4,20.5l1.3,4.2l9.9,30.9l30.7-10.1l4.2-1.4C-36.1-3122.9-31.4-3132.1-34.1-3140.6z"/>
		
			<linearGradient id="SVGID_00000152266337280857017100000010706894431006820501_" gradientUnits="userSpaceOnUse" x1="310.0591" y1="-2879.6958" x2="316.9491" y2="-2920.8975" gradientTransform="matrix(1 0 0 -1 -375.5 -6039.8608)">
			<stop  offset="0" style="stop-color:#00AD66"/>
			<stop  offset="1" style="stop-color:#86FBD3"/>
		</linearGradient>
		<path style="fill:url(#SVGID_00000152266337280857017100000010706894431006820501_);fill-opacity:0.6;" d="M-34.1-3140.6
			c-2.7-8.5-11.8-13.2-20.3-10.4l-4.2,1.4l-1.3-4.2c-2.7-8.5-11.8-13.2-20.3-10.4c-8.5,2.8-13.2,12-10.4,20.5l1.3,4.2l9.9,30.9
			l30.7-10.1l4.2-1.4C-36.1-3122.9-31.4-3132.1-34.1-3140.6z"/>
	</g>
	<g>
		<path class="st6" d="M-221.8-3089.8c-8.3-3.4-17.7,0.5-21.1,8.8l-1.7,4.1l-4.1-1.7c-8.3-3.4-17.7,0.5-21.1,8.8
			c-3.4,8.3,0.6,17.8,8.9,21.2l4.1,1.7l29.9,12.5l12.2-30l1.7-4.1C-209.6-3076.8-213.6-3086.4-221.8-3089.8z"/>
		
			<linearGradient id="SVGID_00000093172733264441770280000000538824546318558647_" gradientUnits="userSpaceOnUse" x1="118.4656" y1="-2961.2556" x2="154.3157" y2="-2982.6985" gradientTransform="matrix(1 0 0 -1 -375.5 -6039.8608)">
			<stop  offset="0" style="stop-color:#00AD66"/>
			<stop  offset="1" style="stop-color:#86FBD3"/>
		</linearGradient>
		<path style="fill:url(#SVGID_00000093172733264441770280000000538824546318558647_);fill-opacity:0.6;" d="M-221.8-3089.8
			c-8.3-3.4-17.7,0.5-21.1,8.8l-1.7,4.1l-4.1-1.7c-8.3-3.4-17.7,0.5-21.1,8.8c-3.4,8.3,0.6,17.8,8.9,21.2l4.1,1.7l29.9,12.5l12.2-30
			l1.7-4.1C-209.6-3076.8-213.6-3086.4-221.8-3089.8z"/>
	</g>
	<g>
		<path class="st6" d="M-260.8-2971.3c-6.4-6.3-16.6-6.1-22.8,0.4l-3.1,3.2l-3.2-3.1c-6.4-6.3-16.6-6.1-22.8,0.4
			c-6.2,6.4-6,16.7,0.4,23l3.2,3.1l23.2,22.6l22.4-23.4l3-3.2C-254.2-2954.7-254.4-2965-260.8-2971.3z"/>
		
			<linearGradient id="SVGID_00000178925084708164139490000017165817182896176516_" gradientUnits="userSpaceOnUse" x1="77.879" y1="-3065.9729" x2="103.259" y2="-3099.157" gradientTransform="matrix(1 0 0 -1 -375.5 -6039.8608)">
			<stop  offset="0" style="stop-color:#00AD66"/>
			<stop  offset="1" style="stop-color:#86FBD3"/>
		</linearGradient>
		<path style="fill:url(#SVGID_00000178925084708164139490000017165817182896176516_);fill-opacity:0.6;" d="M-260.8-2971.3
			c-6.4-6.3-16.6-6.1-22.8,0.4l-3.1,3.2l-3.2-3.1c-6.4-6.3-16.6-6.1-22.8,0.4c-6.2,6.4-6,16.7,0.4,23l3.2,3.1l23.2,22.6l22.4-23.4
			l3-3.2C-254.2-2954.7-254.4-2965-260.8-2971.3z"/>
	</g>
	<g>
		<path class="st6" d="M-44.9-3058.7c-4.4-13.2-18.6-20.3-31.8-15.8l-6.5,2.2l-2.2-6.5c-4.4-13.2-18.6-20.3-31.8-15.8
			c-13.2,4.5-20.3,18.9-15.9,32.1l2.2,6.5l15.9,47.9l47.8-16.3l6.5-2.2C-47.7-3031.1-40.5-3045.4-44.9-3058.7z"/>
		
			<linearGradient id="SVGID_00000071524935292353180320000003241089468266974903_" gradientUnits="userSpaceOnUse" x1="281.5202" y1="-2951.1709" x2="292.8603" y2="-3015.2539" gradientTransform="matrix(1 0 0 -1 -375.5 -6039.8608)">
			<stop  offset="0" style="stop-color:#00AD66"/>
			<stop  offset="1" style="stop-color:#86FBD3"/>
		</linearGradient>
		<path style="fill:url(#SVGID_00000071524935292353180320000003241089468266974903_);fill-opacity:0.6;" d="M-44.9-3058.7
			c-4.4-13.2-18.6-20.3-31.8-15.8l-6.5,2.2l-2.2-6.5c-4.4-13.2-18.6-20.3-31.8-15.8c-13.2,4.5-20.3,18.9-15.9,32.1l2.2,6.5
			l15.9,47.9l47.8-16.3l6.5-2.2C-47.7-3031.1-40.5-3045.4-44.9-3058.7z"/>
	</g>
</g>
<g id="NUL8KI.tif">
	
		<image style="overflow:visible;" width="3840" height="566" id="Layer_0_00000039850005245503911380000003876617920421219472_" xlink:href="A213488CCD3E4363.png"  transform="matrix(1 0 0 1 -1876.7443 -4647.0894)">
	</image>
</g>
<g class="st0">
	<g>
		<path class="st1" d="M-1718.9-4189.7c24.1-20.2,59.9-17,79.9,7.3l9.9,12l11.9-10c24.1-20.2,59.9-16.9,79.9,7.3
			c20,24.3,16.6,60.4-7.5,80.6l-11.9,10l-87.4,73.3l-72.4-87.9l-9.9-12C-1746.4-4133.4-1743-4169.5-1718.9-4189.7z"/>
		
			<linearGradient id="SVGID_00000074434107454809034540000008412130370868465313_" gradientUnits="userSpaceOnUse" x1="3383.6602" y1="-1828.1417" x2="3288.877" y2="-2009.8374" gradientTransform="matrix(1 0 0 -1 -4978.6362 -6039.8608)">
			<stop  offset="0" style="stop-color:#00AD66"/>
			<stop  offset="1.000000e-04" style="stop-color:#00AD66"/>
			<stop  offset="1" style="stop-color:#91F0C9"/>
		</linearGradient>
		<path style="fill:url(#SVGID_00000074434107454809034540000008412130370868465313_);fill-opacity:0.9;" d="M-1718.9-4189.7
			c24.1-20.2,59.9-17,79.9,7.3l9.9,12l11.9-10c24.1-20.2,59.9-16.9,79.9,7.3c20,24.3,16.6,60.4-7.5,80.6l-11.9,10l-87.4,73.3
			l-72.4-87.9l-9.9-12C-1746.4-4133.4-1743-4169.5-1718.9-4189.7z"/>
	</g>
	<g>
		<path class="st1" d="M-1612.4-3603c6.1-30.2,35.4-49.6,65.5-43.2l14.9,3.1l3-14.9c6.1-30.2,35.4-49.6,65.5-43.2
			c30.1,6.3,49.6,35.9,43.5,66.1l-3,14.9l-22,109.4l-109-22.9l-14.9-3.1C-1599-3543.2-1618.5-3572.8-1612.4-3603z"/>
		
			<linearGradient id="SVGID_00000015336698494665209900000018373756244904035506_" gradientUnits="userSpaceOnUse" x1="3447.3582" y1="-2344.2615" x2="3486.0369" y2="-2540.9177" gradientTransform="matrix(1 0 0 -1 -4978.6362 -6039.8608)">
			<stop  offset="0" style="stop-color:#00AD66"/>
			<stop  offset="1.000000e-04" style="stop-color:#00AD66"/>
			<stop  offset="1" style="stop-color:#91F0C9"/>
		</linearGradient>
		<path style="fill:url(#SVGID_00000015336698494665209900000018373756244904035506_);fill-opacity:0.9;" d="M-1612.4-3603
			c6.1-30.2,35.4-49.6,65.5-43.2l14.9,3.1l3-14.9c6.1-30.2,35.4-49.6,65.5-43.2c30.1,6.3,49.6,35.9,43.5,66.1l-3,14.9l-22,109.4
			l-109-22.9l-14.9-3.1C-1599-3543.2-1618.5-3572.8-1612.4-3603z"/>
	</g>
	<g>
		<path class="st1" d="M-1796.8-3518c10.5-18.4,33.8-24.6,52-14l9,5.2l5.2-9.1c10.5-18.4,33.8-24.6,52-14s24.5,34.1,14.1,52.5
			l-5.2,9.1l-37.9,66.5l-66.1-38.4l-9-5.2C-1801-3476.1-1807.3-3499.6-1796.8-3518z"/>
		
			<linearGradient id="SVGID_00000162337535557935310520000015399725292553896885_" gradientUnits="userSpaceOnUse" x1="3254.6628" y1="-2479.1523" x2="3237.3767" y2="-2615.5691" gradientTransform="matrix(1 0 0 -1 -4978.6362 -6039.8608)">
			<stop  offset="0" style="stop-color:#00AD66"/>
			<stop  offset="1.000000e-04" style="stop-color:#00AD66"/>
			<stop  offset="1" style="stop-color:#91F0C9"/>
		</linearGradient>
		<path style="fill:url(#SVGID_00000162337535557935310520000015399725292553896885_);fill-opacity:0.9;" d="M-1796.8-3518
			c10.5-18.4,33.8-24.6,52-14l9,5.2l5.2-9.1c10.5-18.4,33.8-24.6,52-14s24.5,34.1,14.1,52.5l-5.2,9.1l-37.9,66.5l-66.1-38.4l-9-5.2
			C-1801-3476.1-1807.3-3499.6-1796.8-3518z"/>
	</g>
	<g>
		<path class="st1" d="M-1577.4-3993.7c27.1-15.9,61.8-6.7,77.4,20.6l7.7,13.4l13.4-7.8c27.2-15.9,61.8-6.6,77.4,20.6
			c15.6,27.3,6.3,62.2-20.9,78.1l-13.4,7.8l-98.3,57.5l-56.6-98.7l-7.7-13.4C-1613.9-3942.9-1604.6-3977.9-1577.4-3993.7z"/>
		
			<linearGradient id="SVGID_00000108999491858072271200000003238669882315660987_" gradientUnits="userSpaceOnUse" x1="3526.8955" y1="-2045.1801" x2="3403.1731" y2="-2208.1782" gradientTransform="matrix(1 0 0 -1 -4978.6362 -6039.8608)">
			<stop  offset="0" style="stop-color:#00AD66"/>
			<stop  offset="1.000000e-04" style="stop-color:#00AD66"/>
			<stop  offset="1" style="stop-color:#91F0C9"/>
		</linearGradient>
		<path style="fill:url(#SVGID_00000108999491858072271200000003238669882315660987_);fill-opacity:0.9;" d="M-1577.4-3993.7
			c27.1-15.9,61.8-6.7,77.4,20.6l7.7,13.4l13.4-7.8c27.2-15.9,61.8-6.6,77.4,20.6c15.6,27.3,6.3,62.2-20.9,78.1l-13.4,7.8
			l-98.3,57.5l-56.6-98.7l-7.7-13.4C-1613.9-3942.9-1604.6-3977.9-1577.4-3993.7z"/>
	</g>
	<g>
		<path class="st6" d="M-1793.3-3941.9c5.5-17.2,23.8-26.5,40.9-20.9l8.4,2.8l2.7-8.5c5.5-17.2,23.8-26.5,40.9-20.9
			c17.1,5.6,26.5,24.1,21,41.3l-2.7,8.5l-19.9,62.1l-61.9-20.4l-8.4-2.8C-1789.4-3906.3-1798.8-3924.8-1793.3-3941.9z"/>
		
			<linearGradient id="SVGID_00000070832820065218236340000013238850457892114341_" gradientUnits="userSpaceOnUse" x1="3248.4146" y1="-2058.5488" x2="3234.542" y2="-2141.502" gradientTransform="matrix(1 0 0 -1 -4978.6362 -6039.8608)">
			<stop  offset="0" style="stop-color:#00AD66"/>
			<stop  offset="1" style="stop-color:#86FBD3"/>
		</linearGradient>
		<path style="fill:url(#SVGID_00000070832820065218236340000013238850457892114341_);fill-opacity:0.6;" d="M-1793.3-3941.9
			c5.5-17.2,23.8-26.5,40.9-20.9l8.4,2.8l2.7-8.5c5.5-17.2,23.8-26.5,40.9-20.9c17.1,5.6,26.5,24.1,21,41.3l-2.7,8.5l-19.9,62.1
			l-61.9-20.4l-8.4-2.8C-1789.4-3906.3-1798.8-3924.8-1793.3-3941.9z"/>
	</g>
	<g>
		<path class="st6" d="M-1415.3-3839.6c16.6-6.9,35.6,1,42.4,17.7l3.3,8.2l8.2-3.4c16.6-6.9,35.6,1,42.4,17.7
			c6.8,16.7-1.2,35.8-17.9,42.7l-8.2,3.4l-60.2,25.1l-24.5-60.4l-3.3-8.2C-1440-3813.6-1432-3832.7-1415.3-3839.6z"/>
		
			<linearGradient id="SVGID_00000145744504468169532460000006272430164881775008_" gradientUnits="userSpaceOnUse" x1="3634.1675" y1="-2222.7571" x2="3561.989" y2="-2265.9292" gradientTransform="matrix(1 0 0 -1 -4978.6362 -6039.8608)">
			<stop  offset="0" style="stop-color:#00AD66"/>
			<stop  offset="1" style="stop-color:#86FBD3"/>
		</linearGradient>
		<path style="fill:url(#SVGID_00000145744504468169532460000006272430164881775008_);fill-opacity:0.6;" d="M-1415.3-3839.6
			c16.6-6.9,35.6,1,42.4,17.7l3.3,8.2l8.2-3.4c16.6-6.9,35.6,1,42.4,17.7c6.8,16.7-1.2,35.8-17.9,42.7l-8.2,3.4l-60.2,25.1
			l-24.5-60.4l-3.3-8.2C-1440-3813.6-1432-3832.7-1415.3-3839.6z"/>
	</g>
	<g>
		<path class="st6" d="M-1336.9-3601c12.9-12.6,33.5-12.3,45.9,0.7l6.2,6.4l6.4-6.2c12.9-12.6,33.5-12.3,45.9,0.7
			c12.5,13,12.1,33.7-0.8,46.3l-6.4,6.2l-46.7,45.6l-45.1-47l-6.2-6.4C-1350.2-3567.6-1349.8-3588.4-1336.9-3601z"/>
		
			<linearGradient id="SVGID_00000105411910064962614340000017811081288242170295_" gradientUnits="userSpaceOnUse" x1="3715.8718" y1="-2433.5959" x2="3664.7832" y2="-2500.407" gradientTransform="matrix(1 0 0 -1 -4978.6362 -6039.8608)">
			<stop  offset="0" style="stop-color:#00AD66"/>
			<stop  offset="1" style="stop-color:#86FBD3"/>
		</linearGradient>
		<path style="fill:url(#SVGID_00000105411910064962614340000017811081288242170295_);fill-opacity:0.6;" d="M-1336.9-3601
			c12.9-12.6,33.5-12.3,45.9,0.7l6.2,6.4l6.4-6.2c12.9-12.6,33.5-12.3,45.9,0.7c12.5,13,12.1,33.7-0.8,46.3l-6.4,6.2l-46.7,45.6
			l-45.1-47l-6.2-6.4C-1350.2-3567.6-1349.8-3588.4-1336.9-3601z"/>
	</g>
	<g>
		<path class="st6" d="M-1771.6-3777c8.8-26.7,37.5-40.9,64-31.9l13.1,4.5l4.4-13.2c8.8-26.7,37.5-40.9,64-31.9
			c26.5,9,40.9,38,32.1,64.6l-4.4,13.2l-31.9,96.5l-96.1-32.7l-13.1-4.5C-1766-3721.4-1780.4-3750.3-1771.6-3777z"/>
		
			<linearGradient id="SVGID_00000100361743893400276440000003024524386850106532_" gradientUnits="userSpaceOnUse" x1="3305.875" y1="-2202.4534" x2="3283.0396" y2="-2331.4751" gradientTransform="matrix(1 0 0 -1 -4978.6362 -6039.8608)">
			<stop  offset="0" style="stop-color:#00AD66"/>
			<stop  offset="1" style="stop-color:#86FBD3"/>
		</linearGradient>
		<path style="fill:url(#SVGID_00000100361743893400276440000003024524386850106532_);fill-opacity:0.6;" d="M-1771.6-3777
			c8.8-26.7,37.5-40.9,64-31.9l13.1,4.5l4.4-13.2c8.8-26.7,37.5-40.9,64-31.9c26.5,9,40.9,38,32.1,64.6l-4.4,13.2l-31.9,96.5
			l-96.1-32.7l-13.1-4.5C-1766-3721.4-1780.4-3750.3-1771.6-3777z"/>
	</g>
</g>
<g class="st0">
	<g>
		<path class="st1" d="M862.6-4100.4l-9.9,12l-72.4,87.9l-87.4-73.3l-11.9-10c-24.1-20.2-27.5-56.3-7.5-80.6s55.8-27.6,79.9-7.3
			l11.9,10l9.9-12c20-24.3,55.8-27.6,79.9-7.3C879.3-4160.7,882.7-4124.6,862.6-4100.4z"/>
		
			<linearGradient id="SVGID_00000095309870573924220610000004737656867593768077_" gradientUnits="userSpaceOnUse" x1="5685.228" y1="-1836.8597" x2="5590.4448" y2="-2018.5554" gradientTransform="matrix(-1 0 0 -1 6416.4517 -6039.8608)">
			<stop  offset="0" style="stop-color:#00AD66"/>
			<stop  offset="1.000000e-04" style="stop-color:#00AD66"/>
			<stop  offset="1" style="stop-color:#91F0C9"/>
		</linearGradient>
		<path style="fill:url(#SVGID_00000095309870573924220610000004737656867593768077_);fill-opacity:0.9;" d="M862.6-4100.4l-9.9,12
			l-72.4,87.9l-87.4-73.3l-11.9-10c-24.1-20.2-27.5-56.3-7.5-80.6s55.8-27.6,79.9-7.3l11.9,10l9.9-12c20-24.3,55.8-27.6,79.9-7.3
			C879.3-4160.7,882.7-4124.6,862.6-4100.4z"/>
	</g>
	<g>
		<path class="st1" d="M705.1-3528.2l-14.9,3.1l-109,22.9l-22-109.4l-3-14.9c-6.1-30.2,13.4-59.8,43.5-66.1
			c30.1-6.3,59.4,13,65.5,43.2l3,14.9l14.9-3.1c30.1-6.3,59.4,13,65.5,43.2C754.8-3564.1,735.3-3534.5,705.1-3528.2z"/>
		
			<linearGradient id="SVGID_00000175284070238392505490000005990739810193845170_" gradientUnits="userSpaceOnUse" x1="5748.9263" y1="-2352.9795" x2="5787.605" y2="-2549.6357" gradientTransform="matrix(-1 0 0 -1 6416.4517 -6039.8608)">
			<stop  offset="0" style="stop-color:#00AD66"/>
			<stop  offset="1.000000e-04" style="stop-color:#00AD66"/>
			<stop  offset="1" style="stop-color:#91F0C9"/>
		</linearGradient>
		<path style="fill:url(#SVGID_00000175284070238392505490000005990739810193845170_);fill-opacity:0.9;" d="M705.1-3528.2
			l-14.9,3.1l-109,22.9l-22-109.4l-3-14.9c-6.1-30.2,13.4-59.8,43.5-66.1c30.1-6.3,59.4,13,65.5,43.2l3,14.9l14.9-3.1
			c30.1-6.3,59.4,13,65.5,43.2C754.8-3564.1,735.3-3534.5,705.1-3528.2z"/>
	</g>
	<g>
		<path class="st1" d="M919-3456.8l-9,5.2l-66.1,38.4l-37.9-66.5l-5.2-9.1c-10.5-18.4-4.2-41.8,14.1-52.5s41.5-4.3,52,14l5.2,9.1
			l9-5.2c18.2-10.6,41.5-4.3,52,14C943.5-3490.9,937.2-3467.4,919-3456.8z"/>
		
			<linearGradient id="SVGID_00000007411750775199834030000014540578797263536513_" gradientUnits="userSpaceOnUse" x1="5556.231" y1="-2487.8704" x2="5538.9448" y2="-2624.2871" gradientTransform="matrix(-1 0 0 -1 6416.4517 -6039.8608)">
			<stop  offset="0" style="stop-color:#00AD66"/>
			<stop  offset="1.000000e-04" style="stop-color:#00AD66"/>
			<stop  offset="1" style="stop-color:#91F0C9"/>
		</linearGradient>
		<path style="fill:url(#SVGID_00000007411750775199834030000014540578797263536513_);fill-opacity:0.9;" d="M919-3456.8l-9,5.2
			l-66.1,38.4l-37.9-66.5l-5.2-9.1c-10.5-18.4-4.2-41.8,14.1-52.5s41.5-4.3,52,14l5.2,9.1l9-5.2c18.2-10.6,41.5-4.3,52,14
			C943.5-3490.9,937.2-3467.4,919-3456.8z"/>
	</g>
	<g>
		<path class="st1" d="M734.5-3906.9l-7.7,13.4l-56.6,98.7l-98.3-57.5l-13.4-7.8c-27.1-15.9-36.5-50.8-20.9-78.1
			s50.3-36.5,77.4-20.6l13.4,7.8l7.7-13.4c15.6-27.3,50.3-36.5,77.4-20.6C740.8-3969.1,750.2-3934.2,734.5-3906.9z"/>
		
			<linearGradient id="SVGID_00000008865565711612781080000010217942167941032835_" gradientUnits="userSpaceOnUse" x1="5828.4639" y1="-2053.8982" x2="5704.7412" y2="-2216.8962" gradientTransform="matrix(-1 0 0 -1 6416.4517 -6039.8608)">
			<stop  offset="0" style="stop-color:#00AD66"/>
			<stop  offset="1.000000e-04" style="stop-color:#00AD66"/>
			<stop  offset="1" style="stop-color:#91F0C9"/>
		</linearGradient>
		<path style="fill:url(#SVGID_00000008865565711612781080000010217942167941032835_);fill-opacity:0.9;" d="M734.5-3906.9
			l-7.7,13.4l-56.6,98.7l-98.3-57.5l-13.4-7.8c-27.1-15.9-36.5-50.8-20.9-78.1s50.3-36.5,77.4-20.6l13.4,7.8l7.7-13.4
			c15.6-27.3,50.3-36.5,77.4-20.6C740.8-3969.1,750.2-3934.2,734.5-3906.9z"/>
	</g>
	<g>
		<path class="st6" d="M908.5-3891.9l-8.4,2.8l-61.9,20.4l-19.9-62.1l-2.7-8.5c-5.5-17.2,3.9-35.6,21-41.3
			c17.1-5.6,35.4,3.7,40.9,20.9l2.7,8.5l8.4-2.8c17.1-5.6,35.4,3.7,40.9,20.9C935-3916,925.6-3897.6,908.5-3891.9z"/>
		
			<linearGradient id="SVGID_00000183951657196159728820000003750355710561792959_" gradientUnits="userSpaceOnUse" x1="5549.9824" y1="-2067.2668" x2="5536.1099" y2="-2150.22" gradientTransform="matrix(-1 0 0 -1 6416.4517 -6039.8608)">
			<stop  offset="0" style="stop-color:#00AD66"/>
			<stop  offset="1" style="stop-color:#86FBD3"/>
		</linearGradient>
		<path style="fill:url(#SVGID_00000183951657196159728820000003750355710561792959_);fill-opacity:0.6;" d="M908.5-3891.9l-8.4,2.8
			l-61.9,20.4l-19.9-62.1l-2.7-8.5c-5.5-17.2,3.9-35.6,21-41.3c17.1-5.6,35.4,3.7,40.9,20.9l2.7,8.5l8.4-2.8
			c17.1-5.6,35.4,3.7,40.9,20.9C935-3916,925.6-3897.6,908.5-3891.9z"/>
	</g>
	<g>
		<path class="st6" d="M569.4-3788.2l-3.3,8.2l-24.5,60.4l-60.2-25.1l-8.2-3.4c-16.6-6.9-24.6-26.1-17.9-42.7
			c6.8-16.7,25.8-24.6,42.4-17.7l8.2,3.4l3.3-8.2c6.8-16.7,25.8-24.6,42.4-17.7C568.2-3824,576.2-3804.8,569.4-3788.2z"/>
		
			<linearGradient id="SVGID_00000144324937790364953970000012882744653501184162_" gradientUnits="userSpaceOnUse" x1="5935.7354" y1="-2231.4751" x2="5863.5571" y2="-2274.6472" gradientTransform="matrix(-1 0 0 -1 6416.4517 -6039.8608)">
			<stop  offset="0" style="stop-color:#00AD66"/>
			<stop  offset="1" style="stop-color:#86FBD3"/>
		</linearGradient>
		<path style="fill:url(#SVGID_00000144324937790364953970000012882744653501184162_);fill-opacity:0.6;" d="M569.4-3788.2l-3.3,8.2
			l-24.5,60.4l-60.2-25.1l-8.2-3.4c-16.6-6.9-24.6-26.1-17.9-42.7c6.8-16.7,25.8-24.6,42.4-17.7l8.2,3.4l3.3-8.2
			c6.8-16.7,25.8-24.6,42.4-17.7C568.2-3824,576.2-3804.8,569.4-3788.2z"/>
	</g>
	<g>
		<path class="st6" d="M473.9-3545.9l-6.2,6.4l-45.1,47l-46.7-45.6l-6.4-6.2c-12.9-12.6-13.2-33.3-0.8-46.3
			c12.5-13,33-13.3,45.9-0.7l6.4,6.2l6.2-6.4c12.5-13,33-13.3,45.9-0.7C486.1-3579.7,486.4-3558.9,473.9-3545.9z"/>
		
			<linearGradient id="SVGID_00000163038134689810167410000005249380562619247771_" gradientUnits="userSpaceOnUse" x1="6017.4399" y1="-2442.314" x2="5966.3511" y2="-2509.125" gradientTransform="matrix(-1 0 0 -1 6416.4517 -6039.8608)">
			<stop  offset="0" style="stop-color:#00AD66"/>
			<stop  offset="1" style="stop-color:#86FBD3"/>
		</linearGradient>
		<path style="fill:url(#SVGID_00000163038134689810167410000005249380562619247771_);fill-opacity:0.6;" d="M473.9-3545.9l-6.2,6.4
			l-45.1,47l-46.7-45.6l-6.4-6.2c-12.9-12.6-13.2-33.3-0.8-46.3c12.5-13,33-13.3,45.9-0.7l6.4,6.2l6.2-6.4c12.5-13,33-13.3,45.9-0.7
			C486.1-3579.7,486.4-3558.9,473.9-3545.9z"/>
	</g>
	<g>
		<path class="st6" d="M875.7-3703.6l-13.1,4.5l-96.1,32.7l-31.9-96.5l-4.4-13.2c-8.8-26.7,5.5-55.6,32.1-64.6
			c26.5-9,55.2,5.2,64,31.9l4.4,13.2l13.1-4.5c26.5-9,55.2,5.2,64,31.9C916.7-3741.6,902.3-3712.7,875.7-3703.6z"/>
		
			<linearGradient id="SVGID_00000111160890465547446650000006419944350366750339_" gradientUnits="userSpaceOnUse" x1="5607.4429" y1="-2211.1714" x2="5584.6074" y2="-2340.1931" gradientTransform="matrix(-1 0 0 -1 6416.4517 -6039.8608)">
			<stop  offset="0" style="stop-color:#00AD66"/>
			<stop  offset="1" style="stop-color:#86FBD3"/>
		</linearGradient>
		<path style="fill:url(#SVGID_00000111160890465547446650000006419944350366750339_);fill-opacity:0.6;" d="M875.7-3703.6
			l-13.1,4.5l-96.1,32.7l-31.9-96.5l-4.4-13.2c-8.8-26.7,5.5-55.6,32.1-64.6c26.5-9,55.2,5.2,64,31.9l4.4,13.2l13.1-4.5
			c26.5-9,55.2,5.2,64,31.9C916.7-3741.6,902.3-3712.7,875.7-3703.6z"/>
	</g>
</g>
<g id="Vxmp8Q.tif">
	
		<image style="overflow:visible;" width="740" height="371" id="Layer_0_00000133531437687264358950000014295292763389203867_" xlink:href="A213488CCD3E4361.png"  transform="matrix(1 0 0 1 -1832.7817 -3254.9639)">
	</image>
</g>
<g class="st0">
	<g>
		<path class="st1" d="M-778.6-3223.6l4.9,6l36,43.7l43.4-36.4l5.9-5c12-10,13.6-28,3.7-40c-9.9-12.1-27.7-13.7-39.7-3.6l-5.9,5
			l-4.9-6c-9.9-12.1-27.7-13.7-39.7-3.6C-786.8-3253.6-788.5-3235.7-778.6-3223.6z"/>
		
			<linearGradient id="SVGID_00000082339787379854072960000011042896008483426217_" gradientUnits="userSpaceOnUse" x1="741.8045" y1="-2765.2554" x2="788.8845" y2="-2855.5007" gradientTransform="matrix(-1 0 0 -1 28.5025 -6039.8608)">
			<stop  offset="0" style="stop-color:#00AD66"/>
			<stop  offset="1.000000e-04" style="stop-color:#00AD66"/>
			<stop  offset="1" style="stop-color:#91F0C9"/>
		</linearGradient>
		<path style="fill:url(#SVGID_00000082339787379854072960000011042896008483426217_);fill-opacity:0.9;" d="M-778.6-3223.6l4.9,6
			l36,43.7l43.4-36.4l5.9-5c12-10,13.6-28,3.7-40c-9.9-12.1-27.7-13.7-39.7-3.6l-5.9,5l-4.9-6c-9.9-12.1-27.7-13.7-39.7-3.6
			C-786.8-3253.6-788.5-3235.7-778.6-3223.6z"/>
	</g>
	<g>
		<path class="st1" d="M-700.3-2939.4l7.4,1.5l54.2,11.4l10.9-54.3l1.5-7.4c3-15-6.7-29.7-21.6-32.8c-14.9-3.1-29.5,6.5-32.5,21.5
			l-1.5,7.4l-7.4-1.5c-15-3.1-29.5,6.5-32.5,21.5C-725-2957.3-715.3-2942.6-700.3-2939.4z"/>
		
			<linearGradient id="SVGID_00000125604053831439666700000010630010847333288088_" gradientUnits="userSpaceOnUse" x1="710.1682" y1="-3021.603" x2="690.9581" y2="-3119.2791" gradientTransform="matrix(-1 0 0 -1 28.5025 -6039.8608)">
			<stop  offset="0" style="stop-color:#00AD66"/>
			<stop  offset="1.000000e-04" style="stop-color:#00AD66"/>
			<stop  offset="1" style="stop-color:#91F0C9"/>
		</linearGradient>
		<path style="fill:url(#SVGID_00000125604053831439666700000010630010847333288088_);fill-opacity:0.9;" d="M-700.3-2939.4l7.4,1.5
			l54.2,11.4l10.9-54.3l1.5-7.4c3-15-6.7-29.7-21.6-32.8c-14.9-3.1-29.5,6.5-32.5,21.5l-1.5,7.4l-7.4-1.5
			c-15-3.1-29.5,6.5-32.5,21.5C-725-2957.3-715.3-2942.6-700.3-2939.4z"/>
	</g>
	<g>
		<path class="st1" d="M-806.6-2904l4.5,2.6l32.8,19.1l18.8-33l2.6-4.5c5.2-9.1,2.1-20.8-7-26.1c-9.1-5.3-20.6-2.2-25.8,7l-2.6,4.5
			l-4.5-2.6c-9.1-5.3-20.6-2.2-25.8,7C-818.8-2920.9-815.6-2909.2-806.6-2904z"/>
		
			<linearGradient id="SVGID_00000147899359004148548670000004339966126725235348_" gradientUnits="userSpaceOnUse" x1="805.8818" y1="-3088.6035" x2="814.4619" y2="-3156.3596" gradientTransform="matrix(-1 0 0 -1 28.5025 -6039.8608)">
			<stop  offset="0" style="stop-color:#00AD66"/>
			<stop  offset="1.000000e-04" style="stop-color:#00AD66"/>
			<stop  offset="1" style="stop-color:#91F0C9"/>
		</linearGradient>
		<path style="fill:url(#SVGID_00000147899359004148548670000004339966126725235348_);fill-opacity:0.9;" d="M-806.6-2904l4.5,2.6
			l32.8,19.1l18.8-33l2.6-4.5c5.2-9.1,2.1-20.8-7-26.1c-9.1-5.3-20.6-2.2-25.8,7l-2.6,4.5l-4.5-2.6c-9.1-5.3-20.6-2.2-25.8,7
			C-818.8-2920.9-815.6-2909.2-806.6-2904z"/>
	</g>
	<g>
		<path class="st1" d="M-714.9-3127.6l3.8,6.7l28.1,49l48.8-28.6l6.7-3.9c13.5-7.9,18.1-25.2,10.4-38.8c-7.8-13.5-25-18.1-38.5-10.2
			l-6.7,3.9l-3.8-6.7c-7.8-13.5-25-18.1-38.5-10.2C-718.1-3158.5-722.7-3141.1-714.9-3127.6z"/>
		
			<linearGradient id="SVGID_00000110434034624027566090000010549962247003189388_" gradientUnits="userSpaceOnUse" x1="670.6658" y1="-2873.0542" x2="732.1158" y2="-2954.0129" gradientTransform="matrix(-1 0 0 -1 28.5025 -6039.8608)">
			<stop  offset="0" style="stop-color:#00AD66"/>
			<stop  offset="1.000000e-04" style="stop-color:#00AD66"/>
			<stop  offset="1" style="stop-color:#91F0C9"/>
		</linearGradient>
		<path style="fill:url(#SVGID_00000110434034624027566090000010549962247003189388_);fill-opacity:0.9;" d="M-714.9-3127.6l3.8,6.7
			l28.1,49l48.8-28.6l6.7-3.9c13.5-7.9,18.1-25.2,10.4-38.8c-7.8-13.5-25-18.1-38.5-10.2l-6.7,3.9l-3.8-6.7
			c-7.8-13.5-25-18.1-38.5-10.2C-718.1-3158.5-722.7-3141.1-714.9-3127.6z"/>
	</g>
	<g>
		<path class="st6" d="M-801.4-3120.1l4.2,1.4l30.7,10.1l9.9-30.9l1.3-4.2c2.7-8.5-1.9-17.7-10.4-20.5c-8.5-2.8-17.6,1.8-20.3,10.4
			l-1.3,4.2l-4.2-1.4c-8.5-2.8-17.6,1.8-20.3,10.4C-814.5-3132.1-809.9-3122.9-801.4-3120.1z"/>
		
			<linearGradient id="SVGID_00000147208284732822020930000015870307846576077998_" gradientUnits="userSpaceOnUse" x1="808.9802" y1="-2879.6958" x2="815.8702" y2="-2920.8975" gradientTransform="matrix(-1 0 0 -1 28.5025 -6039.8608)">
			<stop  offset="0" style="stop-color:#00AD66"/>
			<stop  offset="1" style="stop-color:#86FBD3"/>
		</linearGradient>
		<path style="fill:url(#SVGID_00000147208284732822020930000015870307846576077998_);fill-opacity:0.6;" d="M-801.4-3120.1l4.2,1.4
			l30.7,10.1l9.9-30.9l1.3-4.2c2.7-8.5-1.9-17.7-10.4-20.5c-8.5-2.8-17.6,1.8-20.3,10.4l-1.3,4.2l-4.2-1.4
			c-8.5-2.8-17.6,1.8-20.3,10.4C-814.5-3132.1-809.9-3122.9-801.4-3120.1z"/>
	</g>
	<g>
		<path class="st6" d="M-632.9-3068.6l1.7,4.1l12.2,30l29.9-12.5l4.1-1.7c8.3-3.4,12.2-12.9,8.9-21.2c-3.4-8.3-12.8-12.2-21.1-8.8
			l-4.1,1.7l-1.7-4.1c-3.4-8.3-12.8-12.2-21.1-8.8C-632.3-3086.4-636.3-3076.8-632.9-3068.6z"/>
		
			<linearGradient id="SVGID_00000156572469123816414950000016181560133846072722_" gradientUnits="userSpaceOnUse" x1="617.3867" y1="-2961.2556" x2="653.2368" y2="-2982.6985" gradientTransform="matrix(-1 0 0 -1 28.5025 -6039.8608)">
			<stop  offset="0" style="stop-color:#00AD66"/>
			<stop  offset="1" style="stop-color:#86FBD3"/>
		</linearGradient>
		<path style="fill:url(#SVGID_00000156572469123816414950000016181560133846072722_);fill-opacity:0.6;" d="M-632.9-3068.6l1.7,4.1
			l12.2,30l29.9-12.5l4.1-1.7c8.3-3.4,12.2-12.9,8.9-21.2c-3.4-8.3-12.8-12.2-21.1-8.8l-4.1,1.7l-1.7-4.1
			c-3.4-8.3-12.8-12.2-21.1-8.8C-632.3-3086.4-636.3-3076.8-632.9-3068.6z"/>
	</g>
	<g>
		<path class="st6" d="M-585.5-2948.3l3,3.2l22.4,23.4l23.2-22.6l3.2-3.1c6.4-6.3,6.6-16.6,0.4-23c-6.2-6.4-16.4-6.6-22.8-0.4
			l-3.2,3.1l-3.1-3.2c-6.2-6.5-16.4-6.6-22.8-0.4C-591.5-2965-591.7-2954.7-585.5-2948.3z"/>
		
			<linearGradient id="SVGID_00000098926218925372731050000005147678052512231078_" gradientUnits="userSpaceOnUse" x1="576.8" y1="-3065.9729" x2="602.1801" y2="-3099.157" gradientTransform="matrix(-1 0 0 -1 28.5025 -6039.8608)">
			<stop  offset="0" style="stop-color:#00AD66"/>
			<stop  offset="1" style="stop-color:#86FBD3"/>
		</linearGradient>
		<path style="fill:url(#SVGID_00000098926218925372731050000005147678052512231078_);fill-opacity:0.6;" d="M-585.5-2948.3l3,3.2
			l22.4,23.4l23.2-22.6l3.2-3.1c6.4-6.3,6.6-16.6,0.4-23c-6.2-6.4-16.4-6.6-22.8-0.4l-3.2,3.1l-3.1-3.2c-6.2-6.5-16.4-6.6-22.8-0.4
			C-591.5-2965-591.7-2954.7-585.5-2948.3z"/>
	</g>
	<g>
		<path class="st6" d="M-785.1-3026.6l6.5,2.2l47.8,16.3l15.9-47.9l2.2-6.5c4.4-13.2-2.8-27.6-15.9-32.1
			c-13.2-4.5-27.4,2.6-31.8,15.8l-2.2,6.5l-6.5-2.2c-13.2-4.5-27.4,2.6-31.8,15.8C-805.4-3045.4-798.3-3031.1-785.1-3026.6z"/>
		
			<linearGradient id="SVGID_00000150817220457424442570000017751087381838282159_" gradientUnits="userSpaceOnUse" x1="780.4413" y1="-2951.1709" x2="791.7814" y2="-3015.2539" gradientTransform="matrix(-1 0 0 -1 28.5025 -6039.8608)">
			<stop  offset="0" style="stop-color:#00AD66"/>
			<stop  offset="1" style="stop-color:#86FBD3"/>
		</linearGradient>
		<path style="fill:url(#SVGID_00000150817220457424442570000017751087381838282159_);fill-opacity:0.6;" d="M-785.1-3026.6l6.5,2.2
			l47.8,16.3l15.9-47.9l2.2-6.5c4.4-13.2-2.8-27.6-15.9-32.1c-13.2-4.5-27.4,2.6-31.8,15.8l-2.2,6.5l-6.5-2.2
			c-13.2-4.5-27.4,2.6-31.8,15.8C-805.4-3045.4-798.3-3031.1-785.1-3026.6z"/>
	</g>
</g>
<g id="ukooRn.tif">
	
		<image style="overflow:visible;" width="597" height="397" id="Layer_0_00000007410485102098277170000009478837796286457530_" xlink:href="A213488CCD3E4367.png"  transform="matrix(1 0 0 1 -926.5316 127.7037)">
	</image>
</g>
<text transform="matrix(1 0 0 1 204.1142 314.469)" style="font-family:'MyriadPro-Regular'; font-size:12px;">search.svg</text>
<g>
	<path class="st35" d="M15.1,29.8L15.1,29.8c0-12.3,10-22.2,22.2-22.2l0,0c12.3,0,22.2,10,22.2,22.2l0,0c0,12.3-10,22.2-22.2,22.2
		l0,0C25,52,15.1,42.1,15.1,29.8z"/>
	<path class="st36" d="M21.1,29.8L21.1,29.8c0-8.9,7.2-16.2,16.2-16.2h0c8.9,0,16.2,7.2,16.2,16.2l0,0c0,8.9-7.2,16.2-16.2,16.2h0
		C28.4,46,21.1,38.7,21.1,29.8z"/>
	<path class="st35" d="M57.1,53.2l3.7-3.7c0.6-0.6,1.5-0.6,2.1,0l16.7,16.7c0.6,0.6,0.6,1.5,0,2.1L75.8,72c-0.6,0.6-1.5,0.6-2.1,0
		L57.1,55.3C56.5,54.7,56.5,53.8,57.1,53.2z"/>
	<line class="st37" x1="53.4" y1="44.8" x2="59.5" y2="50.9"/>
	<line class="st37" x1="52.8" y1="45.5" x2="58.9" y2="51.6"/>
	<path class="st38" d="M44.3,23.4c-1.8-1.9-4.7-1.9-6.4,0L37,24.4l-0.9-0.9c-1.8-1.9-4.7-1.9-6.4,0c-1.8,1.9-1.8,5,0,6.9l0.9,0.9
		l5.9,6.3c0.3,0.3,0.8,0.3,1.1,0l5.9-6.3l0.9-0.9C46.1,28.4,46.1,25.3,44.3,23.4z"/>
</g>
</svg>
