<svg width="59" height="59" viewBox="0 0 59 59" fill="none" xmlns="http://www.w3.org/2000/svg">
<path d="M52.4656 33.8006V8.23391C43.0846 1.96024 29.5211 1.9668 29.5211 1.9668C29.5211 1.9668 15.9708 1.96679 6.5767 8.23391V33.8006C6.5767 33.8006 4.98368 44.9778 29.5211 56.4697C54.0651 44.9778 52.4656 33.8006 52.4656 33.8006Z" fill="#A6E8CD" stroke="#00AD66" stroke-width="2.29444" stroke-linecap="round" stroke-linejoin="round"/>
<path d="M48.1849 32.866C48.1803 32.8306 48.178 32.7949 48.178 32.7592V11.0865C44.4006 8.63011 39.8374 7.36383 36.1344 6.71649C34.2315 6.38384 32.5731 6.21752 31.392 6.13446C30.8018 6.09295 30.3318 6.0723 30.0111 6.06202C29.8508 6.05689 29.7278 6.05435 29.646 6.05309C29.6051 6.05246 29.5744 6.05216 29.5545 6.05201L29.5327 6.05188L29.528 6.05187L29.5277 6.05187L29.5276 6.05187H29.5272L29.5272 6.05187L29.5268 6.05187L29.5221 6.05188L29.5003 6.05201C29.4804 6.05216 29.4498 6.05246 29.4089 6.05309C29.3271 6.05435 29.2043 6.05689 29.044 6.06202C28.7235 6.07229 28.2537 6.09295 27.6638 6.13445C26.4834 6.21751 24.8258 6.38383 22.9237 6.71648C19.2223 7.36381 14.6607 8.63007 10.8834 11.0865V32.7592C10.8834 32.7951 10.881 32.831 10.8763 32.8666C10.8762 32.8676 10.876 32.8694 10.8757 32.872C10.8748 32.8806 10.8732 32.8982 10.8714 32.9244C10.868 32.9767 10.8642 33.0638 10.8657 33.1832C10.8687 33.4219 10.8928 33.7907 10.9827 34.2721C11.1623 35.2328 11.6065 36.6538 12.6845 38.393C14.8164 41.8324 19.4561 46.5604 29.5274 51.4061C39.5988 46.5604 44.2402 41.8324 46.3737 38.3928C47.4526 36.6535 47.8976 35.2325 48.0777 34.2717C48.1679 33.7902 48.1922 33.4214 48.1954 33.1827C48.197 33.0632 48.1932 32.9762 48.1898 32.9238C48.1881 32.8976 48.1864 32.8801 48.1855 32.8715C48.1853 32.8687 48.185 32.8669 48.1849 32.866ZM48.1849 32.866C48.1851 32.8673 48.1853 32.8687 48.1855 32.87" fill="white" stroke="#00AD66" stroke-width="1.63889" stroke-linecap="round" stroke-linejoin="round"/>
<path d="M36.2609 22.073C35.8767 21.6883 35.4204 21.3831 34.9182 21.1748C34.4159 20.9666 33.8775 20.8594 33.3338 20.8594C32.7901 20.8594 32.2517 20.9666 31.7495 21.1748C31.2472 21.3831 30.791 21.6883 30.4068 22.073L29.607 22.8728L28.8072 22.073C28.423 21.6883 27.9667 21.3831 27.4645 21.1748C26.9622 20.9666 26.4239 20.8594 25.8801 20.8594C25.3364 20.8594 24.7981 20.9666 24.2958 21.1748C23.7936 21.3831 23.3373 21.6883 22.9531 22.073C22.5638 22.4593 22.2548 22.9189 22.044 23.4252C21.8331 23.9315 21.7246 24.4746 21.7246 25.023C21.7246 25.5715 21.8331 26.1145 22.044 26.6208C22.2548 27.1271 22.5638 27.5867 22.9531 27.973L23.7529 28.7793L29.1415 34.1877C29.2025 34.2491 29.275 34.2979 29.3549 34.3312C29.4348 34.3644 29.5204 34.3816 29.607 34.3816C29.6935 34.3816 29.7792 34.3644 29.8591 34.3312C29.939 34.2979 30.0115 34.2491 30.0724 34.1877L35.4611 28.7793L36.2609 27.973C36.6501 27.5867 36.9591 27.1271 37.17 26.6208C37.3808 26.1145 37.4894 25.5715 37.4894 25.023C37.4894 24.4746 37.3808 23.9315 37.17 23.4252C36.9591 22.9189 36.6501 22.4593 36.2609 22.073V22.073Z" fill="#FF1E57"/>
<path d="M18.1075 34.2337L17.2291 34.6073C17.1351 34.6549 17.0283 34.6711 16.9244 34.6534C16.8205 34.6357 16.7251 34.5851 16.6522 34.509C16.3881 34.2482 16.1805 33.9358 16.0425 33.5912C15.9351 33.3675 15.8748 33.124 15.8655 32.8759C15.8562 32.6278 15.8981 32.3805 15.9884 32.1493C16.0788 31.9181 16.2158 31.708 16.3909 31.532C16.566 31.356 16.7755 31.2179 17.0062 31.1263C17.2382 31.0294 17.4877 30.9811 17.7391 30.9845C17.9905 30.988 18.2386 31.043 18.4678 31.1463C18.6971 31.2496 18.9027 31.3988 19.0719 31.5849C19.2411 31.7709 19.3703 31.9897 19.4514 32.2277C19.5654 32.4918 19.6341 32.7733 19.6546 33.0602C19.6546 33.3028 19.5825 33.4536 19.4055 33.5257C19.328 33.562 19.2393 33.5666 19.1585 33.5384C19.0776 33.5103 19.011 33.4516 18.9729 33.3749C18.9326 33.2705 18.9148 33.1588 18.9204 33.0471C18.9103 32.8621 18.8682 32.6802 18.7958 32.5096C18.7468 32.3683 18.6685 32.239 18.5661 32.1301C18.4636 32.0212 18.3393 31.9352 18.2013 31.8776C18.0633 31.8201 17.9147 31.7923 17.7653 31.7961C17.6158 31.8 17.4688 31.8353 17.334 31.8999C17.192 31.9446 17.061 32.0186 16.9495 32.1171C16.838 32.2156 16.7485 32.3365 16.6867 32.4718C16.6248 32.6072 16.5922 32.754 16.5907 32.9028C16.5893 33.0516 16.6192 33.1991 16.6784 33.3356C16.7693 33.5685 16.9129 33.7771 17.098 33.9452L17.5503 33.7551L17.3733 33.3421C17.3539 33.301 17.3431 33.2563 17.3416 33.2109C17.3401 33.1655 17.3478 33.1202 17.3644 33.0779C17.381 33.0355 17.406 32.997 17.438 32.9647C17.47 32.9323 17.5082 32.9069 17.5503 32.8898C17.5919 32.8718 17.6367 32.8625 17.6821 32.8624C17.7274 32.8623 17.7723 32.8714 17.814 32.8892C17.8557 32.907 17.8933 32.9331 17.9246 32.9659C17.9559 32.9986 17.9802 33.0374 17.9961 33.0799L18.2845 33.7355C18.3075 33.7795 18.3212 33.8277 18.3247 33.8772C18.3281 33.9267 18.3214 33.9764 18.3047 34.0232C18.2881 34.07 18.262 34.1128 18.2281 34.149C18.1942 34.1852 18.1531 34.2141 18.1075 34.2337Z" fill="#393939"/>
<path d="M18.6588 35.2683L19.9175 34.1473C19.9985 34.0775 20.1039 34.0424 20.2107 34.0498C20.3175 34.0572 20.4171 34.1063 20.4878 34.1867C20.5254 34.2233 20.5554 34.2672 20.5758 34.3156C20.5963 34.364 20.6068 34.416 20.6068 34.4686C20.6068 34.5211 20.5963 34.5731 20.5758 34.6215C20.5554 34.67 20.5254 34.7138 20.4878 34.7504L19.2291 35.8649C19.1376 35.9217 19.06 35.9983 19.0019 36.089C18.9439 36.1797 18.9069 36.2823 18.8937 36.3892C18.8805 36.4961 18.8914 36.6046 18.9256 36.7067C18.9599 36.8088 19.0165 36.902 19.0914 36.9793C19.1597 37.0618 19.2454 37.1282 19.3422 37.1738C19.4391 37.2193 19.5449 37.243 19.6519 37.243C19.759 37.243 19.8648 37.2193 19.9617 37.1738C20.0586 37.1282 20.1442 37.0618 20.2125 36.9793L21.4842 35.8518C21.5663 35.7867 21.6707 35.7563 21.7749 35.7674C21.8791 35.7784 21.9748 35.8299 22.0414 35.9108C22.1127 35.9821 22.1527 36.0788 22.1527 36.1796C22.1527 36.2804 22.1127 36.377 22.0414 36.4483L20.7303 37.5824C20.5835 37.7281 20.4077 37.8412 20.2143 37.9145C20.0209 37.9878 19.8143 38.0196 19.6078 38.0079C19.4013 37.9961 19.1997 37.9411 19.0158 37.8463C18.832 37.7516 18.6702 37.6192 18.5408 37.4579C18.3929 37.3125 18.2775 37.1374 18.2025 36.944C18.1275 36.7507 18.0945 36.5436 18.1056 36.3365C18.1168 36.1294 18.1719 35.927 18.2672 35.7429C18.3626 35.5587 18.4961 35.397 18.6588 35.2683V35.2683Z" fill="#393939"/>
<path d="M23.6209 40.8214C23.5977 40.8646 23.566 40.9025 23.5277 40.933C23.4894 40.9635 23.4453 40.9859 23.398 40.9987C23.3508 41.0116 23.3015 41.0147 23.253 41.0079C23.2045 41.0011 23.1579 40.9845 23.1161 40.9591C23.0464 40.9212 22.9908 40.8618 22.9577 40.7897C22.9247 40.7176 22.9158 40.6367 22.9325 40.5592L23.0112 40.0741L21.7 39.3005L21.3133 39.6086C21.2494 39.6518 21.174 39.6748 21.0969 39.6748C21.0199 39.6748 20.9445 39.6518 20.8806 39.6086C20.8376 39.5844 20.8001 39.5516 20.7704 39.5123C20.7406 39.4729 20.7192 39.4279 20.7075 39.38C20.6958 39.332 20.6941 39.2822 20.7025 39.2336C20.7108 39.185 20.729 39.1386 20.756 39.0973C20.7934 39.0378 20.8425 38.9865 20.9003 38.9465L23.1882 37.2355C23.2772 37.1581 23.3881 37.1103 23.5055 37.0985C23.623 37.0868 23.7411 37.1117 23.8437 37.17C23.9437 37.2331 24.0218 37.3255 24.0676 37.4346C24.1133 37.5436 24.1244 37.6641 24.0994 37.7796L23.6536 40.5985C23.659 40.6743 23.6478 40.7504 23.6209 40.8214V40.8214ZM23.1292 39.3727L23.3455 38.0615L22.3032 38.8744L23.1292 39.3727Z" fill="#393939"/>
<path d="M27.4959 41.923C27.4844 41.9732 27.4629 42.0207 27.4328 42.0625C27.4027 42.1043 27.3646 42.1397 27.3206 42.1666C27.2766 42.1934 27.2277 42.2113 27.1768 42.219C27.1258 42.2267 27.0738 42.2241 27.0239 42.2115C26.9577 42.1932 26.8969 42.1592 26.8467 42.1124C26.7965 42.0656 26.7583 42.0074 26.7354 41.9427L26.1389 40.6316L25.8504 40.5595L25.6341 41.4183C25.6211 41.4705 25.5979 41.5197 25.5657 41.5629C25.5335 41.6062 25.4931 41.6426 25.4467 41.67C25.4004 41.6975 25.349 41.7154 25.2957 41.7228C25.2423 41.7303 25.188 41.727 25.1359 41.7132C25.085 41.6996 25.0374 41.676 24.9957 41.6439C24.954 41.6117 24.919 41.5717 24.8928 41.526C24.8666 41.4803 24.8497 41.4299 24.8431 41.3776C24.8364 41.3254 24.8401 41.2724 24.854 41.2216L25.5096 38.5076C25.5358 38.4083 25.5999 38.3232 25.6881 38.2705C25.7763 38.2178 25.8817 38.2017 25.9816 38.2257L26.8141 38.442C26.9762 38.4605 27.1325 38.5134 27.2726 38.5971C27.4126 38.6808 27.5332 38.7935 27.6263 38.9275C27.7193 39.0615 27.7827 39.2138 27.8122 39.3743C27.8418 39.5347 27.8367 39.6997 27.7974 39.858C27.7474 40.0608 27.6418 40.2456 27.4924 40.3916C27.3429 40.5375 27.1557 40.6388 26.9518 40.684L27.4172 41.5887C27.4536 41.6355 27.4794 41.6896 27.493 41.7473C27.5065 41.805 27.5075 41.8649 27.4959 41.923V41.923ZM26.0143 39.9564L26.3814 40.0481C26.6961 40.1268 26.9387 40.0481 27.037 39.7466C27.1353 39.445 26.9518 39.2418 26.6371 39.1631L26.27 39.0648L26.0143 39.9564Z" fill="#393939"/>
<path d="M31.9667 41.9221C31.9703 41.9709 31.964 42.0199 31.9484 42.0662C31.9328 42.1125 31.9081 42.1552 31.8757 42.1919C31.8433 42.2285 31.804 42.2583 31.7599 42.2795C31.7159 42.3008 31.6681 42.313 31.6193 42.3155C31.5398 42.3221 31.4604 42.3026 31.3929 42.26C31.3255 42.2174 31.2738 42.1541 31.2456 42.0795L31.0424 41.6337L29.5411 41.7058L29.3838 42.1778C29.3593 42.2504 29.3139 42.314 29.2532 42.3607C29.1925 42.4074 29.1193 42.435 29.0429 42.44C28.9942 42.4427 28.9454 42.4356 28.8994 42.4191C28.8534 42.4027 28.8112 42.3772 28.7752 42.3443C28.7392 42.3113 28.7101 42.2715 28.6896 42.2271C28.6692 42.1828 28.6578 42.1348 28.6561 42.086C28.6519 42.0124 28.6631 41.9388 28.6889 41.8697L29.6526 39.1754C29.6834 39.0602 29.7503 38.9579 29.8435 38.8836C29.9367 38.8092 30.0513 38.7667 30.1705 38.7624C30.2894 38.7567 30.4071 38.7892 30.5062 38.8553C30.6053 38.9214 30.6807 39.0175 30.7212 39.1295L31.9077 41.7517C31.9367 41.8048 31.9567 41.8624 31.9667 41.9221V41.9221ZM30.7474 40.9847L30.2098 39.7785L29.7837 41.0306L30.7474 40.9847Z" fill="#393939"/>
<path d="M33.2907 41.6346L32.2943 39.0124C32.2714 38.9548 32.2603 38.8933 32.2619 38.8313C32.2634 38.7694 32.2774 38.7084 32.3032 38.652C32.3289 38.5957 32.3658 38.5451 32.4116 38.5034C32.4574 38.4617 32.5111 38.4297 32.5696 38.4093C32.653 38.378 32.743 38.3682 32.8312 38.3808C32.9194 38.3934 33.0031 38.428 33.0744 38.4814L35.1591 39.8253L34.5035 38.0815C34.486 38.0338 34.4782 37.983 34.4806 37.9322C34.483 37.8814 34.4956 37.8317 34.5176 37.7858C34.5396 37.74 34.5706 37.699 34.6087 37.6653C34.6468 37.6317 34.6913 37.606 34.7395 37.5899C34.7863 37.5696 34.8367 37.559 34.8877 37.5586C34.9387 37.5582 34.9893 37.5681 35.0364 37.5877C35.0835 37.6073 35.1261 37.6361 35.1619 37.6725C35.1976 37.7089 35.2256 37.7522 35.2443 37.7996L36.2342 40.4218C36.2572 40.479 36.2686 40.5402 36.2675 40.6018C36.2664 40.6634 36.2529 40.7242 36.2278 40.7805C36.2027 40.8368 36.1666 40.8874 36.1215 40.9294C36.0764 40.9714 36.0233 41.0039 35.9654 41.025C35.8775 41.0533 35.7841 41.0603 35.6929 41.0455C35.6017 41.0307 35.5154 40.9944 35.4409 40.9397L33.3891 39.6286L34.0446 41.3527C34.0782 41.4492 34.0722 41.5551 34.028 41.6472C33.9838 41.7394 33.9049 41.8102 33.8086 41.8444C33.7613 41.8678 33.7096 41.881 33.6568 41.8829C33.6041 41.8849 33.5515 41.8757 33.5025 41.8559C33.4536 41.836 33.4094 41.8061 33.3729 41.7679C33.3364 41.7298 33.3084 41.6844 33.2907 41.6346V41.6346Z" fill="#393939"/>
<path d="M37.9839 35.6827C38.0439 35.7548 38.0727 35.8478 38.0641 35.9413C38.0555 36.0347 38.0101 36.1209 37.938 36.1809L37.3218 36.6726L38.8624 38.6064C38.9299 38.69 38.9616 38.7969 38.9506 38.9038C38.9395 39.0107 38.8866 39.1088 38.8034 39.1768C38.7619 39.2107 38.7141 39.236 38.6628 39.2511C38.6114 39.2662 38.5575 39.2708 38.5043 39.2647C38.4512 39.2586 38.3997 39.2418 38.3531 39.2155C38.3065 39.1891 38.2657 39.1537 38.233 39.1112L36.6859 37.1773L36.0763 37.6624C36.0401 37.6922 35.9982 37.7144 35.9533 37.7276C35.9083 37.7408 35.8611 37.7448 35.8146 37.7392C35.768 37.7337 35.7231 37.7189 35.6824 37.6955C35.6418 37.6722 35.6063 37.6409 35.578 37.6034C35.5487 37.5673 35.5269 37.5257 35.5136 37.4811C35.5004 37.4365 35.4961 37.3897 35.501 37.3435C35.5058 37.2972 35.5198 37.2523 35.542 37.2114C35.5642 37.1706 35.5943 37.1345 35.6305 37.1052L37.4923 35.6237C37.5279 35.594 37.5692 35.572 37.6137 35.5589C37.6581 35.5458 37.7048 35.5418 37.7508 35.5473C37.7968 35.5529 37.8412 35.5677 37.8813 35.591C37.9214 35.6142 37.9563 35.6455 37.9839 35.6827V35.6827Z" fill="#393939"/>
<path d="M41.97 35.0986C42.0099 35.1253 42.0438 35.16 42.0696 35.2005C42.0954 35.241 42.1125 35.2864 42.1199 35.3338C42.1273 35.3812 42.1248 35.4296 42.1125 35.476C42.1003 35.5224 42.0785 35.5658 42.0487 35.6034L41.1112 36.8817C41.0814 36.9245 41.0431 36.9608 40.9987 36.9881C40.9542 37.0155 40.9046 37.0334 40.853 37.0408C40.8013 37.0482 40.7487 37.0449 40.6984 37.031C40.6481 37.0172 40.6012 36.9931 40.5605 36.9604L38.3317 35.3281C38.2886 35.2986 38.2519 35.2608 38.2239 35.2169C38.1958 35.1729 38.1769 35.1237 38.1683 35.0723C38.1598 35.0209 38.1617 34.9682 38.174 34.9175C38.1863 34.8669 38.2087 34.8192 38.2399 34.7774L39.138 33.5449C39.1659 33.5066 39.2011 33.4741 39.2416 33.4493C39.2822 33.4246 39.3271 33.4081 39.374 33.4008C39.4209 33.3935 39.4688 33.3955 39.5149 33.4067C39.561 33.418 39.6045 33.4382 39.6428 33.4663C39.682 33.4929 39.7152 33.5274 39.7403 33.5675C39.7654 33.6077 39.7819 33.6526 39.7887 33.6995C39.7955 33.7464 39.7924 33.7941 39.7797 33.8398C39.767 33.8854 39.7449 33.9279 39.7149 33.9645L39.0593 34.8561L39.6428 35.2887L40.2066 34.5217C40.232 34.4851 40.2646 34.454 40.3022 34.4302C40.3399 34.4063 40.382 34.3903 40.426 34.383C40.47 34.3756 40.515 34.3772 40.5583 34.3875C40.6017 34.3978 40.6426 34.4167 40.6785 34.4431C40.7149 34.4689 40.7456 34.502 40.7687 34.5401C40.7918 34.5783 40.8069 34.6208 40.813 34.6649C40.8192 34.7091 40.8162 34.7541 40.8044 34.7971C40.7925 34.8401 40.772 34.8802 40.7441 34.9151L40.1869 35.6821L40.7834 36.1213L41.4783 35.1838C41.5045 35.1454 41.5382 35.1126 41.5773 35.0874C41.6165 35.0622 41.6603 35.0451 41.7061 35.0371C41.752 35.0292 41.799 35.0305 41.8443 35.0411C41.8896 35.0517 41.9324 35.0712 41.97 35.0986V35.0986Z" fill="#393939"/>
<path d="M43.4644 31.7291C43.5095 31.7457 43.5508 31.7713 43.5857 31.8044C43.6206 31.8374 43.6484 31.8773 43.6675 31.9214C43.6865 31.9656 43.6963 32.0132 43.6963 32.0613C43.6963 32.1094 43.6866 32.157 43.6676 32.2011L43.0841 33.6761C43.0654 33.7244 43.0372 33.7684 43.0011 33.8056C42.9651 33.8428 42.9219 33.8723 42.8742 33.8925C42.8265 33.9127 42.7753 33.9231 42.7235 33.9231C42.6718 33.9231 42.6205 33.9126 42.5728 33.8925L39.9965 32.8764C39.9476 32.8582 39.9028 32.8305 39.8647 32.7948C39.8267 32.7592 39.7961 32.7163 39.7747 32.6687C39.7534 32.6211 39.7417 32.5698 39.7404 32.5176C39.739 32.4655 39.7481 32.4136 39.767 32.365L40.3308 30.9425C40.3474 30.8981 40.3728 30.8576 40.4054 30.8232C40.438 30.7889 40.4772 30.7614 40.5206 30.7425C40.564 30.7235 40.6107 30.7135 40.6581 30.7129C40.7054 30.7124 40.7524 30.7213 40.7963 30.7392C40.84 30.7565 40.8799 30.7824 40.9135 30.8152C40.9472 30.8481 40.9739 30.8874 40.9923 30.9307C41.0106 30.974 41.02 31.0206 41.0202 31.0676C41.0203 31.1147 41.011 31.1613 40.9929 31.2047L40.5865 32.2339L41.242 32.5027L41.5895 31.6177C41.6218 31.5335 41.6861 31.4655 41.7684 31.4286C41.8508 31.3917 41.9444 31.389 42.0287 31.421C42.1122 31.4558 42.1784 31.5223 42.2128 31.6059C42.2472 31.6895 42.247 31.7833 42.2123 31.8668L41.8648 32.7518L42.5597 33.0206L42.9858 31.9389C43.0007 31.8918 43.0256 31.8483 43.0586 31.8115C43.0917 31.7748 43.1322 31.7454 43.1775 31.7256C43.2228 31.7057 43.2719 31.6958 43.3213 31.6964C43.3708 31.697 43.4196 31.7082 43.4644 31.7291V31.7291Z" fill="#393939"/>
<path d="M21.5959 15.2802L23.3724 17.4632C23.4057 17.5041 23.4305 17.5511 23.4456 17.6015C23.4606 17.652 23.4655 17.705 23.4601 17.7574C23.4546 17.8098 23.4388 17.8605 23.4136 17.9068C23.3885 17.9531 23.3544 17.9939 23.3134 18.027C23.2728 18.0616 23.2257 18.0878 23.1748 18.104C23.1239 18.1201 23.0704 18.1259 23.0172 18.121C22.9641 18.1162 22.9124 18.1007 22.8653 18.0755C22.8182 18.0504 22.7767 18.016 22.7431 17.9746L22.0875 17.1617L20.9272 18.1122L21.5827 18.9186C21.6179 18.9592 21.6444 19.0066 21.6605 19.0578C21.6767 19.109 21.6822 19.163 21.6766 19.2165C21.6711 19.2699 21.6547 19.3217 21.6284 19.3685C21.6021 19.4154 21.5665 19.4563 21.5238 19.4889C21.4829 19.5221 21.4359 19.547 21.3854 19.5621C21.335 19.5771 21.282 19.582 21.2296 19.5765C21.1772 19.5711 21.1264 19.5553 21.0801 19.5301C21.0339 19.5049 20.9931 19.4709 20.96 19.4299L19.1834 17.2469C19.1493 17.2064 19.1237 17.1595 19.1082 17.1089C19.0926 17.0583 19.0874 17.0051 19.093 16.9524C19.0985 16.8998 19.1146 16.8488 19.1403 16.8025C19.1659 16.7563 19.2007 16.7156 19.2424 16.6831C19.2825 16.6486 19.3291 16.6226 19.3794 16.6065C19.4297 16.5904 19.4828 16.5847 19.5354 16.5896C19.5881 16.5945 19.6392 16.6099 19.6857 16.635C19.7322 16.6601 19.7732 16.6943 19.8062 16.7356L20.4618 17.555L21.6221 16.611L20.9665 15.7915C20.9333 15.7507 20.9084 15.7037 20.8934 15.6532C20.8783 15.6027 20.8734 15.5498 20.8789 15.4974C20.8844 15.445 20.9001 15.3942 20.9253 15.348C20.9505 15.3017 20.9845 15.2608 21.0255 15.2278C21.1083 15.1595 21.2147 15.1266 21.3215 15.1365C21.4283 15.1463 21.527 15.198 21.5959 15.2802V15.2802Z" fill="#393939"/>
<path d="M26.3153 16.2046C26.3334 16.2489 26.3424 16.2963 26.3419 16.3441C26.3414 16.392 26.3315 16.4392 26.3125 16.4831C26.2936 16.527 26.2662 16.5668 26.2318 16.6C26.1973 16.6332 26.1567 16.6592 26.1121 16.6766L24.6502 17.2731C24.6021 17.2931 24.5505 17.3032 24.4984 17.3028C24.4463 17.3024 24.3948 17.2914 24.3471 17.2706C24.2993 17.2498 24.2563 17.2195 24.2205 17.1817C24.1847 17.1438 24.1569 17.0991 24.1389 17.0502L23.0965 14.4936C23.0749 14.4464 23.0631 14.3953 23.0617 14.3434C23.0602 14.2915 23.0693 14.2398 23.0883 14.1915C23.1072 14.1432 23.1357 14.0992 23.1721 14.0621C23.2084 14.025 23.2518 13.9956 23.2997 13.9757L24.7158 13.3988C24.7595 13.3797 24.8067 13.3696 24.8545 13.3692C24.9023 13.3687 24.9496 13.378 24.9937 13.3964C25.0378 13.4147 25.0778 13.4419 25.1111 13.4761C25.1444 13.5103 25.1705 13.5509 25.1878 13.5955C25.2067 13.6392 25.2164 13.6863 25.2163 13.7339C25.2162 13.7816 25.2063 13.8287 25.1872 13.8723C25.1682 13.916 25.1403 13.9552 25.1055 13.9877C25.0706 14.0201 25.0295 14.045 24.9845 14.0609L23.9619 14.4739L24.2307 15.1295L25.1091 14.7755C25.1927 14.74 25.2868 14.7387 25.3713 14.7718C25.4559 14.8049 25.5241 14.8697 25.5614 14.9525C25.5919 15.0378 25.5886 15.1316 25.552 15.2146C25.5154 15.2975 25.4484 15.3632 25.3648 15.3982L24.4863 15.7522L24.7682 16.4406L25.8433 16.0013C25.8875 15.9824 25.9351 15.9726 25.9832 15.9726C26.0313 15.9726 26.0788 15.9825 26.123 16.0015C26.1672 16.0205 26.207 16.0483 26.2401 16.0832C26.2731 16.1181 26.2987 16.1594 26.3153 16.2046V16.2046Z" fill="#393939"/>
<path d="M29.9861 15.7126C29.9925 15.7609 29.9893 15.81 29.9766 15.857C29.9639 15.904 29.9419 15.948 29.912 15.9864C29.8821 16.0248 29.8449 16.057 29.8024 16.0809C29.76 16.1048 29.7133 16.12 29.6649 16.1256C29.5855 16.1376 29.5044 16.1236 29.4335 16.0858C29.3627 16.0481 29.3059 15.9885 29.2716 15.9159L29.0487 15.4832L27.554 15.6405L27.4229 16.1191C27.4038 16.1929 27.3629 16.2592 27.3056 16.3094C27.2484 16.3597 27.1773 16.3916 27.1017 16.401C27.0028 16.4102 26.9043 16.3804 26.8271 16.3179C26.7499 16.2555 26.7002 16.1653 26.6887 16.0667C26.6767 15.9972 26.6767 15.9263 26.6887 15.8569L27.495 13.1167C27.5199 12.9996 27.5806 12.8931 27.6687 12.8121C27.7568 12.731 27.8679 12.6794 27.9867 12.6643C28.1047 12.6539 28.223 12.6805 28.3252 12.7404C28.4274 12.8003 28.5085 12.8906 28.557 12.9986L29.8681 15.5225C29.9225 15.5752 29.9631 15.6405 29.9861 15.7126V15.7126ZM28.7209 14.8539L28.1112 13.6804L27.7572 14.9522L28.7209 14.8539Z" fill="#393939"/>
<path d="M32.6746 16.1453C32.6674 16.1922 32.651 16.2373 32.6263 16.278C32.6016 16.3186 32.5692 16.3539 32.5308 16.3819C32.4924 16.41 32.4488 16.4301 32.4026 16.4413C32.3564 16.4524 32.3085 16.4543 32.2616 16.4468L30.8587 16.2239C30.8063 16.2169 30.7559 16.1992 30.7107 16.1719C30.6654 16.1447 30.6262 16.1084 30.5955 16.0654C30.5648 16.0224 30.5432 15.9736 30.5321 15.9219C30.521 15.8703 30.5206 15.8169 30.5309 15.765L30.9636 13.0051C30.9706 12.9528 30.9883 12.9024 31.0156 12.8571C31.0428 12.8119 31.0791 12.7727 31.1221 12.742C31.1651 12.7113 31.2139 12.6897 31.2656 12.6786C31.3172 12.6675 31.3706 12.667 31.4224 12.6774C31.4747 12.6837 31.5252 12.7006 31.5707 12.7271C31.6162 12.7536 31.6558 12.7891 31.6871 12.8315C31.7184 12.8738 31.7408 12.9221 31.7527 12.9734C31.7647 13.0247 31.7661 13.0779 31.7568 13.1297L31.3766 15.5815L32.373 15.7388C32.4197 15.7452 32.4647 15.7609 32.5052 15.7849C32.5458 15.8089 32.5812 15.8408 32.6093 15.8786C32.6374 15.9165 32.6576 15.9596 32.6688 16.0054C32.68 16.0511 32.682 16.0987 32.6746 16.1453V16.1453Z" fill="#393939"/>
<path d="M36.4638 14.5729C36.43 14.6593 36.3637 14.7289 36.2792 14.7669C36.1946 14.8049 36.0984 14.8082 36.0115 14.7761L35.2772 14.4811L34.366 16.7821C34.3466 16.8314 34.3175 16.8764 34.2805 16.9144C34.2435 16.9524 34.1993 16.9826 34.1505 17.0034C34.1017 17.0241 34.0492 17.0349 33.9962 17.0352C33.9431 17.0355 33.8906 17.0252 33.8416 17.005C33.7917 16.9862 33.746 16.9576 33.7073 16.9208C33.6687 16.8841 33.6377 16.84 33.6163 16.7911C33.595 16.7423 33.5836 16.6896 33.5829 16.6363C33.5821 16.5829 33.5921 16.53 33.6121 16.4806L34.5299 14.1796L33.8022 13.8911C33.7587 13.8746 33.719 13.8494 33.6856 13.817C33.6522 13.7847 33.6258 13.7458 33.608 13.7028C33.5902 13.6598 33.5814 13.6136 33.5821 13.5671C33.5828 13.5205 33.593 13.4747 33.6121 13.4322C33.6273 13.3884 33.6514 13.3481 33.6827 13.3138C33.7141 13.2796 33.7521 13.2521 33.7945 13.2331C33.8368 13.214 33.8826 13.2039 33.9291 13.2032C33.9755 13.2025 34.0215 13.2113 34.0645 13.229L36.2737 14.1075C36.3174 14.1246 36.3572 14.1505 36.3907 14.1835C36.4242 14.2165 36.4506 14.256 36.4684 14.2995C36.4861 14.343 36.4949 14.3897 36.4941 14.4367C36.4933 14.4837 36.483 14.53 36.4638 14.5729V14.5729Z" fill="#393939"/>
<path d="M40.0494 17.2471L38.2728 19.4236C38.2403 19.4663 38.1993 19.5019 38.1524 19.5282C38.1056 19.5545 38.0539 19.5709 38.0004 19.5765C37.947 19.582 37.893 19.5765 37.8417 19.5604C37.7905 19.5442 37.7431 19.5178 37.7025 19.4826C37.6607 19.4501 37.626 19.4094 37.6003 19.3632C37.5746 19.3169 37.5585 19.2659 37.553 19.2133C37.5475 19.1606 37.5527 19.1074 37.5682 19.0568C37.5838 19.0062 37.6094 18.9593 37.6435 18.9188L38.299 18.1059L37.1387 17.1619L36.4831 17.9683C36.45 18.0102 36.4088 18.0451 36.362 18.0709C36.3151 18.0966 36.2636 18.1127 36.2104 18.1182C36.1573 18.1237 36.1035 18.1185 36.0524 18.1029C36.0013 18.0873 35.9538 18.0615 35.9128 18.0273C35.8713 17.9937 35.837 17.9521 35.8118 17.905C35.7867 17.8579 35.7712 17.8063 35.7663 17.7532C35.7614 17.7 35.7672 17.6464 35.7834 17.5955C35.7995 17.5447 35.8257 17.4975 35.8604 17.4569L37.6369 15.2805C37.6699 15.2392 37.7109 15.205 37.7574 15.1799C37.804 15.1548 37.855 15.1394 37.9077 15.1345C37.9603 15.1296 38.0134 15.1354 38.0637 15.1514C38.1141 15.1675 38.1606 15.1936 38.2007 15.228C38.2417 15.2611 38.2758 15.3019 38.3009 15.3482C38.3261 15.3945 38.3419 15.4453 38.3474 15.4977C38.3528 15.55 38.3479 15.603 38.3329 15.6535C38.3178 15.704 38.293 15.751 38.2597 15.7918L37.6042 16.6113L38.7645 17.5553L39.42 16.7358C39.4889 16.6536 39.5876 16.6019 39.6944 16.5921C39.8012 16.5822 39.9076 16.6151 39.9904 16.6834C40.0314 16.7164 40.0654 16.7573 40.0906 16.8036C40.1158 16.8498 40.1315 16.9006 40.137 16.953C40.1425 17.0054 40.1376 17.0583 40.1225 17.1088C40.1075 17.1593 40.0826 17.2063 40.0494 17.2471V17.2471Z" fill="#393939"/>
</svg>
