<svg width="90" height="90" viewBox="0 0 90 90" fill="none" xmlns="http://www.w3.org/2000/svg">
<path d="M53.0137 24.5L10.5137 16L7.01367 17.5L7.51367 21L33.0137 36L38.5137 40.5L36.0137 44.5L19.5137 62.5L10.0137 58L6.51367 59.5V63.5L18.0137 73.5L25.0137 84.5L28.5137 85.5L31.5137 82.5L27.0137 70L47.5137 52.5V46.5L65.0137 40.5L68.5137 41.5L67.5137 31.5L81.0137 17L80.5137 10.5L78.5137 6.5H69.5137L53.0137 24.5Z" fill="#A6E8CD"/>
<path d="M28.1497 86.9966C28.0246 86.9966 27.9028 86.9931 27.7778 86.9827C26.3426 86.8686 25.0292 86.1008 24.1734 84.8801L17.1259 74.7437C16.8659 74.3875 16.619 74.1246 16.3458 73.9206L6.02312 65.918C4.87762 65.0534 4.14029 63.6908 4.0185 62.2038C3.89341 60.689 4.40691 59.195 5.43062 58.0953C6.95137 56.4975 9.26212 56.0514 11.2009 56.9644L19.5914 60.8204L35.9115 42.3218C36.4513 41.72 36.4546 41.0491 36.4085 40.7033C36.3295 40.105 36.0036 39.5828 35.5132 39.2715L8.07712 23.9961C6.61562 23.0796 5.71371 21.6098 5.52608 19.9256C5.33516 18.2483 5.88816 16.6056 7.03696 15.4229C8.12979 14.2782 9.72296 13.8009 11.191 14.1883L51.1914 23.0589C51.8431 23.2076 52.5212 22.9897 52.9919 22.4779L67.3304 6.48308C68.7491 4.90262 71.1883 4 74.0224 4C76.8203 4 79.2594 4.87842 80.7176 6.407C82.2022 7.96671 83.058 10.6953 83.0086 13.7041C82.9592 16.5849 82.1001 19.0541 80.6452 20.4824L68.8347 32.1993C68.1731 32.8563 70.1338 42.1917 69.5117 41.5C68.3397 41.2925 67.1124 41.3976 66.5733 40.233C66.0117 35 64.5117 32 66.5733 29.685L78.3904 17.9613C79.1672 17.197 79.684 15.5059 79.717 13.6418C79.7499 11.6153 79.2298 9.73392 78.3904 8.85204C77.584 8.00475 75.869 7.45833 74.0224 7.45833C72.1461 7.45833 70.497 7.99438 69.7202 8.8555L55.3718 24.8641C54.088 26.2578 52.2743 26.8423 50.5001 26.4411L10.4504 17.5532C10.0422 17.446 9.64396 17.5809 9.35429 17.8818C8.92637 18.321 8.72887 18.9158 8.798 19.5245C8.86712 20.1366 9.193 20.6692 9.69662 20.9873L37.136 36.2628C38.5645 37.1654 39.4599 38.5937 39.6738 40.233C39.8845 41.8618 39.394 43.4803 38.321 44.6804L21.2142 64.0713C20.7369 64.6142 19.9897 64.7733 19.3478 64.4793L9.86779 60.1218C9.16337 59.7864 8.31083 59.9593 7.77429 60.523C7.43525 60.8861 7.2575 61.3911 7.30029 61.8994C7.34308 62.394 7.57679 62.8263 7.96521 63.1202L18.2846 71.1193C18.8047 71.5101 19.282 72.0047 19.7658 72.6687L26.833 82.8327C27.1161 83.2373 27.5539 83.4933 28.0312 83.5313C28.4953 83.5693 28.943 83.3964 29.2787 83.0437C29.8383 82.4731 29.993 81.5912 29.6869 80.8269L25.5427 70.8842C25.2629 70.2098 25.4176 69.4248 25.9311 68.9268L46.0117 50C46.6733 49.3498 47.7201 49.3879 48.3389 50.0899C48.9578 50.792 48.9183 51.8848 48.2533 52.535L29.0286 70.6283L32.7054 79.4643C33.5513 81.5497 33.1004 83.974 31.5862 85.5164C30.6843 86.4605 29.4433 86.9966 28.1497 86.9966Z" fill="#00663C"/>
<path d="M65.5254 86.9917C65.3081 86.9917 65.0909 86.9468 64.8868 86.8534C64.1034 86.511 45.7754 78.1868 45.7754 61.1787V46.7264C45.7754 45.9863 46.2263 45.3258 46.8946 45.0871L64.9987 38.665C65.341 38.544 65.7097 38.544 66.052 38.665L84.1562 45.0871C84.8244 45.3223 85.2754 45.9828 85.2754 46.7264V61.1787C85.2754 78.1868 66.9474 86.511 66.164 86.8569C65.9599 86.9468 65.7426 86.9917 65.5254 86.9917ZM49.0671 47.9679V61.1787C49.0671 74.2685 62.4148 81.7835 65.5254 83.3605C68.6327 81.78 81.9837 74.2374 81.9837 61.1787V47.9679L65.5254 42.1302L49.0671 47.9679Z" fill="#00663C"/>
<path d="M74.5584 56.9393C73.8769 56.0597 72.6697 55.9165 71.813 56.6121L71.7935 56.6325L62.681 64.4266L59.371 60.3556C58.6699 59.4965 57.4433 59.3737 56.6255 60.1102C55.8078 60.8466 55.691 62.1354 56.3919 62.9946L56.4113 63.0151L60.9481 68.5998C60.9676 68.6407 60.987 68.6612 61.0065 68.6817C61.0259 68.7021 61.0454 68.743 61.0844 68.7635C61.1039 68.784 61.1429 68.8249 61.1623 68.8453C61.1818 68.8658 61.2207 68.8863 61.2402 68.9067C61.2596 68.9271 61.2986 68.9476 61.3376 68.9681C61.3765 68.9885 61.3958 69.009 61.4153 69.0294C61.4544 69.0499 61.4738 69.0703 61.5128 69.0908C61.5322 69.1113 61.5712 69.1317 61.5906 69.1317C61.6296 69.1522 61.6685 69.1726 61.7074 69.1726C61.7269 69.1931 61.7658 69.1931 61.7854 69.2136C61.8243 69.234 61.8632 69.234 61.9022 69.2545C61.9216 69.2545 61.9606 69.275 61.9801 69.275C62.019 69.275 62.058 69.2954 62.0969 69.2954C62.1164 69.2954 62.1554 69.3158 62.1749 69.3158C62.2331 69.3158 62.2721 69.3158 62.3305 69.3158C62.3501 69.3158 62.3694 69.3158 62.3889 69.3158C62.4473 69.3158 62.5058 69.3158 62.5642 69.3158C62.5836 69.3158 62.5836 69.3158 62.6031 69.3158C62.6421 69.3158 62.7005 69.2954 62.7394 69.2954C62.7589 69.2954 62.7784 69.2954 62.7979 69.275C62.8369 69.275 62.8758 69.2545 62.9147 69.2545C62.9342 69.2545 62.9536 69.234 62.9731 69.234C63.0121 69.234 63.0315 69.2136 63.0704 69.1931C63.0899 69.1931 63.1094 69.1726 63.1483 69.1726C63.1678 69.1522 63.2067 69.1522 63.2262 69.1317C63.2458 69.1113 63.2846 69.1113 63.304 69.0908C63.3235 69.0703 63.3626 69.0703 63.382 69.0499C63.4014 69.0294 63.4404 69.009 63.4599 69.009C63.4793 69.009 63.4988 68.968 63.5378 68.968C63.5572 68.9476 63.5767 68.9271 63.6156 68.9067C63.6351 68.8862 63.6546 68.8862 63.674 68.8657L74.2468 59.8238C75.0841 59.1077 75.2204 57.8394 74.5584 56.9393V56.9393Z" fill="#00AD66" stroke="#00AD66" stroke-width="0.5"/>
</svg>
