<svg width="44" height="37" viewBox="0 0 44 37" fill="none" xmlns="http://www.w3.org/2000/svg">
<path d="M17.2656 2.85514C17.2656 1.83057 18.0962 1 19.1208 1H25.6092C26.6337 1 27.4643 1.83057 27.4643 2.85514V6.63753H17.2656V2.85514Z" stroke="#00AD66" stroke-width="2" stroke-linecap="round" stroke-linejoin="round"/>
<path d="M5.71821 11.2091C6.40618 8.73959 8.6555 7.03125 11.219 7.03125H33.1209C35.7231 7.03125 37.9962 8.79054 38.6488 11.3096L40.7507 19.4241C40.9827 20.3195 40.9936 21.2578 40.7827 22.1583L38.573 31.5919C37.9682 34.174 35.6652 35.9998 33.0132 35.9998H11.3323C8.71585 35.9998 6.43415 34.2216 5.795 31.6845L3.41975 22.2558C3.17731 21.2934 3.18988 20.2845 3.45623 19.3284L5.71821 11.2091Z" fill="white" stroke="#00AD66" stroke-width="2" stroke-linecap="round" stroke-linejoin="round"/>
<path d="M24.5373 26.6659C23.9208 26.0228 22.9208 26.0228 22.3042 26.6659L21.9999 26.9831L21.6957 26.6659C21.079 26.023 20.0792 26.023 19.4625 26.6659C18.8458 27.3087 18.8458 28.351 19.4625 28.9938L19.7668 29.311L21.9999 31.639L24.2331 29.311L24.5373 28.9938C25.1542 28.3511 25.1542 27.3086 24.5373 26.6659Z" fill="#00AD66"/>
<rect x="1" y="19.4883" width="42" height="3.82608" rx="1.91304" fill="white" stroke="#00AD66" stroke-width="2" stroke-linecap="round" stroke-linejoin="round"/>
<path d="M34.5625 18.5479V14.1836" stroke="#00AD66" stroke-width="2" stroke-linecap="round" stroke-linejoin="round"/>
<path d="M28.4629 18.5479V14.1836" stroke="#00AD66" stroke-width="2" stroke-linecap="round" stroke-linejoin="round"/>
<path d="M22.3643 18.5479V14.1836" stroke="#00AD66" stroke-width="2" stroke-linecap="round" stroke-linejoin="round"/>
<path d="M16.2656 18.5479V14.1836" stroke="#00AD66" stroke-width="2" stroke-linecap="round" stroke-linejoin="round"/>
<path d="M10.166 18.5479V14.1836" stroke="#00AD66" stroke-width="2" stroke-linecap="round" stroke-linejoin="round"/>
</svg>
