<svg width="41" height="34" viewBox="0 0 41 34" fill="none" xmlns="http://www.w3.org/2000/svg">
<rect x="1.4043" y="6.57227" width="38.5393" height="26.427" rx="2" stroke="#00AD66" stroke-width="1.5"/>
<path d="M13.5166 3.06641C13.5166 1.96184 14.412 1.06641 15.5166 1.06641H24.7301C25.8347 1.06641 26.7301 1.96184 26.7301 3.06641V6.57202H13.5166V3.06641Z" stroke="#00AD66" stroke-width="1.5" stroke-linecap="round" stroke-linejoin="round"/>
<path d="M18.6551 14.6309C18.2409 14.6309 17.9051 14.9666 17.9051 15.3809V17.5672H15.7188C15.3045 17.5672 14.9688 17.903 14.9688 18.3172V21.2535C14.9688 21.6677 15.3045 22.0035 15.7188 22.0035H17.9051V24.1898C17.9051 24.6041 18.2409 24.9398 18.6551 24.9398H21.5914C22.0056 24.9398 22.3414 24.6041 22.3414 24.1898V22.0035H24.5277C24.942 22.0035 25.2777 21.6677 25.2777 21.2535V18.3172C25.2777 17.903 24.942 17.5672 24.5277 17.5672H22.3414V15.3809C22.3414 14.9666 22.0056 14.6309 21.5914 14.6309H18.6551Z" stroke="#00AD66" stroke-width="1.5" stroke-linecap="round" stroke-linejoin="round"/>
<circle cx="20.123" cy="19.7851" r="9.91011" stroke="#00AD66" stroke-width="1.5"/>
</svg>
